<?xml version="1.0" encoding="utf-8"?>
<!-- Generator: Adobe Illustrator 16.0.0, SVG Export Plug-In . SVG Version: 6.00 Build 0)  -->
<!DOCTYPE svg PUBLIC "-//W3C//DTD SVG 1.1//EN" "http://www.w3.org/Graphics/SVG/1.1/DTD/svg11.dtd">
<svg version="1.1" id="Layer_1" xmlns="http://www.w3.org/2000/svg" xmlns:xlink="http://www.w3.org/1999/xlink" x="0px" y="0px"
	 width="948px" height="90px" viewBox="0 0 948 90" enable-background="new 0 0 948 90" xml:space="preserve">
<g>
	<path fill-rule="evenodd" clip-rule="evenodd" fill="#2C2F31" d="M948,90V18c0-8.284-6.716-15-15-15H15C6.716,3,0,9.716,0,18v72
		H948z"/>
	<rect fill-rule="evenodd" clip-rule="evenodd" fill="#252628" width="948" height="28"/>
	<path fill-rule="evenodd" clip-rule="evenodd" fill="#FF8772" d="M24.925,9c2.72,0,4.925,2.239,4.925,5c0,2.762-2.205,5-4.925,5
		S20,16.762,20,14C20,11.239,22.205,9,24.925,9z"/>
	<path fill-rule="evenodd" clip-rule="evenodd" fill="#FFC845" d="M39.925,9c2.72,0,4.925,2.239,4.925,5c0,2.762-2.205,5-4.925,5
		S35,16.762,35,14C35,11.239,37.205,9,39.925,9z"/>
	<path fill-rule="evenodd" clip-rule="evenodd" fill="#009491" d="M54.925,9c2.72,0,4.925,2.239,4.925,5c0,2.762-2.205,5-4.925,5
		S50,16.762,50,14C50,11.239,52.205,9,54.925,9z"/>
	<path fill="#3F4446" d="M33.139,61.916l-3-2.935h11.165c1.477,0,2.676-1.172,2.676-2.617s-1.199-2.617-2.676-2.617H30.139l3-2.936
		c1.045-1.022,1.045-2.68,0-3.701c-1.045-1.022-2.74-1.022-3.785,0l-7.57,7.403v-0.001C21.261,55.024,21,55.693,21,56.364
		c0,0.335,0.065,0.67,0.196,0.984c0.13,0.316,0.327,0.611,0.588,0.865l7.569,7.403c1.044,1.022,2.74,1.022,3.785,0
		C34.185,64.598,34.185,62.938,33.139,61.916z"/>
	<path fill="#3F4446" d="M69.843,65.617c1.045,1.022,2.74,1.022,3.785,0l7.569-7.403c0.261-0.254,0.458-0.549,0.588-0.865
		c0.131-0.314,0.196-0.649,0.196-0.984c0-0.671-0.261-1.34-0.784-1.852v0.001l-7.57-7.403c-1.044-1.022-2.74-1.022-3.785,0
		c-1.045,1.021-1.045,2.679,0,3.701l3,2.936H61.677C60.2,53.747,59,54.919,59,56.364s1.199,2.617,2.676,2.617h11.165l-3,2.935
		C68.795,62.938,68.795,64.598,69.843,65.617z"/>
	<path fill="#3F4446" d="M121.992,49.098c0.338,0.457,0.578,0.541,0.578,0.153v-0.702c0-1.008,0.792-1.824,1.768-1.824
		c0.977,0,1.769,0.816,1.769,1.824v6.252c0,1.007-0.792,1.823-1.769,1.823h-6.063c-0.977,0-1.769-0.816-1.769-1.823
		c0-1.008,0.792-1.824,1.769-1.824c0,0,0.292,0,0.654,0s0.463-0.426,0.157-0.906c-1.391-2.182-3.774-3.54-6.351-3.54
		c-4.188,0-7.596,3.514-7.596,7.833c0,4.318,3.408,7.832,7.596,7.832c1.116,0,2.021,0.934,2.021,2.084
		c0,1.151-0.905,2.084-2.021,2.084c-6.417,0.001-11.638-5.383-11.638-12s5.221-12,11.638-12
		C116.403,44.363,119.818,46.16,121.992,49.098z"/>
	<path fill="#3F4446" d="M160.31,68.363h6.746v-8.531l0.494,0.514c0.329,0.342,0.761,0.513,1.192,0.513
		c0.432,0,0.863-0.171,1.192-0.513c0.659-0.686,0.659-1.794,0-2.479l-12.997-13.504l-12.996,13.504
		c-0.659,0.685-0.659,1.793,0,2.479c0.659,0.684,1.726,0.684,2.384,0l0.494-0.514v8.531h6.745H160.31z"/>
	<g>
		<g>
			<path fill="#3F4446" d="M237.926,56.534c-0.103-0.264-0.24-0.485-0.414-0.666c-0.174-0.18-0.399-0.27-0.675-0.27
				c-0.18,0-0.381,0.039-0.603,0.117s-0.438,0.174-0.648,0.287c-0.21,0.115-0.408,0.238-0.594,0.369
				c-0.187,0.133-0.339,0.252-0.459,0.36v4.716c0.276,0.049,0.552,0.084,0.828,0.108c0.276,0.024,0.462,0.036,0.558,0.036
				c0.396,0,0.738-0.093,1.026-0.279c0.288-0.186,0.522-0.432,0.702-0.738c0.18-0.306,0.315-0.662,0.405-1.07
				c0.09-0.408,0.135-0.828,0.135-1.26c0-0.265-0.018-0.55-0.054-0.855C238.097,57.083,238.027,56.799,237.926,56.534z
				 M873.217,41.384h-669c-5.523,0-10,4.478-10,10v13c0,5.523,4.477,10,10,10h669c5.523,0,10-4.477,10-10v-13
				C883.217,45.861,878.74,41.384,873.217,41.384z M241.696,55.005h2.124v2.592h-2.124V55.005z M215.039,63.051l-0.018-4.716
				c0-0.396-0.009-0.76-0.027-1.09s-0.072-0.614-0.162-0.854c-0.09-0.24-0.223-0.426-0.396-0.558
				c-0.174-0.133-0.417-0.198-0.729-0.198c-0.408,0-0.786,0.075-1.134,0.225c-0.348,0.15-0.684,0.357-1.008,0.621l0.036,6.57h-1.962
				l-0.018-12.726h1.962l-0.018,4.5c0.108-0.121,0.252-0.237,0.432-0.352c0.18-0.114,0.384-0.216,0.612-0.307
				c0.228-0.09,0.468-0.162,0.72-0.215c0.252-0.055,0.504-0.082,0.756-0.082c0.587,0,1.071,0.1,1.449,0.297
				c0.378,0.198,0.675,0.486,0.891,0.864s0.363,0.847,0.441,1.404s0.117,1.197,0.117,1.917l0.018,4.698H215.039z M223.606,63.159
				c-0.168,0.023-0.354,0.047-0.558,0.071c-0.204,0.024-0.384,0.036-0.54,0.036c-0.96,0-1.647-0.258-2.061-0.773
				c-0.414-0.517-0.621-1.381-0.621-2.593v-4.122h-1.08v-1.71h1.08V51.44h1.962v2.628h2.376v1.71h-2.376v3.852
				c0,0.648,0.072,1.119,0.216,1.414c0.144,0.294,0.402,0.44,0.774,0.44c0.132,0,0.276,0,0.432,0c0.156,0,0.3-0.006,0.432-0.018
				c0.156-0.013,0.318-0.024,0.486-0.036l0.09,1.602C224.015,63.08,223.811,63.122,223.606,63.159z M229.997,63.159
				c-0.168,0.023-0.354,0.047-0.558,0.071s-0.384,0.036-0.54,0.036c-0.96,0-1.647-0.258-2.061-0.773
				c-0.414-0.517-0.621-1.381-0.621-2.593v-4.122h-1.08v-1.71h1.08V51.44h1.962v2.628h2.376v1.71h-2.376v3.852
				c0,0.648,0.072,1.119,0.216,1.414c0.144,0.294,0.402,0.44,0.774,0.44c0.132,0,0.276,0,0.432,0c0.156,0,0.3-0.006,0.432-0.018
				c0.156-0.013,0.318-0.024,0.486-0.036l0.09,1.602C230.404,63.08,230.201,63.122,229.997,63.159z M239.78,60.243
				c-0.138,0.575-0.36,1.088-0.666,1.538c-0.306,0.45-0.702,0.813-1.188,1.089c-0.486,0.276-1.077,0.414-1.773,0.414
				c-0.228,0-0.48-0.015-0.756-0.045c-0.276-0.029-0.564-0.074-0.864-0.135v3.816h-1.962V54.068h1.962l0.018,0.72
				c0.312-0.228,0.663-0.426,1.053-0.594c0.39-0.168,0.789-0.252,1.197-0.252c0.552,0,1.029,0.108,1.431,0.324
				s0.732,0.521,0.99,0.918c0.258,0.396,0.45,0.873,0.576,1.431c0.126,0.559,0.189,1.179,0.189,1.863
				C239.986,59.079,239.917,59.667,239.78,60.243z M241.714,63.051l-0.018-2.593h2.124l0.018,2.593H241.714z M247.744,63.374
				l-1.872-0.647l5.076-12.546l1.872,0.648L247.744,63.374z M257.284,63.374l-1.872-0.647l5.076-12.546l1.872,0.648L257.284,63.374z
				"/>
		</g>
	</g>
	<g>
		<g>
			<path fill-rule="evenodd" clip-rule="evenodd" fill="#3F4446" d="M919.833,65h-21.666C896.97,65,896,65.896,896,67
				s0.97,2,2.167,2h21.666c1.197,0,2.167-0.896,2.167-2S921.03,65,919.833,65z M919.833,55h-21.666C896.97,55,896,55.896,896,57
				s0.97,2,2.167,2h21.666c1.197,0,2.167-0.896,2.167-2S921.03,55,919.833,55z M898.167,49h21.666c1.197,0,2.167-0.896,2.167-2
				s-0.97-2-2.167-2h-21.666C896.97,45,896,45.896,896,47S896.97,49,898.167,49z"/>
		</g>
	</g>
	<path fill="#FFC845" d="M873.953,54.461c-0.276-0.852-1.794-1.047-3.4-1.257c-0.881-0.114-1.882-0.243-2.184-0.464
		c-0.305-0.219-0.729-1.121-1.104-1.919c-0.682-1.45-1.327-2.818-2.23-2.821l-0.018-0.002c-0.895,0.016-1.548,1.366-2.241,2.801
		c-0.382,0.793-0.817,1.692-1.12,1.91c-0.307,0.215-1.307,0.336-2.19,0.442c-1.605,0.192-3.125,0.374-3.409,1.222
		c-0.283,0.847,0.826,1.888,2.001,2.988c0.646,0.604,1.376,1.29,1.491,1.643c0.115,0.354-0.08,1.332-0.25,2.192
		c-0.312,1.567-0.605,3.052,0.122,3.583c0.174,0.122,0.393,0.185,0.651,0.18c0.743-0.012,1.812-0.583,2.845-1.137
		c0.774-0.418,1.652-0.889,2.043-0.894c0.378,0,1.259,0.484,2.036,0.912c1.056,0.579,2.149,1.179,2.894,1.167
		c0.231-0.004,0.43-0.062,0.592-0.178c0.732-0.521,0.453-2.004,0.159-3.578c-0.162-0.862-0.343-1.844-0.229-2.195
		c0.118-0.352,0.856-1.028,1.509-1.629C873.106,56.338,874.227,55.312,873.953,54.461z"/>
</g>
</svg>
