<?xml version="1.0" encoding="utf-8"?>
<!-- Generator: Adobe Illustrator 16.0.0, SVG Export Plug-In . SVG Version: 6.00 Build 0)  -->
<!DOCTYPE svg PUBLIC "-//W3C//DTD SVG 1.1//EN" "http://www.w3.org/Graphics/SVG/1.1/DTD/svg11.dtd">
<svg version="1.1" id="Layer_1" xmlns="http://www.w3.org/2000/svg" xmlns:xlink="http://www.w3.org/1999/xlink" x="0px" y="0px"
	 width="100px" height="100px" viewBox="0 0 100 100" enable-background="new 0 0 100 100" xml:space="preserve">
<g>
	<path fill="#C7CDD3" d="M50.476,23.731c-15.357,0-27.851,12.494-27.851,27.851c0,15.357,12.494,27.852,27.851,27.852
		s27.851-12.494,27.851-27.852C78.326,36.225,65.833,23.731,50.476,23.731z M50.476,74.943c-12.882,0-23.362-10.479-23.362-23.362
		c0-12.882,10.479-23.362,23.362-23.362c12.881,0,23.362,10.481,23.362,23.363S63.357,74.943,50.476,74.943z"/>
	<path fill="#C7CDD3" d="M59.354,42.701l-13,13.001l-4.757-4.757c-0.876-0.877-2.297-0.877-3.173,0
		c-0.877,0.875-0.877,2.297,0,3.173l6.344,6.344c0.438,0.438,1.013,0.658,1.587,0.658c0.574,0,1.148-0.22,1.586-0.658l14.586-14.587
		c0.877-0.877,0.877-2.297,0-3.174C61.65,41.825,60.23,41.825,59.354,42.701z"/>
</g>
</svg>
