<svg version="1.1" xmlns="http://www.w3.org/2000/svg" xmlns:xlink="http://www.w3.org/1999/xlink" x="0px" y="0px"
	 width="219.667px" height="219.667px" viewBox="0 0 219.667 219.667" enable-background="new 0 0 219.667 219.667"
	 xml:space="preserve">
<g id="Controller">
	<linearGradient id="SVGID_1_" gradientUnits="userSpaceOnUse" x1="59.2881" y1="35.2422" x2="136.7639" y2="134.4066">
		<stop  offset="0" style="stop-color:#5A8EA1"/>
		<stop  offset="1" style="stop-color:#5A8EA1;stop-opacity:0"/>
	</linearGradient>
	<path fill-rule="evenodd" clip-rule="evenodd" fill="url(#SVGID_1_)" d="M59.219,43.186l-45.21,10.018l67.743,150.803L218.567,99.1
		L115.811,17.708L59.219,43.186z"/>
</g>
<g id="Layer_3" display="none">
	<g display="inline">
		<g>
			<g>
				<path fill-rule="evenodd" clip-rule="evenodd" fill="#2C2F31" d="M60.109,15.405H14.38c-2.296,0-4.157,1.861-4.157,4.157v64.437
					c0,2.296,1.861,4.157,4.157,4.157h45.729c2.296,0,4.158-1.861,4.158-4.157V19.562C64.268,17.266,62.405,15.405,60.109,15.405z"
					/>
			</g>
			<g>
				<path fill-rule="evenodd" clip-rule="evenodd" fill="#AAAFB2" d="M60.299,18.037H17.01c-2.192,0-3.969,1.777-3.969,3.969v59.383
					c0,2.192,1.776,3.971,3.969,3.971h43.289c2.192,0,3.969-1.778,3.969-3.971V22.006C64.268,19.814,62.491,18.037,60.299,18.037z"
					/>
			</g>
			<g>
				<path fill-rule="evenodd" clip-rule="evenodd" fill="#FFFFFF" d="M60.431,18.037H18.516c-2.119,0-3.836,1.718-3.836,3.837
					v57.401c0,2.119,1.717,3.839,3.836,3.839h41.915c2.119,0,3.837-1.72,3.837-3.839V21.874
					C64.268,19.755,62.55,18.037,60.431,18.037z"/>
			</g>
			<g>
				<path fill-rule="evenodd" clip-rule="evenodd" fill="#2C2F31" d="M66.223,19.562v64.437c0,2.296,1.862,4.157,4.158,4.157h45.729
					c2.296,0,4.157-1.861,4.157-4.157V19.562c0-2.296-1.861-4.157-4.157-4.157H70.381C68.085,15.405,66.223,17.266,66.223,19.562z"
					/>
			</g>
			<g>
				<path fill-rule="evenodd" clip-rule="evenodd" fill="#AAAFB2" d="M66.223,22.006v59.383c0,2.192,1.776,3.971,3.969,3.971h43.289
					c2.192,0,3.969-1.778,3.969-3.971V22.006c0-2.192-1.776-3.969-3.969-3.969H70.191C67.999,18.037,66.223,19.814,66.223,22.006z"
					/>
			</g>
			<g>
				<path fill-rule="evenodd" clip-rule="evenodd" fill="#FFFFFF" d="M66.223,21.874v57.401c0,2.119,1.718,3.839,3.837,3.839h41.915
					c2.119,0,3.836-1.72,3.836-3.839V21.874c0-2.119-1.717-3.837-3.836-3.837H70.06C67.94,18.037,66.223,19.755,66.223,21.874z"/>
			</g>
		</g>
		<path fill-rule="evenodd" clip-rule="evenodd" fill="#AAAFB2" d="M61.377,22.514c0-0.437,0.353-0.79,0.789-0.79h6.281
			c0.437,0,0.789,0.353,0.789,0.79l0,0c0,0.436-0.353,0.79-0.789,0.79h-6.281C61.729,23.303,61.377,22.95,61.377,22.514
			L61.377,22.514z"/>
		<path fill-rule="evenodd" clip-rule="evenodd" fill="#AAAFB2" d="M61.377,28.75c0-0.437,0.353-0.79,0.789-0.79h6.281
			c0.437,0,0.789,0.353,0.789,0.79l0,0c0,0.437-0.353,0.79-0.789,0.79h-6.281C61.729,29.539,61.377,29.186,61.377,28.75
			L61.377,28.75z"/>
		<path fill-rule="evenodd" clip-rule="evenodd" fill="#AAAFB2" d="M61.377,34.985c0-0.437,0.353-0.79,0.789-0.79h6.281
			c0.437,0,0.789,0.353,0.789,0.79l0,0c0,0.437-0.353,0.79-0.789,0.79h-6.281C61.729,35.775,61.377,35.422,61.377,34.985
			L61.377,34.985z"/>
		<path fill-rule="evenodd" clip-rule="evenodd" fill="#AAAFB2" d="M61.377,41.221c0-0.437,0.353-0.79,0.789-0.79h6.281
			c0.437,0,0.789,0.353,0.789,0.79l0,0c0,0.437-0.353,0.79-0.789,0.79h-6.281C61.729,42.011,61.377,41.658,61.377,41.221
			L61.377,41.221z"/>
		<path fill-rule="evenodd" clip-rule="evenodd" fill="#AAAFB2" d="M61.377,47.457c0-0.437,0.353-0.79,0.789-0.79h6.281
			c0.437,0,0.789,0.353,0.789,0.79l0,0c0,0.437-0.353,0.79-0.789,0.79h-6.281C61.729,48.247,61.377,47.894,61.377,47.457
			L61.377,47.457z"/>
		<path fill-rule="evenodd" clip-rule="evenodd" fill="#AAAFB2" d="M61.377,53.693c0-0.437,0.353-0.79,0.789-0.79h6.281
			c0.437,0,0.789,0.353,0.789,0.79l0,0c0,0.437-0.353,0.79-0.789,0.79h-6.281C61.729,54.482,61.377,54.129,61.377,53.693
			L61.377,53.693z"/>
		<path fill-rule="evenodd" clip-rule="evenodd" fill="#AAAFB2" d="M61.377,59.929c0-0.437,0.353-0.79,0.789-0.79h6.281
			c0.437,0,0.789,0.353,0.789,0.79l0,0c0,0.437-0.353,0.79-0.789,0.79h-6.281C61.729,60.718,61.377,60.365,61.377,59.929
			L61.377,59.929z"/>
		<path fill-rule="evenodd" clip-rule="evenodd" fill="#AAAFB2" d="M61.377,66.164c0-0.436,0.353-0.789,0.789-0.789h6.281
			c0.437,0,0.789,0.354,0.789,0.789l0,0c0,0.438-0.353,0.79-0.789,0.79h-6.281C61.729,66.954,61.377,66.602,61.377,66.164
			L61.377,66.164z"/>
		<path fill-rule="evenodd" clip-rule="evenodd" fill="#AAAFB2" d="M61.377,72.4c0-0.437,0.353-0.789,0.789-0.789h6.281
			c0.437,0,0.789,0.353,0.789,0.789l0,0c0,0.437-0.353,0.79-0.789,0.79h-6.281C61.729,73.19,61.377,72.837,61.377,72.4L61.377,72.4z
			"/>
		<path fill-rule="evenodd" clip-rule="evenodd" fill="#AAAFB2" d="M61.377,78.637c0-0.437,0.353-0.79,0.789-0.79h6.281
			c0.437,0,0.789,0.354,0.789,0.79l0,0c0,0.437-0.353,0.789-0.789,0.789h-6.281C61.729,79.426,61.377,79.073,61.377,78.637
			L61.377,78.637z"/>
		<rect x="20.614" y="24.802" fill-rule="evenodd" clip-rule="evenodd" fill="#CBD1D3" width="35.817" height="1.46"/>
		<rect x="20.614" y="28.959" fill-rule="evenodd" clip-rule="evenodd" fill="#CBD1D3" width="35.817" height="1.46"/>
		<rect x="20.614" y="33.117" fill-rule="evenodd" clip-rule="evenodd" fill="#CBD1D3" width="35.817" height="1.46"/>
		<rect x="20.614" y="37.274" fill-rule="evenodd" clip-rule="evenodd" fill="#CBD1D3" width="19.188" height="1.46"/>
		<rect x="20.614" y="45.588" fill-rule="evenodd" clip-rule="evenodd" fill="#CBD1D3" width="35.817" height="1.46"/>
		<rect x="20.614" y="49.746" fill-rule="evenodd" clip-rule="evenodd" fill="#CBD1D3" width="35.817" height="1.46"/>
		<rect x="20.614" y="53.903" fill-rule="evenodd" clip-rule="evenodd" fill="#CBD1D3" width="35.817" height="1.46"/>
		<rect x="20.614" y="58.06" fill-rule="evenodd" clip-rule="evenodd" fill="#CBD1D3" width="35.817" height="1.46"/>
		<rect x="20.614" y="62.217" fill-rule="evenodd" clip-rule="evenodd" fill="#CBD1D3" width="35.817" height="1.46"/>
		<rect x="20.614" y="66.375" fill-rule="evenodd" clip-rule="evenodd" fill="#CBD1D3" width="35.817" height="1.46"/>
		<rect x="37.245" y="74.69" fill-rule="evenodd" clip-rule="evenodd" fill="#CBD1D3" width="3.557" height="1.459"/>
		<rect x="73.58" y="24.802" fill-rule="evenodd" clip-rule="evenodd" fill="#CBD1D3" width="35.817" height="1.46"/>
		<rect x="73.58" y="28.959" fill-rule="evenodd" clip-rule="evenodd" fill="#CBD1D3" width="35.817" height="1.46"/>
		<rect x="73.58" y="33.117" fill-rule="evenodd" clip-rule="evenodd" fill="#CBD1D3" width="35.817" height="1.46"/>
		<rect x="73.58" y="37.274" fill-rule="evenodd" clip-rule="evenodd" fill="#CBD1D3" width="35.817" height="1.46"/>
		<rect x="73.58" y="41.431" fill-rule="evenodd" clip-rule="evenodd" fill="#CBD1D3" width="35.817" height="1.46"/>
		<rect x="73.58" y="45.588" fill-rule="evenodd" clip-rule="evenodd" fill="#CBD1D3" width="35.817" height="1.46"/>
		<rect x="73.58" y="53.903" fill-rule="evenodd" clip-rule="evenodd" fill="#CBD1D3" width="35.817" height="1.46"/>
		<rect x="73.58" y="58.06" fill-rule="evenodd" clip-rule="evenodd" fill="#CBD1D3" width="35.817" height="1.46"/>
		<rect x="73.58" y="62.217" fill-rule="evenodd" clip-rule="evenodd" fill="#CBD1D3" width="35.817" height="1.46"/>
		<rect x="73.58" y="66.375" fill-rule="evenodd" clip-rule="evenodd" fill="#CBD1D3" width="26.503" height="1.46"/>
		<rect x="89.211" y="74.69" fill-rule="evenodd" clip-rule="evenodd" fill="#CBD1D3" width="3.557" height="1.459"/>
	</g>
</g>
<g id="Layer_4">
	<g>
		<path fill-rule="evenodd" clip-rule="evenodd" fill="#7D929A" d="M50.657,56.393l12.216,24.432l52.938-63.117L50.657,56.393z"/>
		<path fill-rule="evenodd" clip-rule="evenodd" fill="#F1F1F1" d="M51.774,60.904l10.862,22.804l1.489-2.134L52.693,59.065
			L51.774,60.904z"/>
		<path fill-rule="evenodd" clip-rule="evenodd" fill="#C1CFD4" d="M64.909,66.572l-2.272,17.136l10.482-13.877L64.909,66.572z"/>
		<path fill-rule="evenodd" clip-rule="evenodd" fill="#FFFFFF" d="M64.909,66.572l50.901-48.865l-7.83,65.153L73.119,69.831
			L64.909,66.572z"/>
		<path fill-rule="evenodd" clip-rule="evenodd" fill="#DBE8ED" d="M115.811,17.708L14.009,53.203l37.587,7.804L115.811,17.708z"/>
	</g>
</g>
</svg>
