<svg version="1.1" xmlns="http://www.w3.org/2000/svg" xmlns:xlink="http://www.w3.org/1999/xlink" x="0px" y="0px"
	 width="219.667px" height="219.667px" viewBox="0 0 219.667 219.667" enable-background="new 0 0 219.667 219.667"
	 xml:space="preserve">
<g id="Controller">
	<linearGradient id="SVGID_1_" gradientUnits="userSpaceOnUse" x1="58.2456" y1="33.9082" x2="136.6054" y2="134.2041">
		<stop  offset="0" style="stop-color:#D0A338"/>
		<stop  offset="1" style="stop-color:#D0A338;stop-opacity:0"/>
	</linearGradient>
	<path fill-rule="evenodd" clip-rule="evenodd" fill="url(#SVGID_1_)" d="M218.567,99.1l-99.812-82.835
		c0,0-30.382-0.888-46.235-0.859c-2.528,0.004-5.665,1-7.213,1c-2.2,0-3.93-1-5.197-1c-7.068,0.318-0.891,27.781-0.891,27.781
		L10.854,86.194l70.897,117.812L218.567,99.1z"/>
</g>
<g id="Layer_3">
	<g>
		<g>
			<g>
				<path fill-rule="evenodd" clip-rule="evenodd" fill="#2C2F31" d="M60.109,15.405H14.38c-2.296,0-4.157,1.861-4.157,4.157v64.437
					c0,2.296,1.861,4.157,4.157,4.157h45.729c2.296,0,4.158-1.861,4.158-4.157V19.562C64.268,17.266,62.405,15.405,60.109,15.405z"
					/>
			</g>
			<g>
				<path fill-rule="evenodd" clip-rule="evenodd" fill="#AAAFB2" d="M60.299,18.037H17.01c-2.192,0-3.969,1.777-3.969,3.969v59.383
					c0,2.192,1.776,3.971,3.969,3.971h43.289c2.192,0,3.969-1.778,3.969-3.971V22.006C64.268,19.814,62.491,18.037,60.299,18.037z"
					/>
			</g>
			<g>
				<path fill-rule="evenodd" clip-rule="evenodd" fill="#FFFFFF" d="M60.431,18.037H18.516c-2.119,0-3.836,1.718-3.836,3.837
					v57.401c0,2.119,1.717,3.839,3.836,3.839h41.915c2.119,0,3.837-1.72,3.837-3.839V21.874
					C64.268,19.755,62.55,18.037,60.431,18.037z"/>
			</g>
			<g>
				<path fill-rule="evenodd" clip-rule="evenodd" fill="#2C2F31" d="M66.223,19.562v64.437c0,2.296,1.862,4.157,4.158,4.157h45.729
					c2.296,0,4.157-1.861,4.157-4.157V19.562c0-2.296-1.861-4.157-4.157-4.157H70.381C68.085,15.405,66.223,17.266,66.223,19.562z"
					/>
			</g>
			<g>
				<path fill-rule="evenodd" clip-rule="evenodd" fill="#AAAFB2" d="M66.223,22.006v59.383c0,2.192,1.776,3.971,3.969,3.971h43.289
					c2.192,0,3.969-1.778,3.969-3.971V22.006c0-2.192-1.776-3.969-3.969-3.969H70.191C67.999,18.037,66.223,19.814,66.223,22.006z"
					/>
			</g>
			<g>
				<path fill-rule="evenodd" clip-rule="evenodd" fill="#FFFFFF" d="M66.223,21.874v57.401c0,2.119,1.718,3.839,3.837,3.839h41.915
					c2.119,0,3.836-1.72,3.836-3.839V21.874c0-2.119-1.717-3.837-3.836-3.837H70.06C67.94,18.037,66.223,19.755,66.223,21.874z"/>
			</g>
		</g>
		<path fill-rule="evenodd" clip-rule="evenodd" fill="#AAAFB2" d="M61.377,22.514c0-0.437,0.353-0.79,0.789-0.79h6.281
			c0.437,0,0.789,0.353,0.789,0.79l0,0c0,0.436-0.353,0.79-0.789,0.79h-6.281C61.729,23.303,61.377,22.95,61.377,22.514
			L61.377,22.514z"/>
		<path fill-rule="evenodd" clip-rule="evenodd" fill="#AAAFB2" d="M61.377,28.75c0-0.437,0.353-0.79,0.789-0.79h6.281
			c0.437,0,0.789,0.353,0.789,0.79l0,0c0,0.437-0.353,0.79-0.789,0.79h-6.281C61.729,29.539,61.377,29.186,61.377,28.75
			L61.377,28.75z"/>
		<path fill-rule="evenodd" clip-rule="evenodd" fill="#AAAFB2" d="M61.377,34.985c0-0.437,0.353-0.79,0.789-0.79h6.281
			c0.437,0,0.789,0.353,0.789,0.79l0,0c0,0.437-0.353,0.79-0.789,0.79h-6.281C61.729,35.775,61.377,35.422,61.377,34.985
			L61.377,34.985z"/>
		<path fill-rule="evenodd" clip-rule="evenodd" fill="#AAAFB2" d="M61.377,41.221c0-0.437,0.353-0.79,0.789-0.79h6.281
			c0.437,0,0.789,0.353,0.789,0.79l0,0c0,0.437-0.353,0.79-0.789,0.79h-6.281C61.729,42.011,61.377,41.658,61.377,41.221
			L61.377,41.221z"/>
		<path fill-rule="evenodd" clip-rule="evenodd" fill="#AAAFB2" d="M61.377,47.457c0-0.437,0.353-0.79,0.789-0.79h6.281
			c0.437,0,0.789,0.353,0.789,0.79l0,0c0,0.437-0.353,0.79-0.789,0.79h-6.281C61.729,48.247,61.377,47.894,61.377,47.457
			L61.377,47.457z"/>
		<path fill-rule="evenodd" clip-rule="evenodd" fill="#AAAFB2" d="M61.377,53.693c0-0.437,0.353-0.79,0.789-0.79h6.281
			c0.437,0,0.789,0.353,0.789,0.79l0,0c0,0.437-0.353,0.79-0.789,0.79h-6.281C61.729,54.482,61.377,54.129,61.377,53.693
			L61.377,53.693z"/>
		<path fill-rule="evenodd" clip-rule="evenodd" fill="#AAAFB2" d="M61.377,59.929c0-0.437,0.353-0.79,0.789-0.79h6.281
			c0.437,0,0.789,0.353,0.789,0.79l0,0c0,0.437-0.353,0.79-0.789,0.79h-6.281C61.729,60.718,61.377,60.365,61.377,59.929
			L61.377,59.929z"/>
		<path fill-rule="evenodd" clip-rule="evenodd" fill="#AAAFB2" d="M61.377,66.164c0-0.436,0.353-0.789,0.789-0.789h6.281
			c0.437,0,0.789,0.354,0.789,0.789l0,0c0,0.438-0.353,0.79-0.789,0.79h-6.281C61.729,66.954,61.377,66.602,61.377,66.164
			L61.377,66.164z"/>
		<path fill-rule="evenodd" clip-rule="evenodd" fill="#AAAFB2" d="M61.377,72.4c0-0.437,0.353-0.789,0.789-0.789h6.281
			c0.437,0,0.789,0.353,0.789,0.789l0,0c0,0.437-0.353,0.79-0.789,0.79h-6.281C61.729,73.19,61.377,72.837,61.377,72.4L61.377,72.4z
			"/>
		<path fill-rule="evenodd" clip-rule="evenodd" fill="#AAAFB2" d="M61.377,78.637c0-0.437,0.353-0.79,0.789-0.79h6.281
			c0.437,0,0.789,0.354,0.789,0.79l0,0c0,0.437-0.353,0.789-0.789,0.789h-6.281C61.729,79.426,61.377,79.073,61.377,78.637
			L61.377,78.637z"/>
		<rect x="20.614" y="24.802" fill-rule="evenodd" clip-rule="evenodd" fill="#CBD1D3" width="35.817" height="1.46"/>
		<rect x="20.614" y="28.959" fill-rule="evenodd" clip-rule="evenodd" fill="#CBD1D3" width="35.817" height="1.46"/>
		<rect x="20.614" y="33.117" fill-rule="evenodd" clip-rule="evenodd" fill="#CBD1D3" width="35.817" height="1.46"/>
		<rect x="20.614" y="37.274" fill-rule="evenodd" clip-rule="evenodd" fill="#CBD1D3" width="19.188" height="1.46"/>
		<rect x="20.614" y="45.588" fill-rule="evenodd" clip-rule="evenodd" fill="#CBD1D3" width="35.817" height="1.46"/>
		<rect x="20.614" y="49.746" fill-rule="evenodd" clip-rule="evenodd" fill="#CBD1D3" width="35.817" height="1.46"/>
		<rect x="20.614" y="53.903" fill-rule="evenodd" clip-rule="evenodd" fill="#CBD1D3" width="35.817" height="1.46"/>
		<rect x="20.614" y="58.06" fill-rule="evenodd" clip-rule="evenodd" fill="#CBD1D3" width="35.817" height="1.46"/>
		<rect x="20.614" y="62.217" fill-rule="evenodd" clip-rule="evenodd" fill="#CBD1D3" width="35.817" height="1.46"/>
		<rect x="20.614" y="66.375" fill-rule="evenodd" clip-rule="evenodd" fill="#CBD1D3" width="35.817" height="1.46"/>
		<rect x="37.245" y="74.69" fill-rule="evenodd" clip-rule="evenodd" fill="#CBD1D3" width="3.557" height="1.459"/>
		<rect x="73.58" y="24.802" fill-rule="evenodd" clip-rule="evenodd" fill="#CBD1D3" width="35.817" height="1.46"/>
		<rect x="73.58" y="28.959" fill-rule="evenodd" clip-rule="evenodd" fill="#CBD1D3" width="35.817" height="1.46"/>
		<rect x="73.58" y="33.117" fill-rule="evenodd" clip-rule="evenodd" fill="#CBD1D3" width="35.817" height="1.46"/>
		<rect x="73.58" y="37.274" fill-rule="evenodd" clip-rule="evenodd" fill="#CBD1D3" width="35.817" height="1.46"/>
		<rect x="73.58" y="41.431" fill-rule="evenodd" clip-rule="evenodd" fill="#CBD1D3" width="35.817" height="1.46"/>
		<rect x="73.58" y="45.588" fill-rule="evenodd" clip-rule="evenodd" fill="#CBD1D3" width="35.817" height="1.46"/>
		<rect x="73.58" y="53.903" fill-rule="evenodd" clip-rule="evenodd" fill="#CBD1D3" width="35.817" height="1.46"/>
		<rect x="73.58" y="58.06" fill-rule="evenodd" clip-rule="evenodd" fill="#CBD1D3" width="35.817" height="1.46"/>
		<rect x="73.58" y="62.217" fill-rule="evenodd" clip-rule="evenodd" fill="#CBD1D3" width="35.817" height="1.46"/>
		<rect x="73.58" y="66.375" fill-rule="evenodd" clip-rule="evenodd" fill="#CBD1D3" width="26.503" height="1.46"/>
		<rect x="89.211" y="74.69" fill-rule="evenodd" clip-rule="evenodd" fill="#CBD1D3" width="3.557" height="1.459"/>
	</g>
</g>
</svg>
