<svg version="1.1" xmlns="http://www.w3.org/2000/svg" xmlns:xlink="http://www.w3.org/1999/xlink" x="0px" y="0px"
	 width="219.667px" height="219.667px" viewBox="0 0 219.667 219.667" enable-background="new 0 0 219.667 219.667"
	 xml:space="preserve">
<g id="Controller">
	<linearGradient id="SVGID_1_" gradientUnits="userSpaceOnUse" x1="67.8594" y1="46.2129" x2="138.0658" y2="136.073">
		<stop  offset="0" style="stop-color:#006A68"/>
		<stop  offset="1" style="stop-color:#006A68;stop-opacity:0"/>
	</linearGradient>
	<path fill-rule="evenodd" clip-rule="evenodd" fill="url(#SVGID_1_)" d="M218.567,99.1L112.281,20.724
		c0,0-11.755,0.845-12.083,6.104c-0.327,5.261-17.552,0.341-26.077,0.251c-7.068,0.318-14.902,16.107-14.902,16.107L14.736,82.464
		l67.016,121.542L218.567,99.1z"/>
	<linearGradient id="SVGID_2_" gradientUnits="userSpaceOnUse" x1="66.127" y1="6.1733" x2="84.1802" y2="29.2804">
		<stop  offset="0" style="stop-color:#006A68"/>
		<stop  offset="1" style="stop-color:#006A68;stop-opacity:0"/>
	</linearGradient>
	<polygon fill-rule="evenodd" clip-rule="evenodd" fill="url(#SVGID_2_)" points="54.332,11.331 52.999,22.864 103.665,20.724 
		76.643,8.405 	"/>
</g>
<g id="Bag">
	<g>
		<path fill-rule="evenodd" clip-rule="evenodd" fill="#1A1A1C" d="M79.957,12.744c0-2.484-2.015-4.499-4.497-4.499H55.219
			c-2.484,0-4.499,2.014-4.499,4.499v20.241c0,2.484,2.014,4.499,4.499,4.499H75.46c2.482,0,4.497-2.014,4.497-4.499V12.744z
			 M73.078,30.737H57.599c-1.314,0-2.38-1.648-2.38-2.982l2.249-10.622c0-1.336,1.067-2.14,2.381-2.14H70.83
			c1.312,0,2.381,0.522,2.381,1.858l2.249,11.184C75.46,29.37,74.393,30.737,73.078,30.737z"/>
		<path fill-rule="evenodd" clip-rule="evenodd" fill="#111112" d="M21.483,23.99h87.711c2.485,0,4.498,1.451,4.498,3.936
			l-4.498,58.755c0,2.485-2.014,4.778-4.498,4.778H25.981c-2.484,0-4.498-2.575-4.498-5.061l-4.498-58.193
			C16.985,25.722,18.999,23.99,21.483,23.99z"/>
		<path fill-rule="evenodd" clip-rule="evenodd" fill="#1A1A1C" d="M21.483,19.491h87.711c2.485,0,4.498,2.014,4.498,4.499
			l2.25,58.474c0,2.484-2.015,4.497-4.498,4.497h-92.21c-2.484,0-4.498-2.013-4.498-4.497l2.249-58.474
			C16.985,21.505,18.999,19.491,21.483,19.491z"/>
		<path fill-rule="evenodd" clip-rule="evenodd" fill="#2C2F31" d="M102.448,68.97H28.23c-2.484,0-4.498-2.014-4.498-4.498
			L16.985,23.99c0-2.484,2.014-4.499,4.498-4.499h87.711c2.485,0,4.498,2.014,4.498,4.499l-6.747,40.482
			C106.945,66.956,104.932,68.97,102.448,68.97z"/>
		<g>
			<path fill-rule="evenodd" clip-rule="evenodd" fill="#736357" d="M41.607,18.969V72.16c0,2.443-2.848,4.423-5.623,4.423
				c-2.778,0-5.623-1.979-5.623-4.423V18.969H41.607z"/>
			<g>
				<circle fill-rule="evenodd" clip-rule="evenodd" cx="35.986" cy="69.713" r="0.703"/>
				<circle fill-rule="evenodd" clip-rule="evenodd" cx="35.986" cy="65.214" r="0.703"/>
				<circle fill-rule="evenodd" clip-rule="evenodd" cx="35.986" cy="60.716" r="0.703"/>
				<circle fill-rule="evenodd" clip-rule="evenodd" cx="35.986" cy="56.218" r="0.703"/>
				<circle fill-rule="evenodd" clip-rule="evenodd" cx="35.986" cy="51.72" r="0.703"/>
				<circle fill-rule="evenodd" clip-rule="evenodd" cx="35.986" cy="47.222" r="0.703"/>
				<circle fill-rule="evenodd" clip-rule="evenodd" cx="35.986" cy="42.724" r="0.703"/>
			</g>
			<path fill-rule="evenodd" clip-rule="evenodd" fill="#C7B299" d="M42.732,57.202c0,0.489-0.398,0.888-0.89,0.888H30.128
				c-0.493,0-0.89-0.398-0.89-0.888V55.84c0-0.49,0.397-0.887,0.89-0.887h11.715c0.492,0,0.89,0.397,0.89,0.887V57.202z"/>
		</g>
		<g>
			<path fill-rule="evenodd" clip-rule="evenodd" fill="#736357" d="M100.198,18.969V72.16c0,2.443-2.848,4.423-5.622,4.423
				c-2.779,0-5.622-1.979-5.622-4.423V18.969H100.198z"/>
			<g>
				<circle fill-rule="evenodd" clip-rule="evenodd" cx="94.576" cy="69.713" r="0.703"/>
				<circle fill-rule="evenodd" clip-rule="evenodd" cx="94.576" cy="65.214" r="0.703"/>
				<circle fill-rule="evenodd" clip-rule="evenodd" cx="94.576" cy="60.716" r="0.703"/>
				<circle fill-rule="evenodd" clip-rule="evenodd" cx="94.576" cy="56.218" r="0.703"/>
				<circle fill-rule="evenodd" clip-rule="evenodd" cx="94.576" cy="51.72" r="0.703"/>
				<circle fill-rule="evenodd" clip-rule="evenodd" cx="94.576" cy="47.222" r="0.703"/>
				<circle fill-rule="evenodd" clip-rule="evenodd" cx="94.576" cy="42.724" r="0.703"/>
			</g>
			<path fill-rule="evenodd" clip-rule="evenodd" fill="#C7B299" d="M101.323,57.202c0,0.489-0.398,0.888-0.889,0.888H88.719
				c-0.492,0-0.891-0.398-0.891-0.888V55.84c0-0.49,0.398-0.887,0.891-0.887h11.716c0.49,0,0.889,0.397,0.889,0.887V57.202z"/>
		</g>
	</g>
</g>
</svg>
