<?xml version="1.0" encoding="utf-8"?>
<!-- Generator: Adobe Illustrator 16.0.0, SVG Export Plug-In . SVG Version: 6.00 Build 0)  -->
<!DOCTYPE svg PUBLIC "-//W3C//DTD SVG 1.1//EN" "http://www.w3.org/Graphics/SVG/1.1/DTD/svg11.dtd">
<svg version="1.1" id="Layer_1" xmlns="http://www.w3.org/2000/svg" xmlns:xlink="http://www.w3.org/1999/xlink" x="0px" y="0px"
	 width="14.436px" height="14.436px" viewBox="0 0 14.436 14.436" enable-background="new 0 0 14.436 14.436" xml:space="preserve">
<path fill-rule="evenodd" clip-rule="evenodd" fill="#B7BDC2" d="M10.46,7.218l3.683,3.682c0.391,0.391,0.391,1.024,0,1.414
	l-1.829,1.829c-0.391,0.391-1.023,0.391-1.414,0L7.218,10.46l-3.682,3.683c-0.39,0.391-1.023,0.391-1.414,0l-1.829-1.829
	c-0.39-0.39-0.39-1.023,0-1.414l3.682-3.682L0.293,3.536c-0.39-0.391-0.39-1.024,0-1.415l1.829-1.829c0.391-0.39,1.024-0.39,1.414,0
	l3.682,3.682l3.682-3.682c0.391-0.39,1.023-0.39,1.414,0l1.829,1.829c0.391,0.391,0.391,1.024,0,1.415L10.46,7.218z"/>
</svg>
