<?xml version="1.0" encoding="utf-8"?>
<!-- Generator: Adobe Illustrator 16.0.0, SVG Export Plug-In . SVG Version: 6.00 Build 0)  -->
<!DOCTYPE svg PUBLIC "-//W3C//DTD SVG 1.1//EN" "http://www.w3.org/Graphics/SVG/1.1/DTD/svg11.dtd">
<svg version="1.1" id="Layer_1" xmlns="http://www.w3.org/2000/svg" xmlns:xlink="http://www.w3.org/1999/xlink" x="0px" y="0px"
	 width="202.132px" height="219.654px" viewBox="8.768 0.007 202.132 219.654" enable-background="new 8.768 0.007 202.132 219.654"
	 xml:space="preserve">
<path fill="#009491" d="M210.9,144.814c0,12.844-9.65,28.589-20.738,34.988l-61.039,35.062c-11.088,6.396-29.376,6.396-40.464,0
	L28.42,179.802c-11.087-6.399-19.652-22.145-19.652-34.988V74.853c0-12.843,8.49-28.587,19.581-34.986L88.804,4.806
	c11.087-6.399,29.087-6.399,40.175,0l61.256,35.061C201.324,46.266,210.9,62.01,210.9,74.853V144.814z"/>
<g>
	
		<linearGradient id="SVGID_1_" gradientUnits="userSpaceOnUse" x1="593.0483" y1="680.2856" x2="663.2548" y2="770.1459" gradientTransform="matrix(1 0 0 1 -484 -571.333)">
		<stop  offset="0" style="stop-color:#006A68"/>
		<stop  offset="1" style="stop-color:#006A68;stop-opacity:0"/>
	</linearGradient>
	<path fill="url(#SVGID_1_)" d="M129.123,214.871l61.039-35.062c11.088-6.398,20.738-22.145,20.738-34.988v-24.678l-53.695-39.596
		c0,0-11.754,0.845-12.082,6.104c-0.328,5.261-17.553,0.341-26.078,0.251c-7.066,0.318-14.901,16.107-14.901,16.107L59.66,142.287
		l42.397,76.893C111.466,220.494,121.843,219.069,129.123,214.871z"/>
	
		<linearGradient id="SVGID_2_" gradientUnits="userSpaceOnUse" x1="595.0513" y1="637.3276" x2="613.1055" y2="660.4359" gradientTransform="matrix(1 0 0 1 -484 -571.333)">
		<stop  offset="0" style="stop-color:#006A68"/>
		<stop  offset="1" style="stop-color:#006A68;stop-opacity:0"/>
	</linearGradient>
	<polygon fill="url(#SVGID_2_)" points="121.567,68.227 99.256,71.153 97.923,82.687 148.589,80.546 	"/>
</g>
<g id="Bag">
	<g>
		<path fill="#1A1A1C" d="M124.453,72.726c0-2.484-2.016-4.499-4.498-4.499H99.713c-2.483,0-4.498,2.014-4.498,4.499v20.24
			c0,2.484,2.014,4.499,4.498,4.499h20.242c2.481,0,4.496-2.014,4.496-4.499v-20.24H124.453z M117.574,90.718h-15.48
			c-1.314,0-2.381-1.647-2.381-2.981l2.249-10.622c0-1.336,1.067-2.14,2.382-2.14h10.98c1.312,0,2.381,0.521,2.381,1.857
			l2.25,11.185C119.955,89.352,118.888,90.718,117.574,90.718z"/>
		<path fill="#111112" d="M65.978,83.972h87.711c2.484,0,4.498,1.45,4.498,3.936l-4.498,58.755c0,2.484-2.014,4.777-4.498,4.777
			H70.476c-2.484,0-4.498-2.574-4.498-5.062L61.48,88.187C61.48,85.704,63.494,83.972,65.978,83.972z"/>
		<path fill="#1A1A1C" d="M65.978,79.473h87.711c2.484,0,4.498,2.014,4.498,4.499l2.25,58.474c0,2.484-2.016,4.497-4.498,4.497
			h-92.21c-2.484,0-4.498-2.013-4.498-4.497l2.249-58.474C61.48,81.487,63.494,79.473,65.978,79.473z"/>
		<path fill="#2C2F31" d="M146.943,128.953H72.725c-2.484,0-4.498-2.015-4.498-4.498L61.48,83.972c0-2.484,2.014-4.499,4.498-4.499
			h87.711c2.484,0,4.498,2.014,4.498,4.499l-6.747,40.48C151.44,126.938,149.427,128.953,146.943,128.953z"/>
		<g>
			<path fill="#736357" d="M86.102,78.951v53.191c0,2.441-2.849,4.423-5.623,4.423c-2.778,0-5.623-1.979-5.623-4.423V78.951H86.102z
				"/>
			<g>
				<circle cx="80.481" cy="129.695" r="0.703"/>
				<circle cx="80.481" cy="125.196" r="0.703"/>
				<circle cx="80.481" cy="120.698" r="0.703"/>
				<circle cx="80.481" cy="116.2" r="0.703"/>
				<circle cx="80.481" cy="111.702" r="0.703"/>
				<circle cx="80.481" cy="107.204" r="0.703"/>
				<circle cx="80.481" cy="102.706" r="0.703"/>
			</g>
			<path fill="#C7B299" d="M87.227,117.184c0,0.487-0.398,0.888-0.891,0.888H74.623c-0.493,0-0.89-0.398-0.89-0.888v-1.362
				c0-0.49,0.396-0.887,0.89-0.887h11.715c0.492,0,0.891,0.396,0.891,0.887L87.227,117.184L87.227,117.184z"/>
		</g>
		<g>
			<path fill="#736357" d="M144.693,78.951v53.191c0,2.441-2.848,4.423-5.622,4.423c-2.778,0-5.622-1.979-5.622-4.423V78.951
				H144.693z"/>
			<g>
				<circle cx="139.071" cy="129.695" r="0.703"/>
				<circle cx="139.071" cy="125.196" r="0.703"/>
				<circle cx="139.071" cy="120.698" r="0.703"/>
				<circle cx="139.071" cy="116.2" r="0.703"/>
				<circle cx="139.071" cy="111.702" r="0.703"/>
				<circle cx="139.071" cy="107.204" r="0.703"/>
				<circle cx="139.071" cy="102.706" r="0.703"/>
			</g>
			<path fill="#C7B299" d="M145.818,117.184c0,0.487-0.398,0.888-0.889,0.888h-11.717c-0.49,0-0.891-0.398-0.891-0.888v-1.362
				c0-0.49,0.398-0.887,0.891-0.887h11.718c0.489,0,0.889,0.396,0.889,0.887L145.818,117.184L145.818,117.184z"/>
		</g>
	</g>
</g>
</svg>
