<?xml version="1.0" encoding="utf-8"?>
<!-- Generator: Adobe Illustrator 16.0.0, SVG Export Plug-In . SVG Version: 6.00 Build 0)  -->
<!DOCTYPE svg PUBLIC "-//W3C//DTD SVG 1.1//EN" "http://www.w3.org/Graphics/SVG/1.1/DTD/svg11.dtd">
<svg version="1.1" id="Layer_1" xmlns="http://www.w3.org/2000/svg" xmlns:xlink="http://www.w3.org/1999/xlink" x="0px" y="0px"
	 width="202.132px" height="219.654px" viewBox="8.768 0.007 202.132 219.654" enable-background="new 8.768 0.007 202.132 219.654"
	 xml:space="preserve">
<path fill="#FFC845" d="M210.9,144.814c0,12.844-9.65,28.589-20.738,34.988l-61.039,35.062c-11.088,6.396-29.376,6.396-40.464,0
	L28.42,179.802c-11.087-6.399-19.652-22.145-19.652-34.988V74.853c0-12.843,8.49-28.587,19.581-34.986L88.804,4.806
	c11.087-6.399,29.087-6.399,40.175,0l61.256,35.061C201.324,46.266,210.9,62.01,210.9,74.853V144.814z"/>
<g>
	
		<linearGradient id="SVGID_1_" gradientUnits="userSpaceOnUse" x1="584.0649" y1="668.7876" x2="663.9297" y2="771.01" gradientTransform="matrix(1 0 0 1 -484 -571.333)">
		<stop  offset="0" style="stop-color:#D0A338"/>
		<stop  offset="1" style="stop-color:#D0A338;stop-opacity:0"/>
	</linearGradient>
	<path fill="url(#SVGID_1_)" d="M55.999,144.958l46.058,74.221c9.409,1.314,19.786-0.11,27.065-4.309l61.039-35.062
		c11.088-6.398,20.738-22.145,20.738-34.988v-24.678l-47.423-45.613c0,0-58.261-3.698-58.589,1.561L55.999,144.958z"/>
</g>
<g id="Layer_3">
	<g>
		<g>
			<g>
				<path fill="#2C2F31" d="M104.698,73.458H58.969c-2.296,0-4.157,1.861-4.157,4.157v64.437c0,2.297,1.861,4.158,4.157,4.158
					h45.729c2.296,0,4.158-1.861,4.158-4.158V77.615C108.857,75.319,106.994,73.458,104.698,73.458z"/>
			</g>
			<g>
				<path fill="#AAAFB2" d="M104.888,76.09h-43.29c-2.192,0-3.969,1.776-3.969,3.969v59.383c0,2.191,1.776,3.971,3.969,3.971h43.29
					c2.191,0,3.969-1.777,3.969-3.971V80.059C108.857,77.867,107.08,76.09,104.888,76.09z"/>
			</g>
			<g>
				<path fill="#FFFFFF" d="M105.02,76.09H63.105c-2.119,0-3.836,1.717-3.836,3.836v57.401c0,2.119,1.717,3.839,3.836,3.839h41.915
					c2.118,0,3.837-1.72,3.837-3.839V79.926C108.857,77.807,107.138,76.09,105.02,76.09z"/>
			</g>
			<g>
				<path fill="#2C2F31" d="M110.812,77.615v64.437c0,2.297,1.861,4.158,4.158,4.158h45.729c2.295,0,4.156-1.861,4.156-4.158V77.615
					c0-2.296-1.861-4.157-4.156-4.157H114.97C112.673,73.458,110.812,75.319,110.812,77.615z"/>
			</g>
			<g>
				<path fill="#AAAFB2" d="M110.812,80.059v59.383c0,2.191,1.775,3.971,3.969,3.971h43.289c2.191,0,3.969-1.777,3.969-3.971V80.059
					c0-2.192-1.777-3.969-3.969-3.969h-43.291C112.587,76.09,110.812,77.867,110.812,80.059z"/>
			</g>
			<g>
				<path fill="#FFFFFF" d="M110.812,79.926v57.401c0,2.119,1.718,3.839,3.836,3.839h41.916c2.119,0,3.836-1.72,3.836-3.839V79.926
					c0-2.119-1.719-3.836-3.836-3.836h-41.916C112.529,76.09,110.812,77.807,110.812,79.926z"/>
			</g>
		</g>
		<path fill="#AAAFB2" d="M105.966,80.567c0-0.438,0.353-0.79,0.789-0.79h6.28c0.437,0,0.789,0.353,0.789,0.79l0,0
			c0,0.436-0.353,0.79-0.789,0.79h-6.28C106.318,81.356,105.966,81.002,105.966,80.567L105.966,80.567z"/>
		<path fill="#AAAFB2" d="M105.966,86.803c0-0.438,0.353-0.791,0.789-0.791h6.28c0.437,0,0.789,0.354,0.789,0.791l0,0
			c0,0.437-0.353,0.789-0.789,0.789h-6.28C106.318,87.592,105.966,87.239,105.966,86.803L105.966,86.803z"/>
		<path fill="#AAAFB2" d="M105.966,93.038c0-0.438,0.353-0.79,0.789-0.79h6.28c0.437,0,0.789,0.353,0.789,0.79l0,0
			c0,0.438-0.353,0.79-0.789,0.79h-6.28C106.318,93.828,105.966,93.475,105.966,93.038L105.966,93.038z"/>
		<path fill="#AAAFB2" d="M105.966,99.274c0-0.438,0.353-0.79,0.789-0.79h6.28c0.437,0,0.789,0.353,0.789,0.79l0,0
			c0,0.438-0.353,0.789-0.789,0.789h-6.28C106.318,100.063,105.966,99.711,105.966,99.274L105.966,99.274z"/>
		<path fill="#AAAFB2" d="M105.966,105.51c0-0.438,0.353-0.791,0.789-0.791h6.28c0.437,0,0.789,0.354,0.789,0.791l0,0
			c0,0.437-0.353,0.789-0.789,0.789h-6.28C106.318,106.299,105.966,105.947,105.966,105.51L105.966,105.51z"/>
		<path fill="#AAAFB2" d="M105.966,111.746c0-0.437,0.353-0.79,0.789-0.79h6.28c0.437,0,0.789,0.354,0.789,0.79l0,0
			c0,0.437-0.353,0.79-0.789,0.79h-6.28C106.318,112.535,105.966,112.182,105.966,111.746L105.966,111.746z"/>
		<path fill="#AAAFB2" d="M105.966,117.982c0-0.437,0.353-0.79,0.789-0.79h6.28c0.437,0,0.789,0.354,0.789,0.79l0,0
			c0,0.437-0.353,0.79-0.789,0.79h-6.28C106.318,118.77,105.966,118.418,105.966,117.982L105.966,117.982z"/>
		<path fill="#AAAFB2" d="M105.966,124.217c0-0.437,0.353-0.789,0.789-0.789h6.28c0.437,0,0.789,0.354,0.789,0.789l0,0
			c0,0.438-0.353,0.789-0.789,0.789h-6.28C106.318,125.006,105.966,124.655,105.966,124.217L105.966,124.217z"/>
		<path fill="#AAAFB2" d="M105.966,130.453c0-0.437,0.353-0.789,0.789-0.789h6.28c0.437,0,0.789,0.353,0.789,0.789l0,0
			c0,0.437-0.353,0.79-0.789,0.79h-6.28C106.318,131.243,105.966,130.889,105.966,130.453L105.966,130.453z"/>
		<path fill="#AAAFB2" d="M105.966,136.69c0-0.438,0.353-0.79,0.789-0.79h6.28c0.437,0,0.789,0.354,0.789,0.79l0,0
			c0,0.438-0.353,0.789-0.789,0.789h-6.28C106.318,137.479,105.966,137.125,105.966,136.69L105.966,136.69z"/>
		<rect x="65.203" y="82.854" fill="#CBD1D3" width="35.817" height="1.461"/>
		<rect x="65.203" y="87.012" fill="#CBD1D3" width="35.817" height="1.459"/>
		<rect x="65.203" y="91.17" fill="#CBD1D3" width="35.817" height="1.459"/>
		<rect x="65.203" y="95.327" fill="#CBD1D3" width="19.188" height="1.46"/>
		<rect x="65.203" y="103.641" fill="#CBD1D3" width="35.817" height="1.459"/>
		<rect x="65.203" y="107.799" fill="#CBD1D3" width="35.817" height="1.459"/>
		<rect x="65.203" y="111.956" fill="#CBD1D3" width="35.817" height="1.46"/>
		<rect x="65.203" y="116.113" fill="#CBD1D3" width="35.817" height="1.46"/>
		<rect x="65.203" y="120.27" fill="#CBD1D3" width="35.817" height="1.459"/>
		<rect x="65.203" y="124.428" fill="#CBD1D3" width="35.817" height="1.459"/>
		<rect x="81.834" y="132.743" fill="#CBD1D3" width="3.557" height="1.459"/>
		<rect x="118.169" y="82.854" fill="#CBD1D3" width="35.816" height="1.461"/>
		<rect x="118.169" y="87.012" fill="#CBD1D3" width="35.816" height="1.459"/>
		<rect x="118.169" y="91.17" fill="#CBD1D3" width="35.816" height="1.459"/>
		<rect x="118.169" y="95.327" fill="#CBD1D3" width="35.816" height="1.46"/>
		<rect x="118.169" y="99.484" fill="#CBD1D3" width="35.816" height="1.46"/>
		<rect x="118.169" y="103.641" fill="#CBD1D3" width="35.816" height="1.459"/>
		<rect x="118.169" y="111.956" fill="#CBD1D3" width="35.816" height="1.46"/>
		<rect x="118.169" y="116.113" fill="#CBD1D3" width="35.816" height="1.46"/>
		<rect x="118.169" y="120.27" fill="#CBD1D3" width="35.816" height="1.459"/>
		<rect x="118.169" y="124.428" fill="#CBD1D3" width="26.502" height="1.459"/>
		<rect x="133.8" y="132.743" fill="#CBD1D3" width="3.557" height="1.459"/>
	</g>
</g>
</svg>
