<?xml version="1.0" encoding="utf-8"?>
<!-- Generator: Adobe Illustrator 16.0.0, SVG Export Plug-In . SVG Version: 6.00 Build 0)  -->
<!DOCTYPE svg PUBLIC "-//W3C//DTD SVG 1.1//EN" "http://www.w3.org/Graphics/SVG/1.1/DTD/svg11.dtd">
<svg version="1.1" id="Layer_1" xmlns="http://www.w3.org/2000/svg" xmlns:xlink="http://www.w3.org/1999/xlink" x="0px" y="0px"
	 width="202.132px" height="219.655px" viewBox="8.768 0.006 202.132 219.655" enable-background="new 8.768 0.006 202.132 219.655"
	 xml:space="preserve">
<path fill="#70B1C9" d="M210.9,144.814c0,12.844-9.651,28.589-20.739,34.988l-61.039,35.062c-11.087,6.396-29.376,6.396-40.464,0
	l-60.238-35.062c-11.087-6.399-19.652-22.145-19.652-34.988V74.853c0-12.843,8.49-28.587,19.581-34.986L88.804,4.806
	c11.087-6.399,29.087-6.399,40.175,0l61.256,35.061C201.323,46.266,210.9,62.01,210.9,74.853V144.814z"/>
<g>
	
		<linearGradient id="SVGID_1_" gradientUnits="userSpaceOnUse" x1="338.9722" y1="-204.8276" x2="422.1629" y2="-311.3069" gradientTransform="matrix(1 0 0 -1 -242 -111.333)">
		<stop  offset="0" style="stop-color:#5A8EA1"/>
		<stop  offset="1" style="stop-color:#5A8EA1;stop-opacity:0"/>
	</linearGradient>
	<path fill="url(#SVGID_1_)" d="M150.735,76.834l60.165,43.308v24.678c0,12.844-9.651,28.589-20.739,34.988l-61.039,35.062
		c-7.278,4.199-17.654,5.623-27.065,4.309l-53.124-106.85L150.735,76.834z"/>
</g>
<g id="Layer_4">
	<g>
		<path fill="#7D929A" d="M85.581,115.519l12.216,24.433l52.938-63.118L85.581,115.519z"/>
		<path fill="#F1F1F1" d="M86.698,120.03l10.862,22.805l1.489-2.135l-11.432-22.509L86.698,120.03z"/>
		<path fill="#C1CFD4" d="M99.833,125.698l-2.272,17.137l10.481-13.877L99.833,125.698z"/>
		<path fill="#FFFFFF" d="M99.833,125.698l50.901-48.865l-7.83,65.153l-34.861-13.028L99.833,125.698z"/>
		<path fill="#DBE8ED" d="M150.735,76.834L48.933,112.329l37.587,7.805L150.735,76.834z"/>
	</g>
</g>
</svg>
