<?xml version="1.0" encoding="utf-8"?>
<!-- Generator: Adobe Illustrator 16.0.0, SVG Export Plug-In . SVG Version: 6.00 Build 0)  -->
<!DOCTYPE svg PUBLIC "-//W3C//DTD SVG 1.1//EN" "http://www.w3.org/Graphics/SVG/1.1/DTD/svg11.dtd">
<svg version="1.1" id="Layer_1" xmlns="http://www.w3.org/2000/svg" xmlns:xlink="http://www.w3.org/1999/xlink" x="0px" y="0px"
	 width="202.132px" height="219.654px" viewBox="8.768 0.007 202.132 219.654" enable-background="new 8.768 0.007 202.132 219.654"
	 xml:space="preserve">
<path fill="#FF8772" d="M210.9,144.814c0,12.844-9.65,28.589-20.738,34.988l-61.039,35.062c-11.088,6.396-29.376,6.396-40.464,0
	L28.42,179.802c-11.087-6.399-19.652-22.145-19.652-34.988V74.853c0-12.843,8.49-28.587,19.581-34.986L88.804,4.806
	c11.087-6.399,29.087-6.399,40.175,0l61.256,35.061C201.324,46.266,210.9,62.01,210.9,74.853V144.814z"/>
<g>
	
		<linearGradient id="SVGID_1_" gradientUnits="userSpaceOnUse" x1="593.8599" y1="681.3247" x2="663.1938" y2="770.0682" gradientTransform="matrix(1 0 0 1 -484 -571.333)">
		<stop  offset="0" style="stop-color:#C26555"/>
		<stop  offset="1" style="stop-color:#C26555;stop-opacity:0"/>
	</linearGradient>
	<path fill="url(#SVGID_1_)" d="M49.272,142.178l52.785,77.001c9.409,1.314,19.786-0.11,27.065-4.309l61.039-35.062
		c11.088-6.398,20.738-22.145,20.738-34.988v-24.678l-48.742-46.405c0,0,0.838,4.004,0.51,9.263l-6.529,6l-38.933-0.333l-8.405,7.86
		V105L49.272,142.178z"/>
</g>
<g id="Buttons">
	<g>
		<path fill="#333333" d="M110.636,98.29c-1.014,0-1.836-0.79-1.836-1.763c0-5.345,4.524-9.693,10.089-9.693h36.223
			c3.54,0,6.421-2.768,6.421-6.169c0-3.4-2.881-6.169-6.421-6.169h-36.223c-5.562,0-10.089-4.349-10.089-9.692
			c0-0.974,0.822-1.764,1.836-1.764c1.012,0,1.831,0.79,1.831,1.764c0,3.4,2.883,6.168,6.422,6.168h36.223
			c5.562,0,10.089,4.349,10.089,9.693c0,5.346-4.525,9.694-10.089,9.694h-36.223c-3.539,0-6.422,2.768-6.422,6.168
			C112.467,97.5,111.648,98.29,110.636,98.29z"/>
		<circle fill="#BEBEC3" cx="110.545" cy="101.702" r="6.66"/>
		<path fill="#DAE1E7" d="M146.286,156.627c-8.088,0-15.331-3.531-20.336-9.111h-32.23c-5.005,5.58-12.249,9.111-20.335,9.111
			c-15.099,0-27.339-12.239-27.339-27.338c0-14.33,11.029-26.062,25.06-27.224v-0.115h75.181c15.097,0,27.337,12.24,27.337,27.338
			C173.623,144.388,161.382,156.627,146.286,156.627z"/>
		<path fill="#1A1A1A" d="M108.045,136.04c0,0.554-0.448,1-1,1h-5c-0.552,0-1-0.446-1-1l0,0c0-0.553,0.448-1,1-1h5
			C107.597,135.04,108.045,135.487,108.045,136.04L108.045,136.04z"/>
		<path fill="#1A1A1A" d="M120.045,136.04c0,0.554-0.447,1-1,1h-5c-0.554,0-1-0.446-1-1l0,0c0-0.553,0.446-1,1-1h5
			C119.598,135.04,120.045,135.487,120.045,136.04L120.045,136.04z"/>
		<path fill="#BEBEC3" d="M120.045,124.04c0,0.554-0.447,1-1,1h-17c-0.552,0-1-0.446-1-1l0,0c0-0.553,0.448-1,1-1h17
			C119.598,123.04,120.045,123.487,120.045,124.04L120.045,124.04z"/>
		<path fill="#BEBEC3" d="M120.045,119.04c0,0.554-0.447,1-1,1h-17c-0.552,0-1-0.446-1-1l0,0c0-0.553,0.448-1,1-1h17
			C119.598,118.04,120.045,118.487,120.045,119.04L120.045,119.04z"/>
		<path fill="#BEBEC3" d="M120.045,114.04c0,0.554-0.447,1-1,1h-17c-0.552,0-1-0.446-1-1l0,0c0-0.553,0.448-1,1-1h17
			C119.598,113.04,120.045,113.487,120.045,114.04L120.045,114.04z"/>
		
			<radialGradient id="SVGID_2_" cx="315.3833" cy="-240.3726" r="19.5488" gradientTransform="matrix(1 0 0 -1 -242 -111.333)" gradientUnits="userSpaceOnUse">
			<stop  offset="0" style="stop-color:#DAE1E7"/>
			<stop  offset="0.5335" style="stop-color:#D8DFE5"/>
			<stop  offset="0.767" style="stop-color:#D1D9DE"/>
			<stop  offset="0.9417" style="stop-color:#C4CED3"/>
			<stop  offset="1" style="stop-color:#BEC8CD"/>
		</radialGradient>
		<circle fill="url(#SVGID_2_)" cx="73.383" cy="129.04" r="19.549"/>
		<path fill="#333333" d="M84.045,125.04h-7v-7c0-0.553-0.448-1-1-1h-5c-0.552,0-1,0.447-1,1v7h-7c-0.554,0-1,0.447-1,1v5
			c0,0.554,0.446,1,1,1h7v7c0,0.554,0.448,1,1,1h5c0.552,0,1-0.446,1-1v-7h7c0.552,0,1-0.446,1-1v-5
			C85.045,125.487,84.597,125.04,84.045,125.04z"/>
		
			<radialGradient id="SVGID_3_" cx="388.3843" cy="-240.3726" r="19.5488" gradientTransform="matrix(1 0 0 -1 -242 -111.333)" gradientUnits="userSpaceOnUse">
			<stop  offset="0" style="stop-color:#DAE1E7"/>
			<stop  offset="0.5335" style="stop-color:#D8DFE5"/>
			<stop  offset="0.767" style="stop-color:#D1D9DE"/>
			<stop  offset="0.9417" style="stop-color:#C4CED3"/>
			<stop  offset="1" style="stop-color:#BEC8CD"/>
		</radialGradient>
		<circle fill="url(#SVGID_3_)" cx="146.383" cy="129.04" r="19.549"/>
		<g>
			<path fill="#CD7566" d="M141.901,119.382c-0.188-4.01,1.826-4.48,4.481-4.48c2.729,0,4.67,0.703,4.48,4.48
				c-0.124,2.473-2.007,4.481-4.48,4.481C143.907,123.864,142.019,121.854,141.901,119.382z"/>
			<circle fill="#FF8772" cx="146.383" cy="118.187" r="4.481"/>
		</g>
		<g>
			<path fill="#136B69" d="M141.901,138.893c-0.188-4.011,1.826-4.481,4.481-4.481c2.729,0,4.67,0.702,4.48,4.481
				c-0.124,2.472-2.007,4.48-4.48,4.48C143.907,143.374,142.019,141.364,141.901,138.893z"/>
			<circle fill="#009491" cx="146.383" cy="137.697" r="4.481"/>
		</g>
		<g>
			<path fill="#CAA449" d="M132.147,129.138c-0.188-4.011,1.826-4.481,4.481-4.481c2.729,0,4.67,0.702,4.48,4.481
				c-0.124,2.472-2.006,4.48-4.48,4.48C134.153,133.619,132.264,131.609,132.147,129.138z"/>
			<circle fill="#FFC845" cx="136.628" cy="127.941" r="4.481"/>
		</g>
		<g>
			<path fill="#6395A8" d="M151.656,129.138c-0.188-4.011,1.826-4.481,4.48-4.481c2.73,0,4.672,0.702,4.482,4.481
				c-0.125,2.472-2.008,4.48-4.482,4.48C153.663,133.619,151.774,131.609,151.656,129.138z"/>
			<circle fill="#70B1C9" cx="156.138" cy="127.941" r="4.481"/>
		</g>
	</g>
</g>
</svg>
