<?xml version="1.0" encoding="utf-8"?>
<!-- Generator: Adobe Illustrator 16.0.0, SVG Export Plug-In . SVG Version: 6.00 Build 0)  -->
<!DOCTYPE svg PUBLIC "-//W3C//DTD SVG 1.1//EN" "http://www.w3.org/Graphics/SVG/1.1/DTD/svg11.dtd">
<svg version="1.1" id="Layer_1" xmlns="http://www.w3.org/2000/svg" xmlns:xlink="http://www.w3.org/1999/xlink" x="0px" y="0px"
	 width="20.949px" height="19.763px" viewBox="0 0 20.949 19.763" enable-background="new 0 0 20.949 19.763" xml:space="preserve">
<path fill="#75797D" d="M20.949,12.116v7.646H16.46v-7.134c0-1.792-0.65-3.016-2.275-3.016c-1.24,0-1.979,0.825-2.304,1.621
	c-0.118,0.285-0.149,0.683-0.149,1.082v7.446H7.24c0,0,0.061-12.083,0-13.335h4.491v1.89c-0.009,0.014-0.021,0.03-0.029,0.043h0.029
	V8.318c0.597-0.907,1.662-2.204,4.048-2.204C18.734,6.114,20.949,8.021,20.949,12.116z M2.542,0C1.005,0,0,0.995,0,2.303
	c0,1.28,0.976,2.305,2.482,2.305h0.029c1.566,0,2.541-1.025,2.541-2.305C5.023,0.995,4.078,0,2.542,0z M0.267,19.763h4.49V6.428
	h-4.49V19.763z"/>
</svg>
