<?xml version="1.0" encoding="utf-8"?>
<!-- Generator: Adobe Illustrator 16.0.0, SVG Export Plug-In . SVG Version: 6.00 Build 0)  -->
<!DOCTYPE svg PUBLIC "-//W3C//DTD SVG 1.1//EN" "http://www.w3.org/Graphics/SVG/1.1/DTD/svg11.dtd">
<svg version="1.1" id="Layer_1" xmlns="http://www.w3.org/2000/svg" xmlns:xlink="http://www.w3.org/1999/xlink" x="0px" y="0px"
	 width="30.795px" height="19.759px" viewBox="0 0 30.795 19.759" enable-background="new 0 0 30.795 19.759" xml:space="preserve">
<path fill="#75797D" d="M27.307,8.785c1.729-0.133,2.902-0.865,3.354-1.859c-0.624,0.357-2.561,0.746-3.63,0.375
	c-0.053-0.234-0.11-0.456-0.168-0.657c-0.815-2.787-3.605-5.033-6.529-4.762c0.236-0.089,0.477-0.172,0.716-0.246
	c0.321-0.107,2.21-0.394,1.912-1.014C22.71,0.076,20.403,1.035,19.97,1.16c0.573-0.201,1.521-0.546,1.623-1.16
	c-0.879,0.112-1.741,0.5-2.407,1.062c0.24-0.242,0.423-0.535,0.462-0.852c-2.344,1.394-3.713,4.204-4.82,6.931
	c-0.87-0.785-1.641-1.403-2.333-1.747c-1.94-0.969-4.26-1.979-7.901-3.239C4.482,3.278,5.19,4.77,7.229,5.762
	C6.787,5.707,5.979,5.83,5.333,5.974c0.263,1.285,1.122,2.345,3.449,2.856c-1.063,0.065-1.613,0.291-2.11,0.776
	c0.483,0.894,1.665,1.946,3.791,1.73c-2.362,0.948-0.963,2.706,0.959,2.442C8.142,16.936,2.97,16.704,0,14.064
	c7.754,9.842,24.609,5.82,27.121-3.659c1.882,0.015,2.988-0.607,3.674-1.293C29.711,9.285,28.14,9.107,27.307,8.785z"/>
</svg>
