<?xml version="1.0" encoding="utf-8"?>
<!-- Generator: Adobe Illustrator 16.0.0, SVG Export Plug-In . SVG Version: 6.00 Build 0)  -->
<!DOCTYPE svg PUBLIC "-//W3C//DTD SVG 1.1//EN" "http://www.w3.org/Graphics/SVG/1.1/DTD/svg11.dtd">
<svg version="1.1" id="Layer_1" xmlns="http://www.w3.org/2000/svg" xmlns:xlink="http://www.w3.org/1999/xlink" x="0px" y="0px"
	 width="20.913px" height="19.773px" viewBox="0 0 20.913 19.773" enable-background="new 0 0 20.913 19.773" xml:space="preserve">
<path fill="#75797D" d="M10.456,0C4.681,0,0,4.426,0,9.887c0,5.46,4.681,9.886,10.456,9.886c5.776,0,10.457-4.426,10.458-9.886
	C20.912,4.426,16.231,0,10.456,0z M16.863,5.126c1.02,1.225,1.659,2.742,1.739,4.398c-1.181-0.237-2.296-0.352-3.336-0.352v0h-0.008
	c-0.836,0-1.623,0.072-2.363,0.196c-0.18-0.417-0.361-0.817-0.545-1.201C13.999,7.483,15.581,6.509,16.863,5.126z M10.456,2.173
	c1.924,0,3.69,0.636,5.087,1.695c-1.069,1.21-2.481,2.087-4.007,2.706c-1.071-1.959-2.106-3.36-2.814-4.217
	C9.283,2.24,9.861,2.173,10.456,2.173z M6.853,2.978C7.418,3.61,8.553,5,9.764,7.172C7.301,7.866,4.821,8.028,3.321,8.028
	c-0.042,0-0.085,0-0.126,0H3.192c-0.252,0-0.47-0.004-0.651-0.009C3.126,5.804,4.731,3.97,6.853,2.978z M2.298,9.887
	c0-0.036,0.001-0.073,0.004-0.111c0.233,0.008,0.531,0.015,0.891,0.015h0.002c1.64-0.01,4.503-0.14,7.404-1.006
	c0.159,0.327,0.314,0.667,0.47,1.021c-1.938,0.613-3.464,1.589-4.592,2.562c-1.086,0.936-1.821,1.862-2.25,2.481
	C3.026,13.505,2.299,11.779,2.298,9.887z M10.456,17.601c-1.815,0-3.488-0.568-4.846-1.521c0.289-0.45,0.907-1.312,1.892-2.203
	c1.013-0.919,2.413-1.864,4.239-2.427c0.621,1.646,1.183,3.527,1.61,5.645C12.45,17.42,11.476,17.601,10.456,17.601z M15.073,16.231
	c-0.414-1.915-0.935-3.642-1.506-5.183c0.529-0.072,1.086-0.112,1.674-0.112h0.021h0.001h0.002c0.973,0,2.042,0.114,3.201,0.363
	C18.065,13.338,16.815,15.095,15.073,16.231z"/>
</svg>
