<?xml version="1.0" encoding="utf-8"?>
<!-- Generator: Adobe Illustrator 16.0.0, SVG Export Plug-In . SVG Version: 6.00 Build 0)  -->
<!DOCTYPE svg PUBLIC "-//W3C//DTD SVG 1.1//EN" "http://www.w3.org/Graphics/SVG/1.1/DTD/svg11.dtd">
<svg version="1.1" id="Layer_1" xmlns="http://www.w3.org/2000/svg" xmlns:xlink="http://www.w3.org/1999/xlink" x="0px" y="0px"
	 width="7.02px" height="6.994px" viewBox="0 0 7.02 6.994" enable-background="new 0 0 7.02 6.994" xml:space="preserve">
<path fill="#9EA1A4" d="M6.361,0H4.382C4.02,0,3.513,0.209,3.257,0.465L0.192,3.518c-0.256,0.256-0.256,0.674,0,0.929l2.364,2.356
	c0.257,0.256,0.676,0.256,0.933,0L6.553,3.75C6.81,3.494,7.02,2.989,7.02,2.628V0.657C7.02,0.296,6.723,0,6.361,0z M5.485,2.186
	c-0.363,0-0.658-0.293-0.658-0.655s0.295-0.656,0.658-0.656S6.143,1.168,6.143,1.53S5.848,2.186,5.485,2.186z"/>
</svg>
