<?xml version="1.0" standalone="no"?>
<!DOCTYPE svg PUBLIC "-//W3C//DTD SVG 1.1//EN" "http://www.w3.org/Graphics/SVG/1.1/DTD/svg11.dtd" >
<svg xmlns="http://www.w3.org/2000/svg">
<metadata></metadata>
<defs>
<font id="panefresco_750wtregular" horiz-adv-x="1085" >
<font-face units-per-em="2048" ascent="1536" descent="-512" />
<missing-glyph horiz-adv-x="481" />
<glyph horiz-adv-x="0" />
<glyph unicode="&#xd;" horiz-adv-x="682" />
<glyph unicode=" "  horiz-adv-x="481" />
<glyph unicode="&#x09;" horiz-adv-x="481" />
<glyph unicode="&#xa0;" horiz-adv-x="481" />
<glyph unicode="!" horiz-adv-x="948" d="M360 1434h244l-6 -926h-231zM362 295h242l2 -295h-241z" />
<glyph unicode="&#x22;" horiz-adv-x="688" d="M74 1417h217l-8 -502h-205zM422 1417h217l-8 -502h-205z" />
<glyph unicode="#" d="M6 350v189h209v278h-209v189h209v350h197v-350h256v350h196v-350h209v-189h-209v-278h209v-189h-209l2 -350h-196l-2 350h-256l2 -350h-197l-2 350h-209zM412 539h256v278h-256v-278z" />
<glyph unicode="$" d="M100 1012q0 72 21.5 135t71 111.5t128 79t195.5 36.5v244h102v-244q94 -4 191 -19l178 -28l-10 -184l-121 12q-53 4 -116.5 8t-121.5 6v-381q72 -31 145 -66.5t132 -83.5t96 -113.5t37 -155.5q0 -80 -18.5 -148.5t-65.5 -120t-126 -83t-200 -37.5l3 -226l-103 15l-2 208 q-106 4 -214.5 17.5t-180.5 30.5l12 186l81 -9q46 -5 98.5 -9.5t104.5 -7.5t99 -5v428l-16 8q-72 31 -143.5 66t-128 80t-92.5 105.5t-36 144.5zM328 1012q0 -61 54 -103.5t134 -77.5v338q-90 -8 -139 -47.5t-49 -109.5zM618 184q74 10 127.5 53.5t53.5 129.5 q0 66 -51.5 111.5t-129.5 82.5v-377z" />
<glyph unicode="%" d="M23 1145q0 150 62 220.5t175 70.5t175.5 -71t62.5 -220q0 -150 -62.5 -222.5t-175.5 -72.5t-175 72.5t-62 222.5zM193 1145q0 -78 13 -117t54 -39t55.5 38t14.5 118q0 78 -14.5 114.5t-55.5 36.5t-54 -36.5t-13 -114.5zM244 12l450 1452l150 -49l-451 -1452zM600 295 q0 150 62.5 220.5t175.5 70.5t175 -71t62 -220q0 -150 -61.5 -222.5t-173.5 -72.5q-113 0 -176.5 72.5t-63.5 222.5zM768 295q0 -80 14.5 -118t55.5 -38t54 38t13 118q0 78 -13 114.5t-54 36.5t-55.5 -36.5t-14.5 -114.5z" />
<glyph unicode="&#x26;" horiz-adv-x="1433" d="M80 434q0 72 21.5 132.5t61.5 108.5t94 85t120 63q-31 39 -51.5 72t-32.5 67.5t-18.5 74.5t-6.5 89q0 76 29 135.5t79 100.5t119.5 62.5t153.5 21.5q184 0 293 -86t109 -252q0 -72 -17.5 -127t-53.5 -104.5t-92.5 -93.5t-133.5 -91l223 -221q6 18 15 52t18.5 73t16.5 76 t11 61l215 -4q-6 -49 -18 -104.5t-27.5 -108.5t-31 -101t-27.5 -83l227 -215l-131 -144l-209 189q-51 -51 -99 -87t-101.5 -57.5t-117 -31t-143.5 -9.5q-242 0 -369.5 120t-125.5 337zM307 428q0 -115 64.5 -180.5t197.5 -65.5q94 0 162 28t137 89l-356 373 q-92 -29 -148.5 -93.5t-56.5 -150.5zM494 1096q0 -66 19 -121t69 -103l43 -43q102 57 150 113.5t48 142.5q0 158 -164 158q-76 0 -120.5 -37.5t-44.5 -109.5z" />
<glyph unicode="'" horiz-adv-x="204" d="M-14 1417h215l-8 -491h-205z" />
<glyph unicode="(" horiz-adv-x="532" d="M35 616q0 76 8 157t22.5 160t32 153.5t35.5 142.5q43 158 100 307h242q-55 -156 -98 -315q-37 -137 -66.5 -298t-29.5 -307q0 -143 29.5 -296.5t66.5 -282.5q43 -150 98 -293h-242q-57 135 -100 283q-37 125 -67.5 280.5t-30.5 308.5z" />
<glyph unicode=")" horiz-adv-x="532" d="M20 1546h242q55 -137 98 -282q37 -127 69 -282t32 -308q0 -78 -9.5 -158t-22.5 -160t-31.5 -154.5t-37.5 -142.5q-43 -158 -98 -305h-239q53 156 96 316q18 68 34.5 143.5t31 153t22.5 155.5t8 152q0 143 -30.5 296.5t-67.5 282.5q-43 150 -97 293z" />
<glyph unicode="*" d="M188 926l211 153l-206 152l96 133l203 -145l83 241l158 -55l-82 -238h252v-166h-252l80 -239l-158 -49l-79 243l-209 -157z" />
<glyph unicode="+" d="M82 467v221h346v356h229v-356h353v-221h-353v-354h-229v354h-346z" />
<glyph unicode="," horiz-adv-x="348" d="M14 -252q27 55 51.5 115.5t40 125t19.5 131t-10 134.5h241q20 -135 -15.5 -259t-104.5 -247h-222z" />
<glyph unicode="-" horiz-adv-x="901" d="M141 449v210h615v-210h-615z" />
<glyph unicode="." horiz-adv-x="507" d="M117 295h241l2 -295h-241z" />
<glyph unicode="/" d="M139 37l578 1427l213 -73l-578 -1428z" />
<glyph unicode="0" d="M37 662q0 205 36 342t101.5 219t158.5 116.5t208 34.5t208 -34.5t158.5 -117.5t101 -219.5t35.5 -340.5q0 -199 -35.5 -331t-102 -210t-160 -111t-205.5 -33q-115 0 -208 33t-158.5 111t-101.5 210t-36 331zM283 662q0 -139 16 -230.5t48 -146t81 -76t115 -21.5 q63 0 111 21.5t80 76t47.5 145.5t15.5 231q0 143 -14.5 239t-46 154.5t-79.5 83t-116 24.5q-66 0 -115 -24.5t-81 -83t-47 -154.5t-15 -239z" />
<glyph unicode="1" d="M96 1061l426 291h215l2 -1352h-229l-2 1087l-305 -206z" />
<glyph unicode="2" d="M100 207l336 334l114 119q50 54 84 104.5t52.5 99.5t18.5 103q0 98 -54.5 145t-177.5 47q-53 0 -113.5 -6t-113.5 -14q-61 -8 -121 -21l-16 203q66 14 133 27q59 10 130.5 18t143.5 8q211 0 319.5 -100t108.5 -293q0 -80 -14.5 -141.5t-45 -118.5t-79.5 -115.5 t-119 -128.5l-270 -262h553l2 -215h-869z" />
<glyph unicode="3" d="M104 25l23 196q70 -8 137 -14q59 -6 126 -10t124 -4q117 0 177.5 51t60.5 149q0 102 -61.5 144.5t-160.5 46.5h-264v200h262q37 0 72 16.5t62.5 43t44 61.5t16.5 72q0 98 -58.5 143t-162.5 45q-63 0 -126 -6t-116 -12q-61 -8 -117 -19l-22 195q66 14 133 25q59 10 127 18 t133 8q240 0 343.5 -95t105.5 -280q0 -66 -17.5 -111.5t-44.5 -77.5t-57 -54l-58 -41q45 -20 83 -47t65 -65t41 -90t14 -126q-2 -211 -110.5 -310.5t-333.5 -99.5q-76 0 -154 6.5t-141 16.5q-76 10 -146 25z" />
<glyph unicode="4" d="M53 231v185l367 936h250l-357 -906h334v385h230v-385h141v-215h-141v-247h-230v247h-594z" />
<glyph unicode="5" d="M90 41l27 199q74 -14 147 -25q63 -10 136 -17.5t139 -7.5q96 0 158.5 58.5t62.5 181.5q0 115 -58.5 165t-160.5 50q-51 0 -95.5 -8t-76.5 -19q-39 -10 -72 -24l-180 37l43 723h790v-217h-583l-33 -336q41 14 80 26q35 10 74.5 18.5t74.5 8.5q98 0 179 -24.5t137.5 -77 t87 -132t30.5 -190.5q0 -119 -31.5 -204t-91 -140t-143.5 -82t-184 -27q-78 0 -159 9.5t-146 21.5q-78 14 -152 33z" />
<glyph unicode="6" d="M61 674q0 199 40 334t112 216t170 115.5t217 34.5q57 0 122.5 -7t125.5 -15q68 -8 135 -21l-20 -203l-121 17q-53 6 -118 11t-124 5q-147 0 -223 -92t-78 -287l27 11q27 10 67.5 24t91 25.5t97.5 11.5q213 0 331.5 -106.5t118.5 -329.5q0 -225 -126 -333t-351 -108 q-248 0 -371 179.5t-123 517.5zM297 600q0 -84 14.5 -158.5t45 -132t79.5 -90.5t119 -33q113 0 176.5 61.5t63.5 182.5q0 115 -63 169t-169 54q-47 0 -94 -8t-86 -18q-45 -12 -86 -27z" />
<glyph unicode="7" d="M111 1137v217h831v-281l-491 -1106l-226 64l469 1046v60h-583z" />
<glyph unicode="8" d="M47 371q0 68 15.5 118t42 88.5t62.5 67.5t77 55q-47 31 -81 65t-54.5 73t-29.5 85t-9 103q0 88 35.5 153.5t99 109.5t152 65.5t192.5 21.5q102 0 191 -25.5t153.5 -73.5t102.5 -119t38 -159q0 -61 -10 -104t-31.5 -76t-56.5 -60.5t-84 -58.5q92 -49 146.5 -127.5 t54.5 -203.5q0 -109 -39 -183.5t-107.5 -122t-161 -69t-198.5 -21.5q-104 0 -195.5 22.5t-159 71t-106.5 123t-39 181.5zM293 393q0 -113 68.5 -162t185.5 -49q119 0 189.5 49.5t70.5 165.5q0 78 -43 123t-121 72h-192q-80 -29 -119 -76t-39 -123zM315 981q0 -70 33 -114 t103 -79h192q72 35 106.5 79t34.5 112q0 96 -60 142t-175 46q-111 0 -172.5 -45t-61.5 -141z" />
<glyph unicode="9" d="M51 944q0 109 37 189.5t100.5 134t150.5 80t189 26.5q244 0 371 -179t127 -527q0 -199 -40 -332t-110.5 -213t-171 -113t-219.5 -33q-57 0 -123.5 6.5t-123.5 14.5q-68 8 -136 22l21 201l121 -16q53 -6 116.5 -11.5t124.5 -5.5q150 0 225.5 95.5t77.5 275.5l-26 -9 q-27 -9 -69 -20.5t-90 -21.5t-91 -10q-100 0 -185 28.5t-146.5 86t-95.5 140.5t-34 191zM291 926q0 -115 61.5 -169.5t167.5 -54.5q45 0 92 6.5t88 16.5q47 8 91 23q0 94 -16.5 170.5t-49.5 132t-81 85t-116 29.5q-104 0 -170.5 -62.5t-66.5 -176.5z" />
<glyph unicode=":" horiz-adv-x="425" d="M90 295h242l2 -295h-242zM90 621v294h242v-294h-242z" />
<glyph unicode=";" horiz-adv-x="456" d="M25 -238l114 523h242l-150 -523h-206zM123 621v294h242v-294h-242z" />
<glyph unicode="&#x3c;" d="M172 479v234l700 391v-236l-481 -268l481 -281v-235z" />
<glyph unicode="=" d="M109 240v219h862v-219h-862zM109 653v217h862v-217h-862z" />
<glyph unicode="&#x3e;" d="M197 881l2 223l700 -391v-234l-700 -395v248l479 280z" />
<glyph unicode="?" horiz-adv-x="790" d="M16 1389q66 18 131 34q55 14 117 25.5t109 11.5q219 0 324.5 -93t105.5 -308q0 -72 -25.5 -131.5t-63.5 -108.5t-82 -92l-82 -81q-38 -38 -62.5 -74.5t-24.5 -73.5v-78h-227q-4 23 -7 45q-4 18 -5 37.5t-1 32.5q0 53 24.5 101t61.5 93t80 86t80 80t61.5 77t24.5 75 q0 47 -7 82.5t-29.5 59t-62.5 36t-106 12.5q-39 0 -92 -7t-100 -18q-55 -10 -115 -24zM223 281h242l2 -281h-242z" />
<glyph unicode="@" horiz-adv-x="2017" d="M88 553q0 248 66.5 425t189.5 289.5t297 166t389 53.5q457 0 676 -226.5t219 -650.5v-35q0 -182 -26.5 -297.5t-75.5 -182t-120 -91t-161 -24.5q-92 0 -152.5 20t-101.5 78q-29 -14 -67.5 -31.5t-82.5 -32t-90.5 -23.5t-89.5 -9q-82 0 -150.5 25.5t-117.5 87t-76.5 162.5 t-27.5 253q0 127 17.5 226.5t62.5 167t121.5 103t197.5 35.5q29 0 64.5 -7t68.5 -17l78 -23v29h223v-410q0 -145 6.5 -229t19.5 -126t36.5 -53t60.5 -11q39 0 67.5 13t48 54t29 120t9.5 208v37q0 174 -38 297t-118 200.5t-206 114.5t-302 37q-358 0 -540.5 -182.5 t-182.5 -558.5q0 -203 40 -345.5t127 -231.5t224.5 -129t329.5 -40q31 0 80 2t96 6q55 4 117 10l8 -210q-59 -6 -114 -11q-47 -4 -98.5 -7t-88.5 -3q-227 0 -403 49t-296 163t-181.5 301t-61.5 464zM811 494q0 -90 12.5 -146.5t34 -89.5t52 -45t65.5 -12q61 0 125.5 18.5 t111.5 34.5q-10 53 -13 118.5t-3 149.5v279q-31 6 -59 14q-25 6 -53.5 11t-51.5 5q-70 0 -112.5 -17t-67.5 -57t-33 -104.5t-8 -158.5z" />
<glyph unicode="A" horiz-adv-x="1239" d="M59 0l293 1212q8 39 31 76t58.5 65.5t87 46t118.5 17.5h191l342 -1417h-226l-86 293h-497l-72 -293h-240zM420 506h405l-166 711h-5q-39 0 -60 -31q-23 -33 -29 -68z" />
<glyph unicode="B" horiz-adv-x="1249" d="M168 1417h510q92 0 171 -22.5t136 -67.5t90 -113.5t33 -160.5q0 -70 -9 -121t-29.5 -90t-52.5 -68t-75 -53q98 -39 149.5 -115t53.5 -217q0 -106 -34 -180t-94.5 -120t-142 -67.5t-178.5 -21.5h-526zM395 207h287q94 0 157.5 49t63.5 160q0 57 -21.5 95t-55 61.5 t-72.5 32.5t-76 9h-283v-407zM395 813h279q92 0 144 56.5t52 154.5q0 94 -55 141t-147 47h-273v-399z" />
<glyph unicode="C" horiz-adv-x="1087" d="M98 717q0 190 27 326.5t87 225.5t159.5 131t244.5 42q61 0 129 -7.5t127 -17.5q68 -10 134 -22l-9 -203q-70 6 -135 14q-55 4 -114.5 9.5t-100.5 5.5q-92 0 -151.5 -29t-94 -92.5t-49 -161.5t-14.5 -240q0 -135 12 -230t47 -155.5t96.5 -88t159.5 -27.5q35 0 95 4l114 8 q66 6 135 14l7 -205q-72 -12 -140 -20q-59 -8 -126.5 -14.5t-121.5 -6.5q-156 0 -256 48.5t-158.5 142.5t-81 232.5t-22.5 316.5z" />
<glyph unicode="D" horiz-adv-x="1296" d="M168 1417h469q164 0 271.5 -47t171 -137t89 -219t25.5 -293q0 -166 -23.5 -300t-85 -227.5t-170 -143.5t-276.5 -50h-469zM395 213h242q100 0 162.5 41t97.5 111.5t47 164.5t12 203q0 106 -12 194.5t-47 150t-97.5 95t-162.5 33.5h-242v-993z" />
<glyph unicode="E" horiz-adv-x="1142" d="M143 393v13q2 70 16.5 121t40 87.5t62.5 62t86 44.5q-39 27 -69.5 57.5t-51 70.5t-30.5 92q-7 37 -8 84q0 18 1 38q2 92 37 158.5t94.5 110.5t139.5 64.5t172 20.5h399l-2 -209h-393q-92 0 -150.5 -45t-62.5 -139v-7q0 -93 51 -149q53 -58 146 -59h284l4 -207h-295 q-37 0 -76.5 -9t-74.5 -31.5t-57.5 -60.5t-22.5 -95v-14q0 -98 57 -137q61 -42 156 -42h434l4 -213h-454q-96 0 -177 23.5t-139.5 72.5t-90.5 126q-30 72 -30 171z" />
<glyph unicode="F" horiz-adv-x="1114" d="M168 1417h862v-213h-635v-479h512v-209h-512l2 -516h-227z" />
<glyph unicode="G" horiz-adv-x="1228" d="M100 723q0 182 29 317.5t92.5 224.5t167 133t254.5 44q76 0 158 -8.5t151 -18.5q82 -10 158 -24l-8 -201l-148 16q-63 6 -138 12.5t-138 6.5q-98 0 -163.5 -29t-104.5 -90.5t-55.5 -158.5t-16.5 -236q0 -135 14.5 -233.5t51 -162t101 -93t167.5 -29.5q33 0 67.5 2t67.5 6 q14 2 27.5 6t23.5 22.5t17.5 55.5t7.5 104v166h-170v201h395l2 -348v-37q0 -63 -5 -119q-7 -72 -29.5 -127t-64.5 -90t-108 -41t-132 -11.5t-120 -5.5q-158 0 -264 51.5t-169.5 147.5t-90.5 234.5t-27 312.5z" />
<glyph unicode="H" horiz-adv-x="1374" d="M168 1417h227v-592h580v592h227l2 -1417h-227l-2 612h-580l2 -612h-227z" />
<glyph unicode="I" horiz-adv-x="542" d="M154 1417h231l2 -1417h-231z" />
<glyph unicode="J" horiz-adv-x="636" d="M72 59q100 2 138 39t38 140v1181h227l2 -1190q0 -113 -19.5 -184.5t-65.5 -113.5t-125 -58t-195 -16v202z" />
<glyph unicode="K" horiz-adv-x="1212" d="M168 1417h227v-626l70 4q131 23 209 81t117.5 141t51 185.5t11.5 214.5h233q-6 -96 -10 -200.5t-27.5 -205t-79 -188.5t-163.5 -149l342 -674h-258l-295 600q-25 -4 -52 -8l-57 -8l-92 -9l2 -575h-227z" />
<glyph unicode="L" horiz-adv-x="1015" d="M168 1417h227v-1202h537l2 -215h-764z" />
<glyph unicode="M" horiz-adv-x="1738" d="M168 1155q0 55 9 104.5t31.5 84t62.5 55.5q34 18 86 18h6h12h172l321 -1108l244 838q31 121 89.5 194.5t158.5 75.5h205l2 -1417h-219l-2 1157q-12 -2 -23.5 -20.5t-22.5 -44.5l-241 -822q-35 -106 -71 -155t-75 -58h-155l-330 1106q-16 0 -19 -21.5t-6 -54.5l3 -1087 h-236z" />
<glyph unicode="N" horiz-adv-x="1427" d="M168 1417h186q43 0 82 -6t74 -27.5t63.5 -60.5t51.5 -102l348 -924q21 -60 49 -60q2 0 4 1v1179h229l2 -1417h-174q-96 4 -164.5 48t-107.5 142l-354 918q-27 72 -58 72l2 -1180h-231z" />
<glyph unicode="O" horiz-adv-x="1325" d="M100 709q0 178 30 315t95.5 230.5t173 140.5t260.5 47q156 0 262.5 -50.5t172 -145.5t95.5 -234.5t30 -319.5q0 -182 -29 -316t-95.5 -223.5t-173 -132.5t-262.5 -43t-262 46.5t-172.5 138.5t-95.5 229t-29 318zM338 700q0 -135 16.5 -231t53 -158.5t98 -92.5t153.5 -30 t155 29t99.5 91.5t53 159.5t16.5 232q0 266 -70.5 397.5t-253.5 131.5q-92 0 -153.5 -33t-98 -98.5t-53 -164.5t-16.5 -233z" />
<glyph unicode="P" horiz-adv-x="1224" d="M168 1417h494q229 0 354 -124q123 -122 123 -354v-7.5v-6.5q0 -233 -123 -361q-125 -130 -354 -130h-263l2 -434h-231zM399 645h263q127 0 185 83t58 212t-58.5 197.5t-184.5 68.5h-263v-561z" />
<glyph unicode="Q" horiz-adv-x="1325" d="M98 711q0 174 29 310t94.5 230.5t173 142.5t264.5 48q160 0 267.5 -51.5t173 -148.5t93.5 -236.5t28 -315.5q0 -236 -53.5 -396.5t-176.5 -242.5q25 -53 52.5 -106.5t61.5 -97.5t77 -74.5t100 -36.5l-53 -197q-88 14 -153.5 57.5t-117 104.5t-93.5 135t-81 152 q-29 -4 -59.5 -7.5t-65.5 -3.5q-160 0 -267 48.5t-172.5 141.5t-93.5 230.5t-28 313.5zM338 700q0 -131 15.5 -227t52 -159.5t98 -94.5t155.5 -31q96 0 159 31t99.5 93.5t51 158.5t14.5 229q0 129 -15.5 227.5t-52 166t-99 101.5t-157.5 34q-96 0 -157.5 -34t-98 -100.5 t-51 -166t-14.5 -228.5z" />
<glyph unicode="R" horiz-adv-x="1261" d="M168 1417h500q231 0 358 -111.5t127 -349.5q0 -158 -61.5 -255t-176.5 -150l242 -551h-242l-213 500l-45 -2h-262l2 -498h-227zM395 702h287q119 0 177.5 75t58.5 184q0 117 -65 181t-175 64h-283v-504z" />
<glyph unicode="S" horiz-adv-x="1087" d="M102 1063q0 80 25 150.5t81 121.5t147 81t225 30q102 0 209.5 -17.5t199.5 -33.5l-10 -193q-76 6 -152 15q-66 4 -137.5 9t-130.5 5q-109 0 -169 -43t-60 -125q0 -41 22.5 -71.5t60.5 -57.5t87 -49l102 -47q74 -33 149.5 -71t137 -89t101.5 -121t40 -168 q0 -88 -20.5 -162.5t-72.5 -130t-141 -87.5t-227 -32q-57 0 -118.5 4.5t-121 11.5t-113.5 15t-93 19l12 196q39 -6 93 -11l114 -10q59 -5 118.5 -8.5t106.5 -3.5q45 0 87 11.5t75 35t52.5 60.5t19.5 90q0 47 -24.5 84t-66.5 67.5t-97 57.5l-111 53l-144 69q-72 36 -128 84 t-92 110.5t-36 150.5z" />
<glyph unicode="T" horiz-adv-x="993" d="M14 1196v221h959v-221h-361l2 -1196h-227l-2 1196h-371z" />
<glyph unicode="U" horiz-adv-x="1320" d="M152 453v964h229v-964q0 -137 67.5 -194.5t206.5 -57.5q141 0 211 57t70 195v964h229v-964q0 -125 -26.5 -214t-86 -146.5t-152.5 -84t-226 -26.5q-262 0 -392 110.5t-130 360.5z" />
<glyph unicode="V" horiz-adv-x="1236" d="M57 1417h232l278 -1210q41 4 66.5 29.5t42.5 85.5l252 1095h250l-289 -1198q-61 -219 -309 -219h-179z" />
<glyph unicode="W" horiz-adv-x="1892" d="M68 1417h235l225 -1210q29 0 41.5 22.5t16.5 59.5l184 917q14 88 52 142q35 49 105 49h11h131l238 -1190q31 -4 42 20.5t15 59.5l209 1130h246l-252 -1245q-16 -92 -80 -133q-60 -39 -158 -39h-10h-164l-213 1092l-172 -920q-32 -172 -227 -172h-4h-179z" />
<glyph unicode="X" horiz-adv-x="1189" d="M51 1417h250l285 -549l282 549h267l-394 -715l396 -702h-250l-285 539l-283 -539h-266l398 702z" />
<glyph unicode="Y" horiz-adv-x="1153" d="M37 1417h246l282 -567l281 567h266l-422 -811l2 -606h-227l-2 606z" />
<glyph unicode="Z" horiz-adv-x="1167" d="M128 90q0 131 101 295l482 735q16 20 25 41t5 41h-610v215h895q15 -40 15 -85q0 -46 -16 -96q-32 -99 -93 -206l-479 -735q-31 -48 -31 -74v-6h610l2 -215h-893q-13 43 -13 90z" />
<glyph unicode="[" horiz-adv-x="614" d="M66 1534h481v-219h-252v-1348h252v-219h-479z" />
<glyph unicode="\" horiz-adv-x="1081" d="M98 1430l234 8l626 -1432l-229 -6z" />
<glyph unicode="]" horiz-adv-x="614" d="M59 -33h252v1348h-252v219h482l-2 -1786h-480v219z" />
<glyph unicode="^" d="M55 651l365 701h235l371 -701h-227l-248 479l-250 -479h-246z" />
<glyph unicode="_" d="M53 -174h975v-205h-973z" />
<glyph unicode="`" horiz-adv-x="1116" d="M211 1354l76 211l493 -191l-69 -186z" />
<glyph unicode="a" horiz-adv-x="1075" d="M84 496q0 102 23.5 200.5t76 175t136 123.5t202.5 47q57 0 101.5 -7t81.5 -17l174 26l-2 -790q8 -35 41.5 -58.5t80.5 -31.5l-12 -184q-104 4 -167.5 26.5t-98.5 69.5q-43 -39 -108.5 -67.5t-151.5 -28.5q-100 0 -172 36.5t-117 104t-66.5 163t-21.5 212.5zM289 471 q0 -47 6 -99.5t23.5 -96.5t46 -72.5t73.5 -28.5q37 0 73 13.5t66.5 34t54 43t36.5 38.5v533h-4l-56 9q-31 5 -59 5q-68 0 -117 -31t-81 -82t-47 -120.5t-15 -145.5z" />
<glyph unicode="b" horiz-adv-x="1114" d="M166 2v1446h223v-502q53 37 117.5 63.5t130.5 26.5q139 0 222 -76.5t116 -216.5q18 -82 23 -171q2 -26 2 -52q0 -62 -9 -122q-12 -85 -41.5 -162.5t-82 -136t-128 -92.5t-176.5 -34q-55 2 -125 8l-129 9zM387 180q45 -6 89 -10t61 -4q88 0 144 54t85 138q30 87 30 195 q0 96 -20 186q-10 49 -44 78t-81 29q-31 0 -66.5 -12.5t-72.5 -32t-69.5 -42t-55.5 -40.5v-539z" />
<glyph unicode="c" horiz-adv-x="892" d="M84 496q0 102 23.5 200.5t76 175t136 123.5t202.5 47q57 0 132 -11t147 -36l-6 -182q-6 6 -40 12t-75 11.5t-79 9.5t-52 4q-68 0 -116 -32t-79.5 -85t-46 -122.5t-14.5 -143.5q0 -47 5 -97.5t21.5 -92t45 -68.5t77.5 -27q37 0 78 13.5t80 33t67.5 41t41.5 37.5l88 -172 q-25 -29 -65 -56.5t-86 -50t-94 -35.5t-91 -13q-100 0 -172 36.5t-117 104t-66.5 163t-21.5 212.5z" />
<glyph unicode="d" horiz-adv-x="1114" d="M84 496q0 102 23.5 200.5t76 175t136 123.5t202.5 47q41 0 94.5 -6t108.5 -20v432h225l2 -1448h-225l-2 109q-18 -23 -52 -46.5t-74 -42t-80 -29.5t-68 -11q-92 0 -161 36.5t-115 104t-68.5 163t-22.5 212.5zM293 463q0 -47 4 -98.5t19.5 -93.5t44 -68.5t77.5 -26.5 q35 0 80 18.5t87 44t75 52t45 43.5v495q-25 4 -51 8l-51 6q-25 3 -45.5 5t-28.5 2q-68 0 -116 -33t-79.5 -86t-46 -122.5t-14.5 -145.5z" />
<glyph unicode="e" horiz-adv-x="1038" d="M110 490q0 15 1 30q2 131 39.5 229.5t97 164t135.5 97t154 31.5q152 0 244.5 -76.5t119.5 -189.5q9 -36 9 -72q0 -30 -6 -60q-13 -67 -60 -132q-43 -61 -110.5 -100t-139.5 -61.5t-141.5 -32t-116.5 -11.5q6 -27 16 -51.5t30.5 -42.5t52.5 -28.5t79 -10.5q43 0 91 14.5 t92 36t83 46t64 44.5l53 -215q-20 -16 -57 -36.5t-84 -39t-104.5 -31.5t-121.5 -13q-176 0 -269 85t-128 236q-23 92 -23 189zM319 500q66 4 139.5 21.5t133 50t92.5 82.5q22 33 22 75q0 21 -6 43q-8 39 -46 59.5t-99 20.5q-41 0 -83 -23.5t-76 -67.5t-55.5 -109.5 t-21.5 -151.5z" />
<glyph unicode="f" horiz-adv-x="694" d="M49 827v195h111v68q0 207 72.5 292.5t222.5 85.5q27 0 61.5 -3t67.5 -7q37 -6 75 -10l-4 -186l-51 4q-23 2 -50.5 4t-49.5 2q-70 0 -95.5 -46t-25.5 -139v-65h262v-195h-262v-827h-223v827h-111z" />
<glyph unicode="g" horiz-adv-x="1083" d="M94 494q0 115 24.5 215t79 174.5t140.5 117.5t211 43q41 0 108 -4l134 -8q76 -6 155 -10v-423v-285v-172v-88q0 -28 1 -32l1 -6q0 -260 -102.5 -381.5t-319.5 -121.5q-53 0 -106 4t-94 10q-51 8 -95 16l11 191l84 -8q35 -4 73.5 -6.5t67.5 -2.5q141 0 205 94 q49 72 49 195q0 36 -4 76q-14 -12 -39 -29.5t-56.5 -35t-66.5 -29t-70 -11.5q-100 0 -173.5 41t-122 111t-72 164t-23.5 201zM315 504q0 -174 40 -252t134 -78q35 0 76 19.5t76 44.5q41 27 82 63v537q-33 2 -66 6l-58 4q-30 2 -50 2q-57 0 -100 -29.5t-73 -79t-45.5 -112 t-15.5 -125.5z" />
<glyph unicode="h" horiz-adv-x="1150" d="M160 1448h223l-2 -512q18 20 49 39.5t70 35t82 24.5t86 9q100 0 164.5 -33.5t101.5 -98t50 -160t13 -217.5l2 -535h-223l-2 537q0 68 -3 124t-18.5 97t-45 63.5t-82.5 22.5q-70 0 -129.5 -25.5t-114.5 -70.5l4 -748h-223z" />
<glyph unicode="i" horiz-adv-x="522" d="M147 1022h224l2 -1022h-223zM147 1184v235h224v-235h-224z" />
<glyph unicode="j" horiz-adv-x="534" d="M-61 -307q74 41 116.5 72.5t66 65.5t31 76t7.5 105v1010h225v-1012q0 -102 -14.5 -174t-52 -127t-106.5 -102t-175 -101zM160 1182v235h225v-235h-225z" />
<glyph unicode="k" horiz-adv-x="1042" d="M166 1448h223v-825l47 6q80 16 134.5 52t89 87t51 115.5t20.5 138.5h232q0 -168 -60.5 -289t-171.5 -198l303 -535h-241l-258 438q-18 -6 -38 -11t-40 -9l-68 -12l2 -406h-223z" />
<glyph unicode="l" horiz-adv-x="526" d="M150 1448h223l2 -1448h-223z" />
<glyph unicode="m" horiz-adv-x="1748" d="M170 1022h223l-2 -141q47 66 119 114.5t147 48.5q82 0 148.5 -27.5t107.5 -92.5q29 20 67 41.5t81 39t90 28.5t94 11q197 0 275.5 -128t78.5 -381l3 -535h-224l-2 524q0 74 -5 133.5t-22.5 100.5t-50 62.5t-88.5 21.5q-78 0 -134 -34t-85 -67q4 -16 7 -76.5t3 -134.5 l3 -530h-226l-2 526q0 76 -4 135.5t-20.5 99.5t-47 60.5t-81.5 20.5q-35 0 -70 -16.5t-65.5 -41t-55 -53.5t-41.5 -53l4 -678h-223z" />
<glyph unicode="n" horiz-adv-x="1155" d="M166 1022h223l-2 -117q53 53 133 96t166 43q96 0 157.5 -33.5t97.5 -98t49.5 -160t13.5 -217.5l2 -535h-226l-2 532q0 70 1 126v12q0 49 -8 86q-9 41 -34.5 63.5t-79.5 22.5q-84 0 -154.5 -45t-111.5 -97v-700h-223z" />
<glyph unicode="o" horiz-adv-x="1083" d="M94 543q0 117 21.5 209t73 157.5t137.5 100t215 34.5q125 0 211 -41.5t138 -114.5t74.5 -172.5t22.5 -215.5q0 -117 -21.5 -213.5t-72.5 -165t-137 -106.5t-215 -38q-131 0 -217 43t-137.5 120t-72 179.5t-20.5 223.5zM319 514q0 -78 8.5 -141.5t33 -108.5t67.5 -68.5 t113 -23.5t112.5 25.5t66 71.5t32 110.5t8.5 140.5t-10.5 137.5t-36 104.5t-67.5 65.5t-105 22.5q-66 0 -109 -23.5t-68.5 -66.5t-35 -105.5t-9.5 -140.5z" />
<glyph unicode="p" horiz-adv-x="1114" d="M166 -440v1462h223l2 -82q53 39 120 67.5t136 28.5q94 0 163 -36.5t113 -104.5t65.5 -163t21.5 -212q0 -102 -23.5 -200.5t-76 -175t-135.5 -124t-202 -47.5q-39 0 -86 5.5t-98 15.5v-434h-223zM389 182q47 -8 94 -12t64 -4q68 0 117 31.5t79.5 84t46 122t15.5 143.5 q0 45 -6 97t-23.5 97t-47.5 76t-77 31q-31 0 -68.5 -13.5t-73.5 -33t-67.5 -42t-52.5 -40.5v-537z" />
<glyph unicode="q" horiz-adv-x="1110" d="M84 481q0 111 25.5 212.5t81 179t144.5 123.5t216 46q80 0 183.5 -10t211.5 -18l-2 -1454h-225v522q-63 -45 -133 -73.5t-125 -28.5q-100 0 -172 34.5t-117 100t-66.5 158t-21.5 208.5zM287 457q0 -47 8 -96.5t25.5 -89.5t47 -64.5t72.5 -24.5q31 0 71 14.5t80 36 t73.5 46t56.5 45.5l4 505q-25 4 -51 8l-51 6q-25 3 -45.5 5t-28.5 2q-68 0 -118 -33t-82 -87t-47 -126t-15 -147z" />
<glyph unicode="r" horiz-adv-x="733" d="M152 1022h225l2 -156q16 20 40.5 47t60.5 51.5t84 47t114 35.5v-240q-70 -12 -119 -33.5t-83 -45t-57 -48.5l-42 -45l2 -635h-225z" />
<glyph unicode="s" horiz-adv-x="1009" d="M106 748q0 59 23 113t70 95t122.5 66t184.5 25q43 0 93 -5.5t99.5 -12.5t92.5 -15t69 -17l-6 -180l-135 17l-119 12q-61 6 -108 6q-78 0 -120 -27.5t-42 -74.5q0 -45 58 -76t159 -62q68 -20 130 -44.5t110.5 -61.5t78 -90.5t29.5 -126.5q0 -61 -19.5 -116.5t-65.5 -98.5 t-122 -67.5t-190 -24.5q-51 0 -116 5t-124 13q-68 8 -139 18l10 191q74 -12 141 -21q59 -8 122 -14t106 -6q78 0 128 34t50 87q0 29 -19.5 49t-51.5 37.5t-75 32t-92 28.5t-107.5 41t-108.5 65t-83 89t-33 117z" />
<glyph unicode="t" horiz-adv-x="727" d="M47 827v195h123v299h223v-299h271v-195h-271v-438q0 -111 24.5 -161t88.5 -50h49q27 0 49 2l55 4l11 -182q-35 -8 -70 -14q-29 -4 -63.5 -8.5t-61.5 -4.5q-164 0 -234.5 88.5t-70.5 294.5v469h-123z" />
<glyph unicode="u" horiz-adv-x="1146" d="M150 487v535h225v-533q0 -166 24.5 -240.5t104.5 -74.5q33 0 73.5 15.5t77.5 39t66 49t41 46.5l-4 698h225l2 -1022h-225v106q-20 -23 -53 -45t-73 -40.5t-83 -31t-84 -12.5q-164 0 -240.5 121t-76.5 389z" />
<glyph unicode="v" horiz-adv-x="989" d="M39 1022h223l195 -832q23 4 43 25t28 55l183 752h235l-209 -821q-14 -41 -33.5 -78t-51 -63.5t-77 -43t-110.5 -16.5h-164z" />
<glyph unicode="w" horiz-adv-x="1542" d="M37 1022h215l156 -823q39 6 65 73l139 598q16 66 47 98.5t72 35.5h148l186 -805q25 0 39 19.5t18 47.5l148 756h229l-174 -844q-20 -90 -85.5 -132t-168.5 -46h-151l-154 698l-113 -512q-35 -182 -227 -186h-176z" />
<glyph unicode="x" horiz-adv-x="950" d="M43 1022h233l191 -352l190 352h248l-295 -512l297 -510h-233l-193 350l-188 -350h-248l291 510z" />
<glyph unicode="y" horiz-adv-x="991" d="M37 1022h211l182 -694q16 -53 35.5 -81t40.5 -32l213 807h229l-264 -1012q-27 -102 -59.5 -174t-85 -127t-132 -102t-200.5 -101l-57 207q82 39 134 66.5t84.5 57.5t51 68t35.5 97q-29 0 -61 16.5t-60.5 46t-53 71.5t-36.5 95z" />
<glyph unicode="z" horiz-adv-x="978" d="M115 87q0 28 6 57q14 75 74 157l397 522h-473l-2 199h733q17 -42 17 -89q0 -22 -4 -44q-11 -72 -75 -162l-407 -528h477l2 -199h-731q-14 43 -14 87z" />
<glyph unicode="{" horiz-adv-x="665" d="M35 545v188q119 29 157.5 76t38.5 125q0 20 -2 53t-5 70t-5 72.5t-2 64.5q0 96 24.5 162.5t77 108.5t131 62.5t189.5 24.5l2 -219q-57 -4 -93 -13t-55.5 -27.5t-26.5 -46t-7 -68.5q0 -25 2 -60t5 -71.5t5 -69.5t2 -55q0 -63 -11 -108.5t-36 -77t-63.5 -54.5t-94.5 -41 q113 -37 159 -101.5t46 -189.5q0 -47 -7 -116.5t-7 -122.5q0 -41 7 -70t26.5 -48.5t55.5 -29.5t93 -14l-2 -219q-221 8 -321.5 90t-100.5 266q0 31 2 65.5t5 68.5t5 64.5t2 49.5q0 78 -39.5 128t-156.5 83z" />
<glyph unicode="|" d="M416 -512v2048h229v-2048h-229z" />
<glyph unicode="}" horiz-adv-x="665" d="M16 -57q57 4 92 13t55.5 27.5t28 46t7.5 68.5q0 25 -2 60t-5.5 71.5t-5.5 69.5t-2 55q0 63 11.5 107.5t36 77t63.5 55t94 41.5q-113 37 -159 101.5t-46 189.5q0 47 7.5 116.5t7.5 122.5q0 39 -7.5 69t-28 49.5t-55 29.5t-92.5 14l2 219q221 -8 321.5 -90t100.5 -266 q0 -31 -2 -65.5t-5 -68.5t-5 -64.5t-2 -49.5q0 -78 40 -128t157 -83v-188q-119 -29 -158 -76t-39 -125q0 -23 2 -54.5t5 -68.5t5 -72.5t2 -64.5q0 -96 -24.5 -162.5t-75.5 -108.5t-131 -62.5t-189 -24.5z" />
<glyph unicode="~" d="M121 684q35 31 74 53q35 20 78.5 38t95.5 18q41 0 91 -14.5t100 -33t96 -33t83 -14.5q29 0 65 13.5t66 29.5q37 18 74 43l14 -211q-29 -31 -65 -53q-31 -20 -74 -36.5t-90 -16.5q-41 0 -93 14.5t-103.5 32.5t-98.5 32.5t-78 14.5q-35 0 -71.5 -14.5t-69.5 -30.5l-74 -43z " />
<glyph unicode="&#xa2;" horiz-adv-x="894" d="M47 510q0 223 98.5 329.5t270.5 118.5v222h188v-230q33 -4 63.5 -7t57.5 -7q29 -4 57 -6l-6 -195l-96 4q-41 2 -84 3t-72 1q-70 0 -117 -11t-76.5 -37.5t-42 -71.5t-12.5 -113t12.5 -113t42 -71.5t79 -36.5t122.5 -10q29 0 71 1t81 3q45 2 92 6l8 -195l-59 -8 q-27 -4 -57.5 -6t-61.5 -6v-234h-190v226q-178 10 -273.5 111.5t-95.5 332.5z" />
<glyph unicode="&#xa3;" d="M109 207h114q41 0 60.5 38t21.5 109v334h-166v205h166v86q0 117 21.5 196.5t61.5 128t98.5 69t129.5 20.5q41 0 96.5 -7.5t108.5 -15.5q61 -10 125 -22l-10 -191q-59 4 -113 8q-45 4 -88 7.5t-61 3.5q-82 0 -115 -41t-33 -158v-84h400v-205h-402v-371q-2 -37 -6 -65.5 t-18 -44.5h295q98 4 147 33l37 -203q-29 -18 -71 -25.5t-95 -9.5h-170q-90 0 -182 -1t-181 -1h-169z" />
<glyph unicode="&#xa5;" horiz-adv-x="1105" d="M2 1352h256l295 -529l291 529h256l-326 -561h232v-191h-326l-10 -22v-97h336v-190h-336l2 -291h-232l-2 291h-342v190h342v97l-10 22h-332v191h236z" />
<glyph unicode="&#xa9;" d="M16 887q0 115 40 215t110 174t166 117t209 43q117 0 214 -44t165.5 -120t106.5 -174.5t38 -208.5q0 -115 -38 -214.5t-107.5 -173t-167 -115.5t-215.5 -42q-111 0 -206 42t-165 115.5t-110 173t-40 212.5zM133 889q0 -88 31 -166t85 -135.5t128 -91t162 -33.5 q90 0 165.5 33.5t130 91t85 135.5t30.5 166t-30.5 167t-86 137t-130 92t-162.5 34t-163 -34t-129 -92t-85 -137t-31 -167zM285 897q0 154 59 230.5t201 76.5q35 0 63.5 -2t48.5 -4q23 -4 43 -6l-2 -186q-20 2 -43 6q-20 2 -47.5 4t-62.5 2q-47 0 -62.5 -37t-15.5 -84 q0 -53 17.5 -95t60.5 -42q35 0 62.5 1t47.5 3q23 2 43 6v-182q-18 -4 -41 -8q-20 -4 -48.5 -6.5t-63.5 -2.5q-141 0 -200.5 77t-59.5 249z" />
<glyph unicode="&#xad;" horiz-adv-x="901" d="M141 449v210h615v-210h-615z" />
<glyph unicode="&#xae;" d="M-12 889q0 117 37.5 221t108.5 182t173.5 124t233.5 46q129 0 233.5 -45t178 -122.5t113.5 -182t40 -223.5q0 -117 -40 -221.5t-113.5 -183t-178 -125t-233.5 -46.5q-131 0 -233.5 46.5t-173.5 124t-108.5 183t-37.5 222.5zM100 889q0 -94 34 -178t93.5 -147.5 t140.5 -100.5t173 -37t173 37t140 100.5t94 147.5t35 178q0 98 -35 182t-95 146.5t-140 98.5t-172 36q-94 0 -175 -36t-139.5 -98.5t-92.5 -146.5t-34 -182zM295 565v645h244q119 0 184 -45t65 -159q0 -78 -18 -122t-68 -77l101 -242h-185l-79 219h-74v-219h-170zM463 913 h78q82 0 82 82q0 84 -91 84h-69v-166z" />
<glyph unicode="&#xb4;" horiz-adv-x="1191" d="M211 1376l494 191l75 -211l-499 -168z" />
<glyph unicode="&#x2000;" horiz-adv-x="809" />
<glyph unicode="&#x2001;" horiz-adv-x="1618" />
<glyph unicode="&#x2002;" horiz-adv-x="809" />
<glyph unicode="&#x2003;" horiz-adv-x="1618" />
<glyph unicode="&#x2004;" horiz-adv-x="539" />
<glyph unicode="&#x2005;" horiz-adv-x="404" />
<glyph unicode="&#x2006;" horiz-adv-x="269" />
<glyph unicode="&#x2007;" horiz-adv-x="269" />
<glyph unicode="&#x2008;" horiz-adv-x="202" />
<glyph unicode="&#x2009;" horiz-adv-x="323" />
<glyph unicode="&#x200a;" horiz-adv-x="89" />
<glyph unicode="&#x2010;" horiz-adv-x="901" d="M141 449v210h615v-210h-615z" />
<glyph unicode="&#x2011;" horiz-adv-x="901" d="M141 449v210h615v-210h-615z" />
<glyph unicode="&#x2012;" horiz-adv-x="901" d="M141 449v210h615v-210h-615z" />
<glyph unicode="&#x2013;" horiz-adv-x="1024" d="M0 457v205h1022v-205h-1022z" />
<glyph unicode="&#x2014;" horiz-adv-x="2048" d="M0 457v205h2046v-205h-2046z" />
<glyph unicode="&#x2018;" horiz-adv-x="430" d="M61 1042q-23 139 15.5 256t97.5 226h213q-29 -57 -53.5 -115.5t-39.5 -119t-18.5 -122t13.5 -125.5h-228z" />
<glyph unicode="&#x2019;" horiz-adv-x="430" d="M33 1042q29 57 53.5 116t39.5 119t17 121.5t-12 125.5h227q12 -70 7 -133.5t-22 -123t-43 -115.5t-54 -110h-213z" />
<glyph unicode="&#x201c;" horiz-adv-x="894" d="M66 1042q-23 139 15 256t97 226h213q-29 -57 -53.5 -115.5t-39.5 -119t-18.5 -122t13.5 -125.5h-227zM455 1042q-23 139 15 256t97 226h213q-29 -57 -53.5 -115.5t-39.5 -119t-18 -122t13 -125.5h-227z" />
<glyph unicode="&#x201d;" horiz-adv-x="868" d="M66 1042q29 57 53 116t39.5 119t17.5 121.5t-12 125.5h227q12 -70 7 -133.5t-22.5 -123t-43 -115.5t-53.5 -110h-213zM446 1042q29 57 53.5 116t40 119t17.5 121.5t-12 125.5h227q12 -70 7 -133.5t-22.5 -123t-43 -115.5t-54.5 -110h-213z" />
<glyph unicode="&#x2022;" d="M293 209v579h495v-579h-495z" />
<glyph unicode="&#x2026;" horiz-adv-x="1523" d="M135 295h242l2 -295h-242zM657 295h242l2 -295h-242zM1180 295h241l2 -295h-241z" />
<glyph unicode="&#x202f;" horiz-adv-x="323" />
<glyph unicode="&#x205f;" horiz-adv-x="404" />
<glyph unicode="&#x20ac;" horiz-adv-x="1181" d="M104 418v176h113q0 6 -1 31.5t-1 48.5q0 18 1 40.5t1 30.5h-113v179h125q14 127 49 214t93.5 140t146.5 76.5t211 23.5q66 0 131.5 -6t118.5 -14q61 -8 115 -19l-15 -190q-57 4 -112 10q-47 4 -103.5 8t-103.5 4q-154 0 -216.5 -61t-72.5 -188h479v-177h-495 q0 -8 -1 -30.5t-1 -40.5q0 -23 1 -48.5t1 -31.5h495v-176h-479q6 -59 23.5 -102.5t51.5 -73t88 -44t132 -14.5q41 0 96.5 3t104.5 8q57 4 116 10l9 -193q-59 -10 -121 -18q-53 -6 -118 -11.5t-124 -5.5q-125 0 -215 32t-149.5 89.5t-92 139t-43.5 180.5h-125z" />
<glyph unicode="&#x2122;" d="M12 1167v142h410v-142h-100v-487h-158v487h-152zM477 678v631h189l102 -357l109 357h188v-631h-147v391l-93 -352h-104l-96 352v-391h-148z" />
<glyph unicode="&#x25fc;" horiz-adv-x="1020" d="M0 0v1020h1020v-1020h-1020z" />
<glyph unicode="&#xfb01;" horiz-adv-x="1216" d="M49 827v195h111v68q0 207 72.5 292.5t222.5 85.5q27 0 61.5 -3t67.5 -7q37 -6 75 -10l-4 -186l-51 4q-23 2 -50.5 4t-49.5 2q-70 0 -95.5 -46t-25.5 -139v-65h262v-195h-262v-827h-223v827h-111zM841 1022h224l2 -1022h-223zM841 1184v235h224v-235h-224z" />
<glyph unicode="&#xfb02;" horiz-adv-x="1220" d="M49 827v195h111v68q0 207 72.5 292.5t222.5 85.5q27 0 61.5 -3t67.5 -7q37 -6 75 -10l-4 -186l-51 4q-23 2 -50.5 4t-49.5 2q-70 0 -95.5 -46t-25.5 -139v-65h262v-195h-262v-827h-223v827h-111zM844 1448h223l2 -1448h-223z" />
<glyph unicode="&#xfb03;" horiz-adv-x="1910" d="M49 827v195h111v68q0 207 72.5 292.5t222.5 85.5q27 0 61.5 -3t67.5 -7q37 -6 75 -10l-4 -186l-51 4q-23 2 -50.5 4t-49.5 2q-70 0 -95.5 -46t-25.5 -139v-65h262v-195h-262v-827h-223v827h-111zM743 827v195h111v68q0 207 72.5 292.5t222.5 85.5q27 0 61.5 -3t67.5 -7 q37 -6 75 -10l-4 -186l-51 4q-23 2 -50.5 4t-49.5 2q-70 0 -95.5 -46t-25.5 -139v-65h262v-195h-262v-827h-223v827h-111zM1536 1022h224l2 -1022h-223zM1536 1184v235h224v-235h-224z" />
<glyph unicode="&#xfb04;" horiz-adv-x="1914" d="M49 827v195h111v68q0 207 72.5 292.5t222.5 85.5q27 0 61.5 -3t67.5 -7q37 -6 75 -10l-4 -186l-51 4q-23 2 -50.5 4t-49.5 2q-70 0 -95.5 -46t-25.5 -139v-65h262v-195h-262v-827h-223v827h-111zM743 827v195h111v68q0 207 72.5 292.5t222.5 85.5q27 0 61.5 -3t67.5 -7 q37 -6 75 -10l-4 -186l-51 4q-23 2 -50.5 4t-49.5 2q-70 0 -95.5 -46t-25.5 -139v-65h262v-195h-262v-827h-223v827h-111zM1539 1448h223l2 -1448h-223z" />
</font>
</defs>
</svg>
