<?xml version="1.0" standalone="no"?>
<!DOCTYPE svg PUBLIC "-//W3C//DTD SVG 1.1//EN" "http://www.w3.org/Graphics/SVG/1.1/DTD/svg11.dtd" >
<svg xmlns="http://www.w3.org/2000/svg">
<metadata></metadata>
<defs>
<font id="panefresco_999wtitalic" horiz-adv-x="1085" >
<font-face units-per-em="2048" ascent="1536" descent="-512" />
<missing-glyph horiz-adv-x="542" />
<glyph horiz-adv-x="0" />
<glyph unicode="&#xd;" horiz-adv-x="682" />
<glyph unicode=" "  horiz-adv-x="542" />
<glyph unicode="&#x09;" horiz-adv-x="542" />
<glyph unicode="&#xa0;" horiz-adv-x="542" />
<glyph unicode="!" d="M410 0l75 340h295l-75 -340h-295zM537 532l196 902h303l-217 -902h-282z" />
<glyph unicode="&#x22;" horiz-adv-x="727" d="M276 901l115 512h264l-129 -512h-250zM641 901l115 512h264l-129 -512h-250z" />
<glyph unicode="#" d="M78 338l51 229h197l51 217h-197l53 230h197l78 338h237l-77 -338h213l77 338h238l-78 -338h197l-53 -230h-197l-51 -217h196l-51 -229h-196l-76 -338h-238l76 338h-213l-76 -338h-237l75 338h-196zM563 567h213l51 217h-213z" />
<glyph unicode="$" d="M141 20l68 236q35 -6 81 -11l95 -11q49 -5 99.5 -8t93.5 -3l84 369l-113 61q-57 33 -104.5 74t-78 92t-30.5 119q0 80 31.5 155.5t95 136t158 100.5t219.5 48l55 240h106l-55 -240q72 -4 153 -16t187 -31l-59 -229q-86 12 -164 20t-172 11l-78 -336q55 -29 110.5 -60.5 t101.5 -71.5t74.5 -90.5t28.5 -115.5q0 -209 -128 -336t-371 -143l-51 -226l-105 15l47 208q-102 4 -206.5 15.5t-172.5 27.5zM612 963q0 -35 30 -62t77 -55l63 282q-47 -8 -79.5 -25.5t-53 -41t-29 -48.5t-8.5 -50zM686 233q59 18 108.5 65.5t49.5 119.5q0 35 -24.5 64.5 t-63.5 56.5z" />
<glyph unicode="%" d="M201 12l841 1463l162 -62l-842 -1462zM272 1139q35 150 115 223.5t199 73.5t166 -74t12 -223q-35 -150 -116 -224.5t-199 -74.5q-119 0 -165.5 74.5t-11.5 224.5zM458 1035.5q1 -31.5 29 -31.5q29 0 44.5 31.5t31.5 103.5t15.5 102.5t-29.5 30.5t-44.5 -31t-31.5 -102 q-16 -72 -15 -103.5zM655 299q35 150 116 223.5t200 73.5t165 -73.5t11 -223.5t-114 -224.5t-197 -74.5q-119 0 -167.5 74.5t-13.5 224.5zM841 195.5q1 -31.5 29 -31.5q29 0 44.5 31.5t31.5 103.5t15.5 102.5t-29.5 30.5t-44.5 -30.5t-31.5 -102.5t-15 -103.5z" />
<glyph unicode="&#x26;" horiz-adv-x="1433" d="M162 426q14 68 51 128t88 110.5t112.5 89.5t127.5 65q-20 41 -33.5 75t-19 68.5t-2.5 73.5t16 90q18 80 61 141.5t105.5 102.5t140.5 62.5t164 21.5q94 0 170 -21.5t124 -65.5t66.5 -109.5t-2.5 -153.5q-16 -70 -46 -125t-77 -104.5t-111.5 -96.5t-148.5 -100l125 -170 q8 16 26.5 49t37.5 71l35 72q17 35 24 54l264 -6q-18 -47 -46 -103.5t-58 -113.5l-60 -106l-49 -85l162 -193l-195 -178l-151 162q-68 -43 -126 -72.5t-117.5 -48t-125 -27t-147.5 -8.5q-236 0 -336 115t-49 336zM432 426q-23 -92 19.5 -146.5t148.5 -54.5q80 0 147.5 17.5 t149.5 54.5l-238 338q-37 -12 -74.5 -34.5t-69.5 -50.5t-54.5 -59.5t-28.5 -64.5zM759 971.5q5 -47.5 42 -94.5l24 -33q94 59 148.5 108t70.5 121q16 66 -13.5 99.5t-94.5 33.5q-61 0 -106.5 -30t-59.5 -91q-16 -66 -11 -113.5z" />
<glyph unicode="'" horiz-adv-x="204" d="M170 901l115 512h262l-129 -512h-248z" />
<glyph unicode="(" horiz-adv-x="532" d="M109 307.5q6 155.5 41 308.5q18 76 44.5 157t58.5 160t68 153l70 143q80 158 170 307h299q-90 -156 -170 -315q-35 -68 -69.5 -144t-66.5 -154.5t-58.5 -156.5t-42.5 -150t-25.5 -147.5t-13.5 -150t-3 -146.5t5 -135q8 -150 30 -293h-299q-27 135 -34 283 q-10 125 -4 280.5z" />
<glyph unicode=")" horiz-adv-x="532" d="M-61 -246q88 156 165 316l68 143q35 76 65.5 153.5t57.5 155.5t43 152q33 143 39 296.5t0 282.5q-8 150 -29 293h297q27 -137 35 -282q8 -127 2 -282t-41 -308q-18 -78 -45 -158t-58.5 -160t-67.5 -154l-69 -143q-80 -158 -170 -305h-292z" />
<glyph unicode="*" d="M379 926l233 147l-161 141l151 160l156 -133l135 225l172 -65l-129 -221h235l-45 -199h-235l24 -225l-200 -58l-25 230l-229 -152z" />
<glyph unicode="+" d="M170 430l61 270h334l80 344h279l-80 -344h338l-62 -270h-338l-80 -344h-278l80 344h-334z" />
<glyph unicode="," horiz-adv-x="348" d="M-68 -252l87 118q44 58 78 120.5t51.5 135.5t7.5 159h295q12 -80 -2.5 -151t-50.5 -136.5t-87 -126t-108 -119.5h-271z" />
<glyph unicode="-" horiz-adv-x="901" d="M238 424l59 258h614l-59 -258h-614z" />
<glyph unicode="." horiz-adv-x="507" d="M92 0l76 340h295l-76 -340h-295z" />
<glyph unicode="/" d="M121 41l911 1434l242 -91l-912 -1433z" />
<glyph unicode="0" d="M137 334q-6 133 41 334q45 199 113.5 335t154.5 219t189.5 118.5t222.5 35.5t206 -35.5t135 -118.5t52 -219.5t-41 -334.5q-47 -201 -113.5 -334t-152.5 -213t-188.5 -113t-220.5 -33q-119 0 -206 33t-136.5 113t-55.5 213zM445 460q-7 -83 7.5 -133.5t50.5 -70.5t93 -20 t102 20t82 70.5t68 133.5t59 208q29 125 37 210t-5 138t-48 76.5t-92 23.5t-103.5 -23.5t-84.5 -76.5t-69.5 -138t-60.5 -210t-36 -208z" />
<glyph unicode="1" d="M309 1057l500 295h262l-309 -1352h-283l234 1026l-324 -190z" />
<glyph unicode="2" d="M100 0l56 252l354 283q162 133 253 229t114 194q18 78 -23 118t-152 40q-53 0 -111.5 -6t-107.5 -14q-57 -8 -112 -21l41 248q68 14 139 27q61 10 136 18t147 8q217 0 300 -105.5t40 -295.5q-18 -78 -45 -139.5t-71 -119t-109.5 -118.5t-162.5 -139l-254 -195h496 l-57 -264h-871z" />
<glyph unicode="3" d="M106 23l82 239l136 -12q57 -4 120.5 -7t114.5 -3q199 0 238 161q16 76 -25 113t-127 37h-262l55 246h262q35 0 68 15t60.5 40t47 53.5t25.5 52.5q18 80 -29 117t-129 37q-59 0 -121 -5l-114 -9l-115 -13l31 238q70 14 139 27q59 10 130 18t132 8q252 0 335 -97t40 -286 q-27 -111 -82 -171t-141 -109q37 -23 64.5 -49.5t43 -63.5t16.5 -86t-16 -117q-49 -215 -181 -318.5t-365 -103.5q-76 0 -153 6.5t-138 16.5q-74 10 -142 25z" />
<glyph unicode="4" d="M96 219l54 225l550 908h308l-531 -871h246l80 353h282l-79 -353h124l-61 -262h-125l-55 -239h-283l56 239h-566z" />
<glyph unicode="5" d="M88 43l88 242q72 -14 143 -25q61 -10 134 -17t139 -7q76 0 134 45t81 143q41 178 -137 178q-47 0 -85 -5t-67 -11l-59 -15l-207 47l215 736h805l-62 -264h-551l-94 -269q35 10 72 19l64 12q34 6 59 6q102 0 178 -23.5t121 -74.5t56 -130t-13 -190q-27 -119 -79 -206 t-125 -144t-163 -86t-192 -29q-80 0 -161 10.5t-146 22.5q-78 14 -148 35z" />
<glyph unicode="6" d="M207 670q45 201 117.5 337t165 218t202 116.5t232.5 34.5q57 0 123.5 -7t126.5 -15q68 -10 135 -23l-82 -248q-57 6 -121 15q-53 6 -118.5 11t-125.5 5q-133 0 -215 -80t-119 -235l25 9q25 9 63.5 21.5t85 22.5t89.5 10q106 0 185 -24.5t125 -77.5t58 -135t-14 -197 q-53 -229 -207 -341t-383 -112q-256 0 -341 178.5t-7 516.5zM457 449.5q-2 -62.5 12 -110.5t49 -78t96 -30q92 0 154.5 49.5t85.5 147.5q23 96 -17 142t-128 46q-41 0 -82 -6t-76 -12q-39 -8 -76 -18q-16 -68 -18 -130.5z" />
<glyph unicode="7" d="M213 37l678 995l12 55h-545l62 267h844l-74 -322l-725 -1069z" />
<glyph unicode="8" d="M126.5 191.5q-20.5 76.5 4.5 183.5q14 61 39 109t57.5 87t70.5 69t77 56q-35 35 -55.5 70t-28.5 73t-5 82t15 97q20 88 72.5 154.5t127 112.5t169 69.5t196.5 23.5q100 0 183.5 -26.5t136.5 -75.5t74.5 -120t1.5 -159q-14 -61 -29.5 -102t-39.5 -74t-59.5 -61.5 t-86.5 -63.5q70 -53 94 -128.5t-2 -188.5q-25 -106 -81.5 -183t-136 -127.5t-178 -74t-204.5 -23.5t-192.5 22.5t-143 72t-77 126zM442 410q-41 -183 156 -183q98 0 161.5 44t86.5 139q10 49 -5.5 90t-70.5 63h-180q-70 -25 -103.5 -64.5t-44.5 -88.5zM592 963 q-10 -49 1 -87t52 -73h180q57 35 87 72.5t40 87.5q18 78 -19.5 118.5t-123.5 40.5t-142.5 -41t-74.5 -118z" />
<glyph unicode="9" d="M88 20l80 244q57 -8 121 -16q53 -6 117.5 -10.5t125.5 -4.5q133 0 216 84t118 226l-26 -8q-27 -8 -67 -18.5t-85 -19t-82 -8.5q-102 0 -179 30t-124 86.5t-60.5 140t11.5 194.5t81 194t134 136t172 79.5t199 26.5q248 0 338 -178t10 -528q-47 -201 -119 -335t-164 -214 t-200.5 -113t-231.5 -33q-57 0 -123.5 6.5t-126.5 16.5q-68 8 -135 22zM543 924q-23 -94 18 -139.5t127 -45.5q41 0 82 4.5t76 10.5l74 16q18 76 19 140.5t-15.5 111.5t-51 72.5t-90.5 25.5q-86 0 -151.5 -51t-87.5 -145z" />
<glyph unicode=":" horiz-adv-x="471" d="M72 0l75 340h295l-75 -340h-295zM205 592l80 340h295l-80 -340h-295z" />
<glyph unicode=";" horiz-adv-x="493" d="M-45 -231l252 553h295l-295 -553h-252zM248 592l80 340h295l-80 -340h-295z" />
<glyph unicode="&#x3c;" d="M270 444l66 287l797 373l-66 -287l-494 -225l388 -232l-66 -286z" />
<glyph unicode="=" d="M145 195l62 266h874l-61 -266h-875zM248 631l61 266h875l-62 -266h-874z" />
<glyph unicode="&#x3e;" d="M205 74l65 286l494 232l-387 225l65 287l625 -373l-66 -287z" />
<glyph unicode="?" horiz-adv-x="790" d="M205 0l71 319h295l-71 -319h-295zM303 1139l27 245l143 39q59 14 126 26.5t116 12.5q113 0 191.5 -21.5t121.5 -68.5t52.5 -124.5t-17.5 -190.5q-16 -72 -54 -132.5t-86.5 -111.5t-99.5 -93l-95 -79q-44 -37 -75.5 -69.5t-38.5 -63.5l-18 -78h-279q0 25 2 47l5 41 q2 20 6 37q16 74 80.5 139.5t136.5 121.5l132 107q60 50 71 97q8 37 11 65.5t-9.5 48t-44 28.5t-91.5 9q-41 0 -94 -5t-102 -11z" />
<glyph unicode="@" horiz-adv-x="2017" d="M166.5 102.5q-21.5 182.5 36.5 432.5q55 244 161.5 424t257 298.5t341 177t411.5 58.5q438 0 618.5 -224.5t84.5 -643.5l-9 -35q-39 -168 -92 -285t-119.5 -188.5t-147.5 -104t-177 -32.5q-92 0 -151.5 21.5t-94.5 66.5q-33 -14 -74 -29.5t-85 -28t-88 -20.5t-83 -8 q-188 0 -253.5 134t-10.5 380q29 125 69 225t100.5 172t145.5 110.5t203 38.5q23 0 52.5 -7t58.5 -15l70 -23l6 27h274l-94 -410q-29 -125 -41 -197.5t-9 -110.5t20.5 -49t45.5 -11q31 0 56.5 13t49 51t46 105.5t47.5 174.5l8 37q39 164 29 278.5t-70.5 185t-172 102.5 t-273.5 32q-336 0 -546 -176.5t-288 -513.5q-43 -186 -38 -317.5t65.5 -215.5t179.5 -123t305 -39q31 0 81 2t99 6q55 4 119 11l-51 -267q-61 -6 -119 -10q-49 -4 -101 -7t-89 -3q-227 0 -391 56.5t-257.5 174t-115 300zM958 305.5q18 -53.5 84 -53.5q47 0 99.5 9t97.5 22 q4 47 12.5 98t22.5 111l61 270q-25 4 -47 10q-20 4 -40.5 7t-35.5 3q-55 0 -92 -12t-63.5 -45t-46 -88t-39.5 -141q-31 -137 -13 -190.5z" />
<glyph unicode="A" horiz-adv-x="1239" d="M51 0l518 1149q133 264 420 264h211l-12 -1413h-270l-11 244h-458l-107 -244h-291zM565 504h350l19 663q-29 -2 -58.5 -18t-54.5 -68z" />
<glyph unicode="B" horiz-adv-x="1239" d="M154 0l323 1413h502q88 0 166 -21.5t130 -67.5t75 -116q11 -35 11 -76t-11 -90q-16 -70 -36 -117.5t-47.5 -84.5t-63.5 -63.5t-83 -53.5q86 -41 112 -119q12 -35 12 -83q0 -58 -17 -134q-25 -104 -76 -178t-123 -120t-160 -67.5t-184 -21.5h-530zM487 252h238 q72 0 133.5 41t81.5 129q6 25 6 46q0 15 -3 28q-7 31 -26.5 51t-49 30.5t-64.5 10.5h-238zM621 829h231q68 0 123 45.5t76 129.5q6 26 6 47q0 45 -27 71q-39 39 -104 39h-230z" />
<glyph unicode="C" horiz-adv-x="1083" d="M203 347q0 23 2 48q8 139 51 324q45 199 106.5 337t144.5 222t190.5 122t246.5 38q57 0 124 -7.5t126 -17.5q68 -10 135 -24l-65 -246l-138 12l-112 8q-57 4 -92 4q-74 0 -130.5 -19.5t-100.5 -71.5t-80 -141t-68 -228q-31 -131 -38 -220q-2 -24 -2 -45q0 -58 14 -97 q19 -54 67.5 -76.5t132.5 -22.5q31 0 88 3t115 7q68 6 143 12l-53 -252q-76 -12 -150 -20q-63 -8 -132 -14.5t-122 -6.5q-154 0 -244 47.5t-128 140.5q-31 77 -31 184z" />
<glyph unicode="D" horiz-adv-x="1282" d="M154 0l323 1413h455q174 0 277.5 -43t149.5 -129q42 -79 42 -195v-21q-4 -130 -45 -304q-41 -180 -96.5 -315.5t-139.5 -225.5t-208 -135t-304 -45h-454zM489 260h177q94 0 159.5 33t109.5 94.5t74.5 149t55.5 196.5q25 106 33 187q2 19 2 35v11q0 49 -13 85 q-18 51 -70 76.5t-147 25.5h-176z" />
<glyph unicode="E" horiz-adv-x="1132" d="M216 333q0 44 11 93q18 78 40 130t51.5 87t70.5 56.5t98 37.5q-25 25 -46 51.5t-33.5 63.5t-12.5 86t19 119q25 96 76 163.5t120.5 110.5t152.5 62.5t171 19.5h418l-56 -260h-413q-66 0 -122 -35t-79 -114q-8 -32 -8 -60q0 -44 20 -76q33 -51 101 -51h301l-60 -244h-307 q-35 0 -70.5 -8t-66.5 -25.5t-55.5 -46t-34.5 -71.5q-8 -31 -8 -56q0 -45 26 -70q41 -38 121 -38h446l-57 -258h-424q-96 0 -176 33t-132 89t-73 134q-9 34 -9 70v7z" />
<glyph unicode="F" horiz-adv-x="1101" d="M154 0l323 1413h877l-62 -262h-598l-98 -424h475l-57 -254h-475l-107 -473h-278z" />
<glyph unicode="G" horiz-adv-x="1218" d="M211 386v24q4 139 45 317q43 190 105.5 325.5t148.5 220.5t199.5 125t261.5 40q72 0 153.5 -7.5t151.5 -17.5q82 -10 158 -24l-64 -244l-145 12l-136 9q-73 5 -135 5q-84 0 -146.5 -20.5t-110.5 -72.5t-85 -141t-67 -226q-31 -133 -38 -224q-2 -23 -2 -44q0 -60 15 -101 q20 -55 71.5 -78.5t139.5 -23.5q86 0 125 25.5t59 90.5l41 170h-168l56 244h446l-90 -387q-23 -76 -47.5 -142.5t-58 -118.5t-76.5 -87t-100 -43q-72 -10 -145 -13.5t-130 -3.5q-158 0 -254 50.5t-139 147.5q-39 89 -39 213z" />
<glyph unicode="H" horiz-adv-x="1357" d="M154 0l323 1413h279l-131 -563h493l131 563h279l-324 -1413h-278l133 590h-494l-133 -590h-278z" />
<glyph unicode="I" horiz-adv-x="569" d="M143 0l324 1413h283l-324 -1413h-283z" />
<glyph unicode="J" horiz-adv-x="643" d="M37 -141l57 247q80 4 120 34t56 100l271 1173h276l-270 -1177q-25 -109 -61.5 -181.5t-95 -115.5t-144.5 -61.5t-209 -18.5z" />
<glyph unicode="K" horiz-adv-x="1210" d="M154 0l323 1413h279l-138 -602l72 10q119 29 197 80t127 125t72.5 171t35.5 216h271q-10 -143 -40 -256t-75 -201t-106.5 -153.5t-137.5 -112.5l146 -690h-301l-111 582q-53 -16 -106 -25l-107 -14l-123 -543h-278z" />
<glyph unicode="L" horiz-adv-x="993" d="M154 0l323 1413h279l-267 -1149h490l-57 -264h-768z" />
<glyph unicode="M" horiz-adv-x="1736" d="M154 0l256 1122q39 133 120.5 211t219.5 80h168l24 -1038l391 803q57 121 138 177t184 58h252l-324 -1413h-278l245 1077q-16 0 -34.5 -18.5t-34.5 -59.5l-365 -745q-45 -92 -94 -141.5t-102 -51.5h-181l-30 1016q-16 -2 -26.5 -21.5t-20.5 -49.5l-230 -1006h-278z" />
<glyph unicode="N" horiz-adv-x="1435" d="M154 0l323 1413h205q53 0 99 -12t83 -43t60.5 -83t31.5 -134l80 -793q2 -27 6.5 -40t20.5 -19l260 1124h283l-324 -1413h-227q-115 4 -170.5 66.5t-69.5 173.5l-96 835q-2 31 -6 43t-19 10l-258 -1128h-282z" />
<glyph unicode="O" horiz-adv-x="1318" d="M211 386v11q2 137 43 316q41 178 102.5 313t149.5 227.5t206.5 138.5t276.5 46q156 0 252 -50.5t141 -147.5q42 -91 43 -219q0 -9 -1 -17q-3 -139 -44 -318q-41 -178 -101 -311t-147.5 -222.5t-206 -133.5t-274.5 -44q-158 0 -254 48.5t-142 142.5q-44 90 -44 220z M504 446q0 -60 15 -102q19 -55 66.5 -81.5t125.5 -26.5t137 26.5t104 81.5t79 142t63 210q36 153 36 258q0 61 -13 105q-34 119 -189 119q-78 0 -137.5 -30t-105.5 -89.5t-81 -149.5t-63 -213q-29 -123 -35 -210q-1 -21 -2 -40z" />
<glyph unicode="P" horiz-adv-x="1212" d="M154 0l323 1413h492q231 0 334 -129q65 -82 65 -210q0 -78 -20 -167q-57 -248 -219 -376t-394 -128h-209l-90 -403h-282zM586 662h207q106 0 174.5 70.5t95.5 187.5q11 47 11 85q0 54 -22 90q-38 60 -145 60h-207z" />
<glyph unicode="Q" horiz-adv-x="1318" d="M214 393v18q3 140 44 318t101.5 311.5t148.5 221.5t205.5 132t275.5 44q156 0 253 -52.5t142 -150.5q42 -92 43 -222q0 -9 -1 -18q-3 -141 -44 -319q-53 -229 -144 -380t-226 -237l27 -99q13 -50 32 -92t42.5 -71.5t57.5 -38.5l-114 -250q-70 18 -117 65.5t-81 112 t-58.5 141.5t-46.5 155q-23 -2 -51.5 -4.5t-51.5 -2.5q-158 0 -254 51.5t-141 147.5q-42 90 -42 219zM506 452q0 -65 15 -108q38 -108 190 -108q78 0 137 26.5t104 81.5t79 142t63 210q36 153 36 258q0 61 -13 105q-34 119 -189 119q-78 0 -137.5 -30t-105.5 -89.5 t-81 -149.5t-63 -213q-35 -147 -35 -244z" />
<glyph unicode="R" horiz-adv-x="1253" d="M154 0l323 1413h496q117 0 206 -27.5t142 -86t69 -149.5q5 -32 5 -68q0 -67 -19 -148q-18 -78 -47 -138.5t-67.5 -108.5t-85 -84t-101.5 -66l94 -537h-297l-71 467l-56 -2h-208l-105 -465h-278zM594 717h242q92 0 159 63.5t90 159.5q9 36 9 66q0 56 -30 92 q-46 55 -132 55h-238z" />
<glyph unicode="S" d="M129 23l72 245q41 -6 95 -13t112.5 -11t115 -7.5t101.5 -3.5q39 0 81 14.5t76.5 40t57 63.5t22.5 85t-39 84t-98 71t-128 68.5t-128 79.5t-98 102.5t-39 137.5q0 88 37 171t110.5 147.5t183 103.5t255.5 39q88 0 181 -14.5t224 -36.5l-63 -240q-98 14 -189.5 22.5 t-210.5 8.5q-68 0 -114 -16.5t-73.5 -42t-39.5 -57.5t-12 -60q0 -41 39.5 -73t99.5 -64l129 -66q70 -35 129 -80t99 -103.5t40 -138.5q0 -231 -150.5 -366.5t-437.5 -135.5q-57 0 -118.5 3.5t-120 9.5t-110.5 14t-91 19z" />
<glyph unicode="T" horiz-adv-x="983" d="M276 1141l64 272h950l-63 -272h-332l-260 -1141h-279l260 1141h-340z" />
<glyph unicode="U" horiz-adv-x="1323" d="M225 284q0 81 25 187l217 942h281l-218 -942q-11 -49 -11 -86q0 -58 28 -87q45 -48 170 -48t192.5 49t96.5 172l217 942h280l-217 -942q-31 -131 -82 -223t-127 -151.5t-181 -87t-243 -27.5q-139 0 -230 27.5t-140.5 87t-56.5 151.5q-1 17 -1 36z" />
<glyph unicode="V" horiz-adv-x="1255" d="M375 0v1413h287l-27 -1159q72 0 115 98l471 1061h307l-549 -1188q-66 -119 -162 -170t-221 -55h-221z" />
<glyph unicode="W" horiz-adv-x="1927" d="M344 0l39 1413h289l-66 -1165q2 -1 4 -1q21 0 47 56l367 879q45 111 104.5 161t133.5 50h172l-50 -1145q2 0 5 -1q28 0 53 70l444 1096h305l-516 -1198q-45 -104 -122.5 -159.5t-200.5 -55.5h-209l51 1018l-322 -795q-29 -68 -63.5 -111.5t-75.5 -68.5t-86 -34t-92 -9 h-211z" />
<glyph unicode="X" horiz-adv-x="1189" d="M41 0l539 700l-215 713h301l122 -510l359 510h323l-540 -713l217 -700h-301l-127 498l-354 -498h-324z" />
<glyph unicode="Y" horiz-adv-x="1169" d="M354 1413h291l123 -512l358 512h336l-598 -809l-137 -604h-278l137 604z" />
<glyph unicode="Z" horiz-adv-x="1167" d="M137 0v17q0 111 49 206q53 102 138 195l557 645q27 27 41 47t16 39h-543l62 264h899q2 -18 2 -37q0 -77 -41 -161q-51 -103 -146 -214l-550 -639q-55 -59 -66 -98h537l-58 -264h-897z" />
<glyph unicode="[" horiz-adv-x="614" d="M0 -252l408 1786h518l-62 -270h-235l-287 -1246h236l-64 -270h-514z" />
<glyph unicode="\" horiz-adv-x="1081" d="M399 1438h287l299 -1438h-285z" />
<glyph unicode="]" horiz-adv-x="614" d="M-12 -252l59 270h236l286 1246h-235l61 270h518l-413 -1786h-512z" />
<glyph unicode="^" d="M174 641l535 711h286l207 -711h-287l-122 440l-332 -440h-287z" />
<glyph unicode="_" d="M-41 -424l53 250h975l-57 -250h-971z" />
<glyph unicode="`" horiz-adv-x="1116" d="M485 1327l150 260l483 -188l-135 -232z" />
<glyph unicode="a" horiz-adv-x="1081" d="M173 287q0 33 4 67q11 100 40 193q154 495 549 495h2q59 0 108.5 -6t81.5 -16l203 29l-172 -756q-1 -8 -1 -15q0 -28 19 -46q24 -22 64 -29l-65 -223q-104 4 -170 29.5t-95 66.5q-23 -14 -57.5 -31.5t-75.5 -32t-84 -25t-80 -10.5q-115 0 -175 54.5t-82 138.5 q-14 55 -14 117zM433 349q0 -15 1 -28q4 -38 22.5 -64t59.5 -26q59 0 127 30t109 79l98 461q-18 4 -49 5t-49 1q-104 0 -176 -85t-119 -239q-12 -37 -20 -81q-4 -23 -4 -45v-8z" />
<glyph unicode="b" horiz-adv-x="1118" d="M145 2l330 1432h275l-111 -482q63 39 131 64.5t127 25.5q115 0 175.5 -54t81.5 -138q14 -55 14 -117q0 -33 -4 -67q-11 -100 -40 -193q-154 -496 -551 -496q-29 0 -98 5l-143 8q-86 6 -187 12zM473 221q61 -12 117 -12q104 0 176 87t119 241q12 37 19 81q5 29 5 55 q0 15 -2 29q-4 39 -23.5 65t-58.5 26q-27 0 -60.5 -8.5t-67 -24t-65.5 -34.5t-54 -40z" />
<glyph unicode="c" horiz-adv-x="892" d="M173 287q0 33 4 67q11 100 40 193q154 495 549 495h2q33 0 71 -3t74.5 -9t69.5 -15t55 -22l-63 -231q-14 8 -41 16t-57.5 14.5t-64.5 10.5t-60 4q-104 0 -176 -85t-119 -239q-12 -37 -20 -82q-5 -29 -4 -54q0 -15 1 -30q4 -39 22.5 -64.5t59.5 -25.5q59 0 131 32t113 81 l74 -211q-37 -35 -83 -62.5t-97.5 -48t-104.5 -31t-105 -10.5q-115 0 -175 54.5t-82 138.5q-14 55 -14 117z" />
<glyph unicode="d" horiz-adv-x="1118" d="M173 287q0 33 4 67q11 100 40 193q154 495 549 495h2q37 0 78 -8t82 -18l96 418h274l-327 -1434h-275l17 72q-66 -41 -136.5 -68t-132.5 -27q-115 0 -175 54.5t-82 138.5q-14 55 -14 117zM433 347q0 -15 1 -30q4 -39 22.5 -64.5t59.5 -25.5q29 0 64.5 9.5t71.5 26t69 38 t53 45.5l103 442q-33 10 -65 16.5t-60 6.5q-104 0 -176 -87t-119 -241q-12 -37 -20 -82q-4 -24 -4 -46v-8z" />
<glyph unicode="e" horiz-adv-x="1038" d="M180 311q0 104 29 215q33 131 92 227.5t134 161t157 96t162 31.5q158 0 245.5 -72.5t87.5 -189.5q0 -33 -7 -71.5t-22.5 -76.5t-42 -74t-63.5 -64q-55 -43 -125.5 -71t-142.5 -45.5t-138.5 -25.5t-115.5 -10q-6 -25 -3 -48.5t15.5 -43t37 -31.5t61.5 -12q39 0 91 11 t104 29.5t99.5 41t79.5 45.5v-236q-25 -16 -67.5 -36.5t-96 -39t-115 -30.5t-122.5 -12q-180 0 -257 88t-77 243zM473 551q57 6 123 16.5t121 30.5t92 55t37 90q0 31 -26 49.5t-77 18.5q-35 0 -72.5 -16.5t-74.5 -49t-68.5 -82t-54.5 -112.5z" />
<glyph unicode="f" horiz-adv-x="702" d="M-129 -281q80 39 127 68t75.5 58.5t43 68.5t28.5 98l179 772h-101l56 238h100l10 47q47 207 140.5 296t246.5 89q25 0 61.5 -5t71.5 -9q39 -6 84 -13l-55 -225l-47 4l-47 4q-25 2 -49 2q-59 0 -87 -38.5t-44 -106.5l-11 -45h238l-55 -238h-238l-178 -774 q-25 -106 -56.5 -181t-84 -131t-134.5 -104.5t-206 -101.5z" />
<glyph unicode="g" horiz-adv-x="1101" d="M119 -467l63 231l84 -8q35 -4 74 -5t68 -1q121 0 200.5 86t91.5 234q-12 -10 -38.5 -25.5t-58.5 -31t-63.5 -27t-56.5 -11.5q-215 0 -278 143q-29 65 -29 156q0 109 41 254q33 117 80 213.5t112.5 164t151.5 104.5t197 37q45 0 119 -5l145 -8q82 -6 176 -12l-229 -1012 q-59 -256 -191.5 -384t-347.5 -128q-59 0 -115.5 5t-99.5 12q-51 8 -96 18zM440 343q0 -21 3 -39q13 -77 104 -77q23 0 58.5 14.5t70.5 30.5l82 45l112 478q-27 2 -53 6q-23 2 -48.5 4t-43.5 2q-49 0 -87 -22.5t-66.5 -62.5t-52 -94.5t-46.5 -119.5q-33 -97 -33 -165z" />
<glyph unicode="h" horiz-adv-x="1148" d="M147 0l328 1434h275l-109 -469q57 35 123.5 58.5t138.5 23.5q100 0 158.5 -36t84.5 -103q22 -57 22 -135q0 -12 -1 -25q-4 -94 -30 -211l-121 -537h-275l121 539q12 49 19 96q3 24 3 44.5t-3 39.5q-6 37 -26.5 58.5t-63.5 21.5q-51 0 -109.5 -29t-99.5 -59l-160 -711 h-275z" />
<glyph unicode="i" horiz-adv-x="548" d="M137 0l234 1022h274l-233 -1022h-275zM397 1139l64 276h274l-63 -276h-275z" />
<glyph unicode="j" horiz-adv-x="555" d="M-131 -281q80 39 127 68t75.5 58.5t43 68.5t28.5 98l234 1010h274l-233 -1012q-25 -106 -56.5 -181t-84 -131t-134.5 -104.5t-206 -101.5zM403 1137l64 276h274l-63 -276h-275z" />
<glyph unicode="k" horiz-adv-x="1060" d="M147 0l328 1434h275l-185 -803l39 8q51 14 103.5 51t97.5 88t81 114.5t58 129.5h287q-47 -135 -132 -262t-225 -230l156 -530h-289l-123 395l-114 -28l-82 -367h-275z" />
<glyph unicode="l" horiz-adv-x="548" d="M137 0l328 1434h274l-327 -1434h-275z" />
<glyph unicode="m" horiz-adv-x="1734" d="M147 0l234 1022h272l-20 -100q18 18 50 39.5t70 40t78.5 32t77.5 13.5q72 0 136.5 -36t84.5 -96q31 18 78 42t100.5 43.5t106.5 33t94 13.5q168 0 220 -133q24 -62 24 -150q0 -99 -31 -229l-120 -535h-275l119 524l22 108q9 46 10 80q0 42 -20 64q-18 20 -63 21 q-61 0 -112 -28l-112 -64q-4 -29 -12 -58q-6 -25 -13 -56l-13 -61l-119 -530h-275l119 526q14 61 20 112q2 19 2 36q0 27 -6 49q-8 35 -32.5 54.5t-67.5 19.5q-51 0 -100 -37t-94 -80l-158 -680h-275z" />
<glyph unicode="n" horiz-adv-x="1148" d="M147 0l234 1022h274l-22 -104q18 18 53 40.5t76 42t83 33t79 13.5q88 0 143 -36t80 -104q21 -58 21 -135q0 -13 -1 -27q-4 -94 -30 -210l-121 -535h-275l121 535q12 51 21 98q6 33 6 61v8v15q-2 37 -19.5 58.5t-60.5 21.5q-51 0 -113.5 -31t-120.5 -84l-153 -682h-275z " />
<glyph unicode="o" d="M173 310q0 101 26 216q25 111 68.5 206t113.5 165t168 110t231 40t212 -44.5t115 -117.5q35 -72 35 -168q0 -100 -26 -215q-25 -111 -68.5 -207t-113.5 -167t-168 -112t-231 -41t-212 45.5t-115 119.5q-35 73 -35 170zM454 360q0 -33 7 -60q10 -40 41 -63.5t88 -23.5 t97 23.5t69.5 63.5t49 94.5t34.5 117.5q14 63 20 118q2 19 2 36q0 32 -7 58q-11 40 -41 62.5t-87 22.5t-98 -22.5t-70 -62.5t-49.5 -94.5t-34.5 -117.5t-19 -118q-2 -18 -2 -34z" />
<glyph unicode="p" horiz-adv-x="1118" d="M45 -430l336 1452h274l-16 -72q63 39 132 65.5t130 26.5q115 0 176.5 -55t82.5 -139q15 -57 15 -122q0 -31 -4 -63q-10 -101 -38 -194q-154 -492 -555 -492q-37 0 -78 7.5t-80 17.5l-101 -432h-274zM471 229q31 -10 62.5 -15t60.5 -5q104 0 176 87t119 241q12 37 19 81 q5 29 5 55q0 15 -2 29q-4 39 -23.5 65t-58.5 26q-29 0 -62.5 -9.5t-69 -25t-67.5 -36t-55 -42.5z" />
<glyph unicode="q" horiz-adv-x="1114" d="M173 287q0 33 4 67q11 100 40 193q154 494 551 500q31 -2 101.5 -5.5t144.5 -7.5q86 -6 186 -12l-334 -1452h-274l108 496q-63 -37 -129.5 -63t-126.5 -26q-115 0 -175 54.5t-82 138.5q-14 55 -14 117zM433 347q0 -15 1 -30q4 -39 22.5 -64.5t59.5 -25.5q27 0 59.5 8.5 t66.5 22.5t65.5 33.5t54.5 42.5l106 457q-31 10 -60.5 15t-55.5 5q-104 0 -176 -87t-119 -241q-12 -37 -20 -82q-4 -24 -4 -46v-8z" />
<glyph unicode="r" horiz-adv-x="737" d="M137 0l234 1022h274l-33 -123l51 40q28 22 64.5 41t84.5 36.5t112 30.5l-68 -295q-74 -12 -120 -23.5t-76.5 -23t-54.5 -25.5l-52 -33l-141 -647h-275z" />
<glyph unicode="s" horiz-adv-x="1017" d="M123 20l63 230q76 -10 144 -19q59 -6 120.5 -11t102.5 -5q66 0 102.5 23.5t44.5 56.5q2 7 2 14q0 32 -38 55q-47 28 -127 54q-47 14 -99.5 38.5t-92.5 63.5t-60 96q-11 30 -11 68q0 33 9 72q12 61 47 114.5t92 91t139 60t191 22.5q41 0 92 -5t100 -13t93 -17.5t71 -17.5 l-55 -219q-68 10 -135 19l-119 12q-61 6 -103 6q-61 0 -100 -22.5t-47 -51.5q-6 -23 2 -38t28.5 -25t51.5 -20.5t71 -22.5q61 -20 118 -49t96.5 -70t57.5 -95q9 -28 9 -60q0 -30 -8 -64q-16 -70 -49 -126t-89.5 -97t-139.5 -63.5t-199 -22.5q-47 0 -110.5 5t-123.5 13 q-68 8 -141 20z" />
<glyph unicode="t" horiz-adv-x="716" d="M211 194q0 72 22 171l95 415h-111l55 240h111l68 289h274l-68 -289h242l-55 -240h-242l-92 -401q-10 -45 -10 -77q0 -79 61 -79h47q25 0 47 2q25 0 52 2l-39 -221l-76 -16q-33 -6 -68 -10.5t-61 -4.5q-172 0 -224 92q-27 48 -28 127z" />
<glyph unicode="u" horiz-adv-x="1148" d="M210 244q0 101 32 243l125 535h274l-125 -535q-29 -131 -29 -196q0 -74 70 -74q31 0 66.5 13.5t69.5 33t62 40.5l46 36l160 682h274l-234 -1022h-274l16 98q-20 -16 -56 -37.5t-78 -40t-86 -32t-79 -13.5q-160 0 -211 124q-23 55 -23 138v7z" />
<glyph unicode="v" horiz-adv-x="991" d="M260 1022h272l-16 -801q23 -4 38 16.5t28 53.5l325 731h291l-383 -813q-57 -123 -145 -168q-81 -41 -176 -41h-17h-205z" />
<glyph unicode="w" horiz-adv-x="1536" d="M215 0l43 1022h260l-55 -774q23 -2 41 11t37 54l227 516q33 76 77 125.5t111 49.5h174l-20 -756q27 2 46.5 16.5t29.5 48.5l278 709h281l-330 -791q-43 -104 -125 -166.5t-225 -64.5h-184l26 627l-159 -387q-102 -233 -340 -240h-193z" />
<glyph unicode="x" horiz-adv-x="956" d="M31 0l393 510l-160 512h281l80 -317l229 317h305l-399 -512l166 -510h-281l-86 315l-223 -315h-305z" />
<glyph unicode="y" horiz-adv-x="993" d="M82 -270l142 64q54 26 90 53.5t60.5 63.5t51.5 91q-150 57 -152 268l-14 752h258l12 -660v-17q0 -61 27 -79l361 756h282l-485 -1012q-51 -106 -101.5 -181t-119 -131t-163.5 -104.5t-233 -101.5z" />
<glyph unicode="z" horiz-adv-x="976" d="M119 0v8q0 78 38 164q40 90 138 197l412 411h-412l57 244h740q2 -199 -166 -354l-428 -426h413l-53 -244h-739z" />
<glyph unicode="{" horiz-adv-x="694" d="M168 526l53 230q61 14 103.5 31.5t68 40t39.5 50t23 62.5q6 20 11 53l11 70l12 73q6 36 13 64q23 98 64.5 166t106 109t151.5 60t202 24l-61 -271q-47 -4 -78 -10t-49.5 -17.5t-27.5 -31t-17 -49.5q-6 -25 -11.5 -61t-11.5 -73l-11 -72q-5 -34 -11 -56 q-14 -61 -36 -105.5t-52.5 -75t-74.5 -53t-106 -41.5q104 -37 135 -102.5t2 -188.5q-4 -23 -13 -53l-19 -63l-21 -66q-10 -33 -16 -57q-6 -31 -6 -51.5t12 -34t38.5 -20.5t74.5 -11l-62 -270q-227 8 -315 88t-47 264q6 31 16 65.5t21.5 68.5t20.5 64.5t13 49.5q8 35 7 64.5 t-16 54t-48 45t-88 36.5z" />
<glyph unicode="|" d="M270 -512l473 2048h283l-473 -2048h-283z" />
<glyph unicode="}" horiz-adv-x="694" d="M-39 -283l57 271q47 4 77 10t48.5 17.5t28.5 31t16 49.5q6 25 13 61l12 73l11 72q5 34 12 56q14 61 34.5 105.5t52 75t75.5 53t106 41.5q-104 37 -135 102.5t-2 188.5q4 23 13 53l19 63l21 66q10 33 16 57q6 31 6 51.5t-12 34t-40 20.5t-73 11l62 270q227 -8 315 -88 t47 -264q-6 -31 -17 -65l-22 -69l-19 -65q-9 -31 -13 -49q-8 -35 -7 -64.5t16 -54t48 -45t88 -36.5l-53 -230q-61 -14 -103.5 -31.5t-69 -40t-40.5 -50t-23 -62.5q-4 -23 -9 -54l-11 -69l-12 -73q-6 -36 -13 -64q-23 -98 -64.5 -166t-105 -109t-150.5 -60.5t-200 -23.5z" />
<glyph unicode="~" d="M238 438l38 258q39 31 86 54q41 20 91.5 37.5t107.5 17.5q39 0 84 -14.5t90 -30.5l88 -31q43 -14 80 -14q29 0 69 11t75 28q41 18 83 41l-43 -256q-39 -33 -79 -56q-37 -20 -83 -36.5t-100 -16.5q-41 0 -89 14.5t-95 30.5l-90 31q-43 14 -72 14q-37 0 -80 -12t-77 -29 q-43 -18 -84 -41z" />
<glyph unicode="&#xa2;" horiz-adv-x="894" d="M139 512q53 223 177 329.5t300 121.5l48 206h229l-49 -217q31 -4 57.5 -7t48.5 -7q25 -4 47 -6l-63 -236q-47 0 -90 2q-37 2 -78 3t-70 1q-66 0 -111.5 -8t-78.5 -29.5t-53.5 -58.5t-34.5 -94q-12 -57 -9 -95t26.5 -59.5t66.5 -30t108 -8.5q29 0 70 1.5t78 3.5l90 4 l-45 -236q-23 -4 -49 -8q-23 -4 -52.5 -7t-62.5 -7l-51 -224h-230l50 213q-172 12 -247 120t-22 333z" />
<glyph unicode="&#xa3;" d="M111 0l55 254h110q35 2 63 26.5t46 88.5l68 295h-166l57 249h166l18 72q25 113 67 190.5t95 126t117.5 70t134.5 21.5q45 0 101.5 -8.5t109.5 -18.5q59 -10 123 -25l-70 -233l-106 8q-43 4 -85 6t-59 2q-70 0 -105.5 -31.5t-53.5 -111.5l-17 -68h375l-57 -249h-377 l-70 -302q-8 -49 -20.5 -72.5t-24.5 -35.5h256q43 4 81 12t69 21l-15 -250q-43 -23 -87 -28t-87 -7h-171q-91 0 -185 -1t-185 -1h-171z" />
<glyph unicode="&#xa5;" horiz-adv-x="1105" d="M156 264l53 230h317l17 65l-4 16h-312l54 230h198l-178 547h311l138 -494l364 494h313l-430 -547h193l-53 -230h-303l-9 -16l-16 -65h309l-53 -230h-309l-58 -264h-282l57 264h-317z" />
<glyph unicode="&#xa9;" d="M212.5 674.5q-16.5 99.5 8.5 212.5q27 115 89.5 215t150.5 174t193.5 117t217.5 43q117 0 204 -44t139.5 -120t66.5 -174.5t-10 -208.5q-27 -115 -87.5 -214.5t-147.5 -173t-194.5 -115.5t-226.5 -42q-111 0 -195.5 42t-138 115.5t-70 173zM332 723q12 -78 53 -135.5 t107.5 -91t154.5 -33.5q90 0 173 33.5t150.5 91t117 135.5t69.5 166t7 167t-54 137t-108.5 92t-155.5 34t-171 -34t-150.5 -92t-116 -137t-68.5 -167t-8 -166zM494 897q35 154 111.5 230.5t217.5 76.5q35 0 63.5 -2t49.5 -4q23 -4 41 -6l-45 -186q-18 2 -41 6q-20 2 -48 4 t-63 2q-47 0 -70.5 -37t-33.5 -84q-12 -53 -5 -95t50 -42q35 0 61.5 1t48.5 3q23 2 46 6l-41 -182l-43 -8q-23 -4 -51.5 -6.5t-63.5 -2.5q-141 0 -183 77t-1 249z" />
<glyph unicode="&#xad;" horiz-adv-x="901" d="M238 424l59 258h614l-59 -258h-614z" />
<glyph unicode="&#xae;" d="M178.5 666.5q-14.5 105.5 14.5 222.5q27 117 88 221t150 182t203 124t245 46q129 0 223 -45t150.5 -122.5t71.5 -182t-11 -223.5q-27 -117 -91.5 -221.5t-156.5 -183t-207 -125t-244 -46.5q-131 0 -223 46.5t-145 124t-67.5 183zM299.5 711q15.5 -84 59.5 -147.5 t117 -100.5t165 -37t181 37t163 100.5t128 147.5t77 178q23 98 7.5 182t-61.5 146.5t-118 98.5t-164 36q-94 0 -183 -36t-163 -98.5t-126 -146.5t-75 -182q-23 -94 -7.5 -178zM426 565l149 645h244q119 0 174.5 -45t28.5 -159q-18 -78 -47 -122t-86 -77l45 -242h-184 l-29 219h-74l-51 -219h-170zM674 913h78q82 0 102 82q18 84 -72 84h-69z" />
<glyph unicode="&#xb4;" horiz-adv-x="1204" d="M502 1401l571 188l29 -260l-572 -160z" />
<glyph unicode="&#x2000;" horiz-adv-x="809" />
<glyph unicode="&#x2001;" horiz-adv-x="1618" />
<glyph unicode="&#x2002;" horiz-adv-x="809" />
<glyph unicode="&#x2003;" horiz-adv-x="1618" />
<glyph unicode="&#x2004;" horiz-adv-x="539" />
<glyph unicode="&#x2005;" horiz-adv-x="404" />
<glyph unicode="&#x2006;" horiz-adv-x="269" />
<glyph unicode="&#x2007;" horiz-adv-x="269" />
<glyph unicode="&#x2008;" horiz-adv-x="202" />
<glyph unicode="&#x2009;" horiz-adv-x="323" />
<glyph unicode="&#x200a;" horiz-adv-x="89" />
<glyph unicode="&#x2010;" horiz-adv-x="901" d="M238 424l59 258h614l-59 -258h-614z" />
<glyph unicode="&#x2011;" horiz-adv-x="901" d="M238 424l59 258h614l-59 -258h-614z" />
<glyph unicode="&#x2012;" horiz-adv-x="901" d="M238 424l59 258h614l-59 -258h-614z" />
<glyph unicode="&#x2013;" horiz-adv-x="1024" d="M100 436l58 250h1022l-58 -250h-1022z" />
<glyph unicode="&#x2014;" horiz-adv-x="2048" d="M100 436l58 250h2046l-58 -250h-2046z" />
<glyph unicode="&#x2018;" horiz-adv-x="458" d="M311 1028q-6 68 9.5 132.5t47 128t78 125t99.5 120.5h264q-55 -59 -100 -118.5t-76 -121t-43 -127t0 -139.5h-279z" />
<glyph unicode="&#x2019;" horiz-adv-x="458" d="M254 1030q55 59 100 118.5t76 121t43 127t0 139.5h279q6 -68 -9.5 -133.5t-48 -128t-78 -123.5t-98.5 -121h-264z" />
<glyph unicode="&#x201c;" horiz-adv-x="962" d="M381 1030q-6 68 9.5 132.5t47 128t77.5 125t99 120.5h265q-55 -59 -100.5 -118.5t-76 -121t-43 -127t-0.5 -139.5h-278zM788 1030q-6 68 9.5 132.5t47.5 128t78 125t99 120.5h264q-55 -59 -100 -118.5t-76 -121t-43 -127t0 -139.5h-279z" />
<glyph unicode="&#x201d;" horiz-adv-x="952" d="M279 1030q55 59 100 118.5t75.5 121t43 127t0.5 139.5h278q6 -68 -9 -133.5t-48 -128t-78 -123.5t-98 -121h-264zM686 1030q55 59 100 118.5t76 121t43.5 127t-0.5 139.5h279q6 -68 -9.5 -133.5t-48 -128t-77.5 -123.5t-99 -121h-264z" />
<glyph unicode="&#x2022;" d="M342 205l131 573h492l-131 -573h-492z" />
<glyph unicode="&#x2026;" horiz-adv-x="1523" d="M111 0l75 340h295l-75 -340h-295zM633 0l76 340h295l-76 -340h-295zM1155 0l76 340h295l-76 -340h-295z" />
<glyph unicode="&#x202f;" horiz-adv-x="323" />
<glyph unicode="&#x205f;" horiz-adv-x="404" />
<glyph unicode="&#x20ac;" horiz-adv-x="1214" d="M225 389l49 213h109l4 25q2 10 3 22.5t5 22.5q4 16 11 35q4 10 6 20h-109l49 213h123q45 129 101.5 213t128 134t162.5 69.5t208 19.5q66 0 129.5 -6t114.5 -14q59 -8 113 -19l-70 -231l-111 8q-47 4 -100 6t-94 2q-61 0 -107.5 -8t-79 -28.5t-57.5 -56.5t-43 -91h428 l-49 -211h-447q-2 -10 -6 -20q-6 -18 -10 -35q-4 -10 -5 -22.5t-3 -22.5l-4 -25h446l-49 -213h-426q-16 -94 34 -127t179 -33q39 0 92.5 1t102.5 6q57 2 116 6l-45 -232q-59 -10 -125 -18q-55 -6 -121.5 -11.5t-125.5 -5.5q-121 0 -202 30t-128 85t-64.5 131t-9.5 168h-123z " />
<glyph unicode="&#x2122;" d="M283 1167l32 142h410l-33 -142h-100l-113 -487h-157l112 487h-151zM635 678l145 631h189l20 -357l191 357h188l-145 -631h-148l90 391l-174 -352h-104l-15 352l-90 -391h-147z" />
<glyph unicode="&#x25fc;" horiz-adv-x="1020" d="M0 0v1020h1020v-1020h-1020z" />
<glyph unicode="&#xfb01;" horiz-adv-x="1251" d="M-129 -281q80 39 127 68t75.5 58.5t43 68.5t28.5 98l179 772h-101l56 238h100l10 47q47 207 140.5 296t246.5 89q25 0 61.5 -5t71.5 -9q39 -6 84 -13l-55 -225l-47 4l-47 4q-25 2 -49 2q-59 0 -87 -38.5t-44 -106.5l-11 -45h238l-55 -238h-238l-178 -774 q-25 -106 -56.5 -181t-84 -131t-134.5 -104.5t-206 -101.5zM839 0l234 1022h274l-233 -1022h-275zM1099 1139l64 276h274l-63 -276h-275z" />
<glyph unicode="&#xfb02;" horiz-adv-x="1251" d="M-129 -281q80 39 127 68t75.5 58.5t43 68.5t28.5 98l179 772h-101l56 238h100l10 47q47 207 140.5 296t246.5 89q25 0 61.5 -5t71.5 -9q39 -6 84 -13l-55 -225l-47 4l-47 4q-25 2 -49 2q-59 0 -87 -38.5t-44 -106.5l-11 -45h238l-55 -238h-238l-178 -774 q-25 -106 -56.5 -181t-84 -131t-134.5 -104.5t-206 -101.5zM839 0l328 1434h274l-327 -1434h-275z" />
<glyph unicode="&#xfb03;" horiz-adv-x="1953" d="M-129 -281q80 39 127 68t75.5 58.5t43 68.5t28.5 98l179 772h-101l56 238h100l10 47q47 207 140.5 296t246.5 89q25 0 61.5 -5t71.5 -9q39 -6 84 -13l-55 -225l-47 4l-47 4q-25 2 -49 2q-59 0 -87 -38.5t-44 -106.5l-11 -45h238l-55 -238h-238l-178 -774 q-25 -106 -56.5 -181t-84 -131t-134.5 -104.5t-206 -101.5zM573 -281q80 39 127 68t75.5 58.5t43 68.5t28.5 98l179 772h-101l56 238h100l10 47q47 207 140.5 296t246.5 89q25 0 61.5 -5t71.5 -9q39 -6 84 -13l-55 -225l-47 4l-47 4q-25 2 -49 2q-59 0 -87 -38.5t-44 -106.5 l-11 -45h238l-55 -238h-238l-178 -774q-25 -106 -56.5 -181t-84 -131t-134.5 -104.5t-206 -101.5zM1542 0l234 1022h274l-233 -1022h-275zM1802 1139l64 276h274l-63 -276h-275z" />
<glyph unicode="&#xfb04;" horiz-adv-x="1953" d="M-129 -281q80 39 127 68t75.5 58.5t43 68.5t28.5 98l179 772h-101l56 238h100l10 47q47 207 140.5 296t246.5 89q25 0 61.5 -5t71.5 -9q39 -6 84 -13l-55 -225l-47 4l-47 4q-25 2 -49 2q-59 0 -87 -38.5t-44 -106.5l-11 -45h238l-55 -238h-238l-178 -774 q-25 -106 -56.5 -181t-84 -131t-134.5 -104.5t-206 -101.5zM573 -281q80 39 127 68t75.5 58.5t43 68.5t28.5 98l179 772h-101l56 238h100l10 47q47 207 140.5 296t246.5 89q25 0 61.5 -5t71.5 -9q39 -6 84 -13l-55 -225l-47 4l-47 4q-25 2 -49 2q-59 0 -87 -38.5t-44 -106.5 l-11 -45h238l-55 -238h-238l-178 -774q-25 -106 -56.5 -181t-84 -131t-134.5 -104.5t-206 -101.5zM1542 0l328 1434h274l-327 -1434h-275z" />
</font>
</defs>
</svg>
