<?xml version="1.0" standalone="no"?>
<!DOCTYPE svg PUBLIC "-//W3C//DTD SVG 1.1//EN" "http://www.w3.org/Graphics/SVG/1.1/DTD/svg11.dtd" >
<svg xmlns="http://www.w3.org/2000/svg">
<metadata></metadata>
<defs>
<font id="panefresco_400wtitalic" horiz-adv-x="1085" >
<font-face units-per-em="2048" ascent="1536" descent="-512" />
<missing-glyph horiz-adv-x="481" />
<glyph horiz-adv-x="0" />
<glyph unicode="&#xd;" horiz-adv-x="682" />
<glyph unicode=" "  horiz-adv-x="481" />
<glyph unicode="&#x09;" horiz-adv-x="481" />
<glyph unicode="&#xa0;" horiz-adv-x="481" />
<glyph unicode="!" d="M471 0l53 233h168l-53 -233h-168zM584 475l217 957h166l-226 -957h-157z" />
<glyph unicode="&#x22;" horiz-adv-x="634" d="M315 977l101 450h149l-106 -450h-144zM627 977l100 450h150l-107 -450h-143z" />
<glyph unicode="#" d="M100 369l31 131h227l84 364h-227l31 131h227l84 369h139l-84 -369h316l84 369h139l-84 -369h225l-30 -131h-226l-84 -364h226l-31 -131h-225l-84 -369h-140l84 369h-315l-84 -369h-139l84 369h-228zM498 500h315l84 364h-315z" />
<glyph unicode="$" d="M154 20l39 136q12 -2 53 -7.5t95 -11.5l113 -12q58 -6 101 -8l63 265l62 263q-55 27 -110.5 58.5t-99.5 70.5t-71.5 89t-27.5 116q0 166 121.5 275.5t355.5 119.5l57 242h86l-57 -242q47 -2 97 -8t95 -12t78 -12.5t43 -6.5q-2 -4 -8 -23.5t-12 -43t-12.5 -43t-6.5 -25.5 q-49 4 -102 12q-45 4 -99.5 10.5t-107.5 10.5l-111 -488q53 -27 102.5 -57.5t88.5 -70t61.5 -91t22.5 -116.5q0 -68 -25.5 -141.5t-80 -135t-140.5 -103.5t-207 -50l-51 -224l-84 17l49 207q-53 2 -114.5 8t-116.5 13l-94 12q-39 5 -45 7zM518 981q0 -68 57.5 -113 t135.5 -86l106 451q-57 -4 -109.5 -22.5t-93.5 -50.5t-66.5 -74t-29.5 -91v-14zM643 123q45 8 91 28.5t84 54.5t63.5 80t29.5 103v19q0 66 -45 111.5t-110 84.5z" />
<glyph unicode="%" d="M260 55l842 1377l86 -48l-842 -1376zM303 1155q33 141 104.5 212t192.5 71t161 -71t5 -214q-33 -141 -106.5 -215t-192.5 -74q-233 0 -164 291zM414.5 1016q11.5 -47 77.5 -47t98.5 46t52.5 138q23 92 10.5 135t-78.5 43q-63 0 -96 -43t-53 -133q-23 -92 -11.5 -139z M678 293q33 141 103.5 210.5t191.5 69.5q236 0 168 -282q-33 -141 -106.5 -215t-192.5 -74q-233 0 -164 291zM789.5 153.5q11.5 -47.5 76.5 -47.5q66 0 98.5 46.5t53.5 138.5q23 92 9.5 135t-79.5 43q-63 0 -95 -43t-52 -133q-23 -92 -11.5 -139.5z" />
<glyph unicode="&#x26;" horiz-adv-x="1433" d="M195 418q20 88 56 152.5t87 113.5t117.5 85t146.5 65q-25 39 -37 72.5t-15 67.5t1 70.5t14 81.5q35 141 145.5 226.5t282.5 85.5q182 0 248 -86t31 -236q-16 -74 -47 -129t-79 -101t-115.5 -85t-158.5 -78l226 -293q27 49 62.5 127t58.5 148l149 -3q-39 -102 -86 -201.5 t-88 -170.5l205 -254l-121 -105l-193 232q-115 -121 -236.5 -177.5t-281.5 -56.5q-250 0 -336 118t-36 331zM350 420q-35 -147 24.5 -226t231.5 -79q117 0 208 43t181 145l-319 422q-141 -45 -219 -113.5t-107 -191.5zM707 990.5q6 -56.5 49 -111.5l41 -58q74 29 129 56.5 t93 60.5t61.5 73t35.5 95q23 92 -14 140t-144 48q-198 0 -241 -184q-16 -63 -10 -119.5z" />
<glyph unicode="'" horiz-adv-x="204" d="M246 961l102 462h156l-117 -462h-141z" />
<glyph unicode="(" horiz-adv-x="532" d="M174 307.5q6 155.5 41 308.5q18 76 45 157t58.5 160t67.5 153l71 143q80 158 170 307h161q-90 -156 -170 -315q-35 -68 -69.5 -144t-66 -154.5t-58.5 -156.5t-43 -150t-25.5 -147.5t-13.5 -150t-3 -146.5t5 -135q8 -150 31 -293h-162q-27 135 -35 283q-10 125 -4 280.5z " />
<glyph unicode=")" horiz-adv-x="532" d="M14 -256q88 147 166 303l68 139q35 74 65.5 151t57 152.5t43.5 147.5q35 145 41 303t0 291q-8 156 -27 305h162q23 -143 31 -297q6 -131 -0.5 -289.5t-40.5 -312.5q-18 -78 -45 -157t-59 -155.5t-66 -150.5l-68 -137q-80 -152 -166 -293h-162z" />
<glyph unicode="*" d="M469 938l258 162l-182 157l84 86l178 -155l145 254l92 -33l-141 -260h266l-24 -102h-268l24 -256l-106 -31l-27 258l-256 -162z" />
<glyph unicode="+" horiz-adv-x="937" d="M61 475l33 143h441l102 439h143l-102 -439h444l-32 -143h-445l-102 -442h-144l103 442h-441z" />
<glyph unicode="," horiz-adv-x="348" d="M-4 -252l201 471h165l-221 -471h-145z" />
<glyph unicode="-" horiz-adv-x="901" d="M246 500l35 151h639l-35 -151h-639z" />
<glyph unicode="." horiz-adv-x="507" d="M158 0l53 233h166l-53 -233h-166z" />
<glyph unicode="/" d="M178 31l899 1421l142 -53l-900 -1419z" />
<glyph unicode="0" d="M156 329q-4 130 41 324q49 209 113.5 347.5t147.5 221.5t182 117.5t216 34.5q119 0 204 -33.5t128 -116.5t44 -221.5t-48 -347.5q-45 -195 -108.5 -324.5t-144.5 -207.5t-180.5 -110.5t-213.5 -32.5q-117 0 -201 31.5t-130 109.5t-50 208zM326 392q-2 -101 25.5 -159.5 t84 -81t135.5 -22.5q80 0 145.5 22.5t120 82t98.5 161t81 260.5q39 168 45 277.5t-18.5 174t-80 91.5t-139.5 27t-150.5 -25.5t-121.5 -90.5t-101.5 -175.5t-84.5 -280.5q-37 -160 -39 -261z" />
<glyph unicode="1" d="M379 1067l493 285h150l-311 -1352h-158l270 1171l-401 -231z" />
<glyph unicode="2" d="M117 0l33 145l485 406l139 118q63 54 110.5 106t80 105.5t47.5 114.5q29 125 -34 175.5t-210 50.5q-55 0 -118.5 -7.5t-117.5 -15.5q-63 -10 -122 -22l20 145q63 14 131 27q59 10 130 18t143 8q215 0 302 -85t44 -277q-18 -76 -50 -138.5t-79 -122t-113 -119t-152 -128.5 l-424 -352h654l-35 -152h-864z" />
<glyph unicode="3" d="M109 27l49 143q61 -12 129 -20q57 -8 129.5 -13.5t144.5 -5.5q152 0 237 62.5t113 187.5q16 70 5 116t-41.5 74.5t-77.5 41t-105 14.5h-274l33 143h272q39 0 86 16.5t90 46t78 73.5t47 100q29 119 -26.5 168t-200.5 49q-70 0 -138.5 -6.5t-121.5 -14.5q-66 -8 -123 -18 l16 141q63 14 133 25q59 10 132 17t145 7q119 0 196.5 -21.5t119.5 -64.5t49 -109.5t-13 -156.5q-18 -80 -56 -133t-80 -88t-80 -53.5t-56 -28.5q47 -18 84.5 -42t60 -60.5t27 -92t-14.5 -137.5q-47 -205 -176 -306t-358 -101q-80 0 -158 6t-139 16q-72 10 -137 25z" />
<glyph unicode="4" d="M117 254l28 127l611 971h172l-596 -949h477l100 433h158l-100 -433h170l-35 -149h-170l-60 -262h-157l59 262h-657z" />
<glyph unicode="5" d="M109 39l51 141q68 -14 137 -24q59 -10 132 -17.5t142 -7.5q133 0 232.5 79t134.5 230q16 74 7 124t-40 82t-80 45.5t-110 13.5q-59 0 -116.5 -12.5t-104.5 -28.5q-53 -18 -103 -39l-125 22l205 705h786l-34 -150h-643l-134 -428q53 20 107 39q47 14 102.5 26.5 t108.5 12.5q100 0 176 -22.5t121 -70.5t56 -125t-13 -188q-53 -231 -200.5 -347.5t-360.5 -116.5q-78 0 -156 9t-139 19q-72 12 -139 29z" />
<glyph unicode="6" d="M182 385q2 131 41 297q43 186 110.5 318.5t156 215t195 120.5t226.5 38q66 0 129.5 -5t116.5 -11l119 -17l-47 -143l-113 12q-51 4 -112.5 8.5t-126.5 4.5q-176 0 -296 -116t-173 -341l34 12q35 12 89.5 27.5t117 28t117.5 12.5q223 0 314 -102.5t42 -317.5 q-51 -217 -199.5 -331.5t-377.5 -114.5q-127 0 -207 47t-119 137t-37 221zM346 427.5q-4 -91.5 19.5 -158t75 -104.5t139.5 -38q152 0 249 74.5t132 224.5q33 141 -34 207.5t-208 66.5q-59 -4 -119.5 -15t-112.5 -26q-59 -16 -114 -34q-23 -106 -27 -197.5z" />
<glyph unicode="7" d="M283 20l768 1133l12 49h-674l35 150h840l-47 -207l-797 -1172z" />
<glyph unicode="8" d="M122.5 169q-24.5 71 0.5 175q18 80 48 135.5t71 96t90 71.5t108 60q-47 27 -79.5 55.5t-50 66t-19.5 85t12 110.5q41 176 189.5 263t371.5 87q109 0 194 -21.5t140 -65.5t75.5 -110.5t0.5 -154.5q-16 -66 -40 -113t-59.5 -84t-85 -64.5t-114.5 -53.5q49 -25 88 -53.5 t62.5 -68.5t28.5 -92.5t-11 -125.5q-27 -111 -84.5 -186t-137 -120t-177 -63t-201.5 -18q-102 0 -189.5 17t-147 59t-84 113zM296 257q15 -46 53 -74.5t97.5 -41t131.5 -12.5q152 0 259 55.5t142 198.5q12 59 3 100t-34.5 69t-65.5 45t-87 32h-215q-113 -29 -184.5 -86.5 t-98.5 -171.5q-16 -68 -1 -114zM467 1006q-23 -94 15 -147.5t130 -90.5h215q113 35 182.5 88t92.5 148q27 121 -45.5 171t-222.5 50q-147 0 -242.5 -48.5t-124.5 -170.5z" />
<glyph unicode="9" d="M123 10l47 144l111 -13q49 -4 111.5 -8t127.5 -4q371 0 477 453q-63 -20 -129 -37q-55 -14 -119.5 -25.5t-119.5 -11.5q-213 0 -304.5 100.5t-41.5 315.5q25 106 77 189t126.5 141.5t168 89t199.5 30.5q127 0 209 -47t120 -138t37 -221t-40 -296q-45 -197 -113 -330 t-155 -213t-194.5 -114.5t-232.5 -34.5q-66 0 -129 4t-116 10q-61 8 -117 16zM446 924q-35 -143 26 -207t202 -64q53 0 115.5 10.5t115.5 24.5q63 16 127 37q25 111 27 202t-21.5 157.5t-77 103.5t-139.5 37q-141 0 -241.5 -80t-133.5 -221z" />
<glyph unicode=":" horiz-adv-x="362" d="M123 0l53 233h168l-53 -233h-168zM274 659l54 234h168l-54 -234h-168z" />
<glyph unicode=";" horiz-adv-x="405" d="M-6 -244l209 480h170l-242 -480h-137zM289 659l53 234h168l-53 -234h-168z" />
<glyph unicode="&#x3c;" d="M256 555l37 160l811 430l-39 -162l-641 -344l479 -358l-39 -166q-20 12 -65 44l-103 73l-122 91l-125 93l-113 82z" />
<glyph unicode="=" d="M139 309l33 142h936l-33 -142h-936zM227 694l33 142h936l-33 -142h-936z" />
<glyph unicode="&#x3e;" d="M154 115l39 166l647 358l-486 344l39 162l611 -430l-37 -160l-107 -57l-149 -82l-169 -93l-165 -91l-137 -73q-59 -32 -86 -44z" />
<glyph unicode="?" horiz-adv-x="790" d="M238 2l53 234h168l-53 -234h-168zM322 1249l16 152q70 14 137 26q57 10 118.5 19.5t102.5 9.5q213 0 302 -78.5t44 -277.5q-20 -88 -64 -153.5t-99.5 -118t-114.5 -95.5l-112 -82q-52 -39 -91 -79t-49 -89l-18 -77h-162l20 83q14 66 55.5 118t94.5 96.5t112.5 84 t112.5 83.5t93 96.5t57 117.5q29 119 -23.5 166t-198.5 47q-39 0 -95 -7t-109 -17q-63 -10 -129 -25z" />
<glyph unicode="@" horiz-adv-x="2017" d="M181.5 74.5q-17.5 183.5 47.5 460.5q57 254 161 433t248 292.5t328.5 167t405.5 53.5q231 0 385 -53.5t237 -160t96 -267t-36 -375.5l-8 -35q-47 -201 -99.5 -320.5t-113.5 -184.5t-133 -85t-154 -20q-90 0 -142 19t-69 93q-31 -14 -77 -33.5t-98 -36t-106.5 -28.5 t-103.5 -12q-66 0 -126 17t-99 72.5t-46 157t32 269.5q29 129 70.5 230t104 171t151.5 106.5t212 36.5q35 0 74 -8t74 -18q39 -10 78 -25l8 33h153l-94 -410q-41 -176 -57.5 -274t-11 -146.5t32 -59.5t73.5 -11t88 12t78 59.5t72.5 140.5t72.5 255l8 37q43 186 34 320 t-75.5 220t-194.5 126t-323 40t-349 -44t-273 -140t-201 -247.5t-131 -366.5q-53 -227 -44 -381t81 -248t208 -134t339 -40q31 0 81 2t97 6q55 4 119 10l-25 -147q-61 -6 -117 -11q-47 -4 -99 -6t-89 -2q-227 0 -390 44t-255 153.5t-109.5 293zM836.5 303q3.5 -72 25 -110.5 t57 -51t74.5 -12.5q41 0 86 9t88 21.5t82 27.5l68 28q4 61 17.5 146t41.5 204l68 293q-33 12 -68 21q-29 8 -65.5 14t-69.5 6q-88 0 -148.5 -24.5t-103.5 -73.5t-72.5 -126t-54.5 -181q-29 -119 -25.5 -191z" />
<glyph unicode="A" horiz-adv-x="1236" d="M63 0l596 1188q53 109 137 174q79 63 191 63h3h7h123l60 -1425h-152l-29 360h-585l-185 -360h-166zM483 506h518l-30 776q-53 0 -96.5 -41t-71.5 -100z" />
<glyph unicode="B" horiz-adv-x="1265" d="M184 0l328 1425h512q201 0 292 -83q62 -56 62 -160q0 -49 -14 -109q-33 -147 -98.5 -223t-159.5 -117q43 -16 79 -40.5t56.5 -63.5t25.5 -95q1 -12 1 -26q0 -47 -15 -107q-27 -113 -75 -189.5t-116.5 -123.5t-153.5 -67.5t-185 -20.5h-539zM373 145h377q63 0 118.5 13.5 t99.5 44t75.5 81t50.5 126.5q9 40 9 71q0 34 -10 59q-19 48 -58.5 72.5t-88.5 31.5t-90 7h-367zM522 795h365q135 0 208.5 64.5t102.5 193.5q10 43 10 77q0 64 -34 98q-53 52 -189 52h-350z" />
<glyph unicode="C" horiz-adv-x="1097" d="M214 342q0 26 2 54q9 136 50 313q43 180 96.5 318t133 231.5t190.5 140.5t268 47q70 0 138.5 -7t121.5 -18q63 -10 121 -22l-41 -142l-125 17q-53 6 -116.5 12t-116.5 6q-119 0 -201 -35.5t-138 -108.5t-95 -182.5t-74 -256.5q-33 -145 -44 -253q-4 -35 -4 -66 q0 -65 16 -114q24 -72 90.5 -107.5t187.5 -35.5q47 0 110.5 5t122.5 14q68 8 137 18l-26 -143q-70 -14 -139 -25q-59 -10 -131 -16t-132 -6q-160 0 -248.5 48t-124.5 140q-29 73 -29 174z" />
<glyph unicode="D" horiz-adv-x="1314" d="M184 0l328 1425h506q154 0 243 -51t128 -142q34 -81 34 -189q0 -14 -1 -29q-5 -127 -40 -279q-35 -154 -89 -287t-136 -233t-196.5 -157.5t-270.5 -57.5h-506zM373 150h350q111 0 191.5 49t140 131t98.5 187t66 218t33 211q2 24 2 46q0 70 -17 126q-23 74 -83 116 t-171 42h-350z" />
<glyph unicode="E" horiz-adv-x="1155" d="M228 274q0 57 18 127q18 74 48 127.5t69.5 92t87 64.5t98.5 42q-68 41 -98 123q-15 40 -15 92q0 56 17 127q23 88 70.5 154.5t117.5 111.5t156 67.5t182 22.5h391l-35 -147h-399q-129 0 -213 -61.5t-113 -174.5q-11 -45 -11 -82q0 -60 29 -102q45 -67 169 -67h4h291 l-37 -144h-291q-37 0 -90 -10t-105.5 -37t-96.5 -76t-62 -125q-12 -46 -13 -83q0 -18 3 -34q9 -48 40 -79t79 -44.5t110 -13.5h448l-35 -145h-452q-96 0 -172 22.5t-123 70.5t-62 124q-5 27 -5 57z" />
<glyph unicode="F" horiz-adv-x="1132" d="M184 0l328 1425h862l-35 -149h-706l-127 -551h584l-35 -150h-584l-131 -575h-156z" />
<glyph unicode="G" horiz-adv-x="1245" d="M230 381v30q5 136 44 306q39 172 96.5 308t141.5 229.5t199.5 142.5t273.5 49q78 0 158 -8t145 -19q76 -10 148 -24l-41 -142q-72 12 -146 21q-63 8 -139 14t-141 6q-119 0 -205 -38.5t-148.5 -113.5t-104.5 -185.5t-75 -251.5t-41 -249q-2 -25 -2 -48q0 -77 22 -133 q28 -73 95.5 -109.5t185.5 -36.5q41 0 88 3t88 7q25 4 48.5 14.5t44 34t39 61.5t32.5 97l58 248h-228l31 139h387l-98 -418q-12 -57 -34 -109t-54.5 -95t-77.5 -73t-105 -40q-66 -10 -138 -15.5t-126 -5.5q-158 0 -251 52.5t-134 148.5q-36 86 -36 203z" />
<glyph unicode="H" horiz-adv-x="1402" d="M184 0l328 1425h158l-146 -630h721l146 630h155l-327 -1425h-156l147 643h-721l-147 -643h-158z" />
<glyph unicode="I" horiz-adv-x="505" d="M174 0l328 1425h157l-327 -1425h-158z" />
<glyph unicode="J" horiz-adv-x="630" d="M33 -147l35 147q68 0 113.5 6t77.5 29.5t53.5 72t41.5 134.5l273 1185h155l-70 -310l-67 -291l-66 -291l-71 -312q-31 -127 -71 -200.5t-96 -111.5t-132 -48t-176 -10z" />
<glyph unicode="K" horiz-adv-x="1218" d="M184 0l326 1423h158l-150 -651q98 0 171 20.5t138 65.5q139 78 244 226.5t158 338.5h176q-47 -127 -103.5 -241.5t-124 -209.5t-146.5 -168t-169 -116l258 -688h-174l-235 641q-47 -10 -98.5 -14t-98.5 -4h-15q-7 0 -18 2l-139 -625h-158z" />
<glyph unicode="L" horiz-adv-x="1050" d="M184 0l328 1425h158l-293 -1273h622l-34 -152h-781z" />
<glyph unicode="M" horiz-adv-x="1740" d="M184 0l273 1188q25 109 80 173t133 64h114l125 -1206l564 1002q55 92 121.5 148t154.5 56h133l-326 -1425h-157l287 1253q-16 0 -42 -22.5t-42 -56.5l-535 -943q-53 -96 -100 -138t-101 -44h-78l-129 1204q-16 0 -29.5 -26.5t-21.5 -63.5l-266 -1163h-158z" />
<glyph unicode="N" horiz-adv-x="1419" d="M186 0l137 602l138 602l45 221l172 -2q45 0 73.5 -15t45 -41t25.5 -60.5t18 -73.5l200 -991q8 -37 26.5 -59.5t35.5 -22.5h4l295 1263h160l-328 -1423h-129q-78 0 -129 51t-74 144l-207 1003q-8 35 -26.5 44t-36.5 5l-287 -1247h-158z" />
<glyph unicode="O" horiz-adv-x="1333" d="M220 358q0 16 1 33q6 135 47 314q41 176 98.5 314t143.5 233.5t206 144.5t283 49q164 0 261.5 -49t139.5 -145q36 -81 36 -192v-6v-34q-6 -137 -47 -315q-43 -182 -100.5 -318.5t-141.5 -226.5t-202.5 -135t-282.5 -45q-166 0 -263.5 46t-140.5 138q-38 81 -38 194z M388 401q0 -74 20 -127q27 -72 96 -108.5t192 -36.5t209 35t145.5 106.5t100.5 179t76 255.5q33 141 41 251q2 26 2 50q0 78 -21 136q-27 75 -94.5 114.5t-187.5 39.5q-123 0 -209 -38.5t-147.5 -114.5t-103.5 -186.5t-75 -251.5t-42 -250q-2 -28 -2 -54z" />
<glyph unicode="P" horiz-adv-x="1241" d="M184 0l328 1425h518q233 0 318 -111q51 -68 51 -182q0 -72 -21 -163q-53 -233 -193.5 -362.5t-373.5 -129.5h-360l-109 -477h-158zM485 629h359q156 0 246 90t127 250q14 64 14 114q0 74 -31 117q-51 74 -207 74h-358z" />
<glyph unicode="Q" horiz-adv-x="1333" d="M231 371q0 141 48 340q39 172 96 308t141 230t202 144.5t279 50.5q231 0 327.5 -107.5t96.5 -300.5q0 -76 -12 -160.5t-35 -183.5q-55 -242 -144 -404.5t-241 -240.5q18 -86 42 -147.5t51.5 -107.5t62.5 -78.5t76 -59.5l-44 -58l-44 -59q-84 37 -164 150.5t-127 312.5 q-39 -8 -87 -14t-96 -6q-117 0 -198.5 25.5t-133 75.5t-74 122.5t-22.5 167.5zM395 399q0 -135 66.5 -204.5t230.5 -69.5q119 0 203 37t143.5 110.5t100.5 182t73 254.5q20 90 32.5 164.5t12.5 140.5q0 137 -66.5 210.5t-225.5 73.5q-119 0 -203 -40.5t-145.5 -118.5 t-102.5 -189.5t-74 -251.5q-20 -88 -32.5 -162.5t-12.5 -136.5z" />
<glyph unicode="R" horiz-adv-x="1277" d="M184 0l328 1425h524q229 0 318 -101q55 -63 55 -177q0 -69 -20 -156q-37 -166 -122 -268t-233 -143l140 -580h-175l-133 539h-401l-123 -539h-158zM500 688h368q162 0 245 83t114 220q13 57 13 102q0 72 -34 114q-55 69 -205 69h-366z" />
<glyph unicode="S" horiz-adv-x="1093" d="M121 20l41 144q14 -2 66 -8l117 -14q65 -7 131.5 -12t109.5 -5q51 0 112.5 20.5t114.5 58.5t88 94t35 130q0 68 -44 115t-109.5 85t-143.5 72.5t-143.5 79.5t-109.5 105.5t-44 148.5q0 90 37 166t108.5 131t176 86t239.5 31q51 0 114.5 -6t121 -14.5t100.5 -15.5t55 -7 l-41 -141q-72 10 -143 18q-61 6 -132 12t-130 6q-66 0 -128.5 -20t-110.5 -56t-77.5 -85t-29.5 -105q0 -59 44 -101t110.5 -79t143.5 -71.5t143.5 -82t110.5 -111t44 -155.5q0 -76 -30 -156.5t-95.5 -147.5t-169 -110t-250.5 -43q-55 0 -127 6.5t-137.5 13.5t-112.5 14 t-55 9z" />
<glyph unicode="T" horiz-adv-x="1007" d="M285 1274l34 151h1024l-34 -151h-432l-293 -1274h-156l293 1274h-436z" />
<glyph unicode="U" horiz-adv-x="1310" d="M238 280q0 66 20 150l229 995h158l-229 -995q-12 -54 -12 -96q0 -24 4 -44q10 -56 45.5 -91t93 -50.5t133.5 -15.5q160 0 267.5 64.5t146.5 232.5l229 995h156l-230 -995q-29 -121 -81 -207t-128.5 -139t-176 -77.5t-220.5 -24.5q-117 0 -202 24.5t-135 77.5t-63 138 q-4 27 -5 58z" />
<glyph unicode="V" horiz-adv-x="1214" d="M387 1425h156l35 -1275q53 4 103 42.5t83 104.5l543 1128h172l-564 -1163q-55 -119 -145 -189.5t-201 -72.5h-135z" />
<glyph unicode="W" horiz-adv-x="1843" d="M379 0l24 1423h156l-33 -1280q57 0 101 97l434 974l32 69q15 34 34.5 60.5t44 43t59.5 16.5h94l-10 -1260q31 6 55.5 29t44.5 70l504 1181h170l-528 -1220q-49 -115 -115 -159t-148 -44h-120l14 1192l-430 -991q-20 -43 -45 -79t-55.5 -63.5t-69.5 -43t-88 -15.5h-125z " />
<glyph unicode="X" horiz-adv-x="1189" d="M61 0l592 707l-264 718h168l219 -598l492 598h188l-590 -718l262 -707h-167l-218 590l-493 -590h-189z" />
<glyph unicode="Y" horiz-adv-x="1130" d="M367 1425h168l204 -639l496 639h184l-633 -815l-139 -610h-158l142 612z" />
<glyph unicode="Z" horiz-adv-x="1167" d="M132 26q0 74 40 139q47 77 117 152l792 877l39 45q16 18 10 37h-712l35 149h897v-8v-8q0 -52 -22 -113q-26 -70 -103 -166l-813 -894q-31 -35 -43.5 -54.5t-10.5 -31.5h717l-35 -150h-907q-1 13 -1 26z" />
<glyph unicode="[" horiz-adv-x="614" d="M25 -252l411 1786h430l-32 -148h-275l-344 -1490h274l-34 -148h-430z" />
<glyph unicode="\" horiz-adv-x="1099" d="M465 1389l172 69l303 -1421l-172 -66z" />
<glyph unicode="]" horiz-adv-x="614" d="M25 -252l34 148h275l344 1490h-275l33 148h430l-411 -1786h-430z" />
<glyph unicode="^" d="M252 666l516 686h160l213 -686h-166l-162 534l-397 -534h-164z" />
<glyph unicode="_" horiz-adv-x="1064" d="M14 -172l33 143h877l-33 -143h-877z" />
<glyph unicode="`" horiz-adv-x="483" d="M319 1399l84 135l404 -193l-78 -118z" />
<glyph unicode="a" horiz-adv-x="1069" d="M201 248q0 19 2 39q6 96 35 217q61 266 192 402t358 136q70 0 117 -10t74 -14l129 24l-199 -862q4 -49 35 -67.5t78 -24.5l-33 -108q-104 4 -149 39.5t-49 109.5q-18 -23 -52 -48.5t-79.5 -48t-98.5 -37.5t-108 -15q-98 0 -153.5 36.5t-79.5 105.5q-19 54 -19 126z M337 296q0 -45 8 -79q23 -96 132 -96q51 0 105.5 21.5t100.5 50t81 58.5t45 46l137 586q-27 4 -72 12t-106 8q-154 0 -255 -96t-148 -307q-28 -120 -28 -204z" />
<glyph unicode="b" horiz-adv-x="1097" d="M180 2l336 1466h156l-127 -544q68 45 152.5 79.5t170.5 34.5q70 0 119 -23.5t81 -63.5t46 -96t14 -120q0 -160 -42 -299t-118.5 -241.5t-186 -161t-242.5 -58.5q-70 0 -166.5 7.5t-192.5 19.5zM367 141q29 -8 83 -13t105 -5q158 0 249 97t138 261q8 31 17.5 73t14.5 87 q3 28 3 56q0 17 -1 33q-3 44 -16.5 79t-43 56.5t-76.5 21.5t-98.5 -17.5t-98.5 -42t-85 -53.5t-58 -49z" />
<glyph unicode="c" horiz-adv-x="894" d="M193 287q0 160 41.5 298t118.5 239.5t186.5 159.5t242.5 58q37 0 75 -4t72 -9t59.5 -11t37.5 -10l-41 -148q-10 4 -32.5 9t-53.5 10.5t-66.5 8.5t-68.5 3q-158 0 -248 -95.5t-137 -260.5q-14 -47 -26 -116q-7 -42 -7 -82q0 -25 3 -49q7 -62 39 -106.5t104 -44.5 q51 0 101 16.5t92 39t72.5 46t45.5 37.5l49 -108q-16 -23 -56 -55.5t-94.5 -62.5t-120 -50t-128.5 -20q-70 0 -119 24.5t-81 65.5t-46 97t-14 120z" />
<glyph unicode="d" horiz-adv-x="1101" d="M195 299q0 17 1 36q5 97 27 191q27 113 77 208t121 164t161.5 106.5t199.5 37.5q61 0 123 -9t96 -17l105 452h156l-338 -1468h-154l31 121q-35 -27 -77 -52.5t-88 -45t-93 -31.5t-90 -12q-102 0 -159.5 50t-80.5 129q-18 64 -18 140zM344 323q0 -27 3 -53 q7 -59 36.5 -102t97.5 -43q47 0 101.5 21.5t105.5 51t91 60.5t59 49l64 277q30 129 61 276q-23 6 -83.5 15.5t-117.5 9.5q-156 0 -255 -105.5t-138 -271.5q-10 -47 -20 -113q-5 -37 -5 -72z" />
<glyph unicode="e" horiz-adv-x="1032" d="M186 275.5q0 93.5 27 209.5q33 143 93.5 248t135 173.5t159.5 102t167 33.5q94 0 157.5 -24.5t99.5 -66.5t45 -95q4 -23 4 -46q0 -31 -7 -65q-14 -57 -48 -118.5t-83 -108.5q-68 -63 -153 -101t-170 -58.5t-157.5 -26.5t-115.5 -6q-7 -28 -7 -55q0 -11 1 -22 q4 -38 24.5 -66.5t60.5 -47t103 -18.5t130 25.5t120 56.5q63 37 123 84q2 -37 3 -73t5 -75q-55 -43 -123 -78q-57 -29 -131 -53t-155 -24q-109 0 -175.5 35.5t-99.5 101t-33 159zM360 465q61 0 148.5 13.5t170.5 45t147.5 83.5t82.5 130q5 19 5 37q0 46 -31 79 q-43 46 -142 46q-49 0 -105 -24.5t-108.5 -72.5t-94.5 -121t-64 -171q-4 -10 -5.5 -22.5t-3.5 -22.5z" />
<glyph unicode="f" horiz-adv-x="684" d="M-133 -342q86 45 140 80t89 72.5t54.5 85t35.5 116.5l203 877h-125l31 135h125l20 92q25 102 56.5 174t75.5 116t101.5 63.5t129.5 19.5q27 0 58.5 -2t60.5 -6q33 -4 67 -6l-31 -132q-29 0 -55 3q-25 2 -52.5 3t-49.5 1q-86 0 -131 -53.5t-76 -182.5l-19 -90h293 l-30 -135h-295l-201 -883q-23 -94 -52.5 -160.5t-77.5 -119t-123 -98.5t-185 -99z" />
<glyph unicode="g" horiz-adv-x="1060" d="M141 -442l21 65l20 68q8 -4 32 -8.5t54.5 -8.5t63.5 -7t61 -3q94 0 163 39t115 101.5t72.5 141.5t36.5 158q-10 -10 -37.5 -30.5t-65.5 -42t-84 -36.5t-95 -15q-160 0 -231.5 78.5t-71.5 224.5q0 47 8 103t22 118q61 266 194.5 402t375.5 136q31 0 66.5 -2t72.5 -5l71 -6 l58 -5q31 0 54.5 1t35.5 3l-231 -991q-31 -131 -75 -227.5t-106.5 -161t-147.5 -96t-198 -31.5q-39 0 -80 4t-75.5 10t-61.5 12.5t-37 10.5zM352 301q0 -82 36 -127t124 -45q41 0 93 18.5t99.5 42t81 45t37.5 27.5l71 316q34 156 73 313q-6 0 -27.5 3t-51.5 5t-62.5 4 t-57.5 2q-166 0 -255 -106.5t-134 -304.5q-27 -113 -27 -193z" />
<glyph unicode="h" horiz-adv-x="1157" d="M182 0l336 1470h156l-135 -561q12 10 45.5 33t81 45.5t103.5 39.5t118 17q100 0 156.5 -30.5t77.5 -93.5q16 -46 16 -109q0 -24 -2 -50q-8 -95 -37 -226l-121 -535h-156l113 512q23 92 35 162q7 42 7 75q0 22 -3 41q-8 46 -41 69.5t-101 23.5q-53 0 -106 -18.5t-98 -42 t-79 -48t-48 -37.5l-162 -737h-156z" />
<glyph unicode="i" horiz-adv-x="483" d="M166 0l235 1024h152l-236 -1024h-151zM455 1255l41 179h151l-41 -179h-151z" />
<glyph unicode="j" horiz-adv-x="507" d="M-143 -342q88 45 145 80t94 72.5t58.5 85t38.5 116.5l233 1012h152l-234 -1014q-23 -94 -53.5 -161.5t-80.5 -121t-127 -100.5t-189 -98zM481 1262l41 180h152l-41 -180h-152z" />
<glyph unicode="k" horiz-adv-x="1017" d="M180 0l338 1470h156l-199 -856q104 0 186 36t146.5 94.5t112 131t81.5 148.5h175q-90 -193 -199 -318.5t-232 -181.5l211 -524h-168l-200 475q-57 -13 -118 -13q-15 0 -30 1l-104 -463h-156z" />
<glyph unicode="l" horiz-adv-x="495" d="M172 0l338 1470h152l-338 -1470h-152z" />
<glyph unicode="m" horiz-adv-x="1755" d="M182 0l232 1024h153l-32 -133q16 16 49.5 43t78 51.5t92.5 43t95 18.5q197 0 244 -156q31 23 70.5 49.5t86.5 50t103.5 38.5t122.5 15q94 0 152.5 -29.5t82.5 -90.5q21 -53 21 -131v-27q-4 -96 -35 -231l-121 -535h-156l115 508q20 96 32 168q6 39 6 71q0 26 -4 47 q-9 46 -43 68.5t-104 22.5q-49 0 -99 -17.5t-92 -41t-74 -48t-44 -39.5q-2 -27 -8 -80t-29 -147l-114 -512h-154l113 508q23 98 30 169q3 28 4 52q0 36 -8 65q-12 46 -48 68.5t-99 22.5q-45 0 -93.5 -19.5t-91.5 -46t-75.5 -53.5t-44.5 -39l-160 -727h-154z" />
<glyph unicode="n" horiz-adv-x="1155" d="M174 0l232 1024h155l-31 -125q16 14 52 40t83.5 49.5t101.5 41t107 17.5q98 0 155.5 -31t81.5 -94q18 -49 18 -117q0 -21 -2 -43q-7 -96 -37 -227l-125 -535h-154l117 512q23 92 34 163q6 36 6 65v8q0 24 -3 44q-8 46 -40 69.5t-98 23.5q-53 0 -105 -18.5t-97 -44 t-81 -52.5l-57 -43l-157 -727h-156z" />
<glyph unicode="o" horiz-adv-x="1081" d="M197 274q0 106 34 256q31 125 76 220.5t112.5 161t161 99t216.5 33.5q170 0 244.5 -79.5t74.5 -225.5q0 -49 -8 -104t-23 -117q-31 -127 -74.5 -226t-110 -170t-160 -108t-220.5 -37q-176 0 -249.5 76t-73.5 221zM354 297q0 -92 43 -137t154 -45q86 0 148.5 29.5 t105.5 83t72.5 130t52.5 168.5q12 55 19 102.5t7 88.5q0 94 -44 142t-144 48q-160 0 -247 -96t-132 -291q-16 -66 -25.5 -122t-9.5 -101z" />
<glyph unicode="p" horiz-adv-x="1110" d="M70 -453l171 737l171 740h155l-24 -102q66 47 151.5 82.5t171.5 35.5q102 0 161.5 -43t84.5 -115q20 -60 20 -138v-32q-5 -97 -30 -206q-27 -115 -78 -212t-124 -168t-165 -111t-198 -40q-47 0 -105.5 8.5t-99.5 16.5l-107 -453h-155zM365 152q29 -8 83 -15.5t107 -7.5 q84 0 149.5 28.5t113.5 82t81 128t55 167.5q10 45 17 105q2 24 2 47q0 35 -5 68q-9 54 -39 92t-91 38q-47 0 -98.5 -17.5t-98.5 -42t-85 -53.5t-58 -51z" />
<glyph unicode="q" horiz-adv-x="1099" d="M193 290q0 16 1 33q5 95 27 193q25 113 75 208t120.5 164.5t161 109.5t196.5 40q86 0 174 -12t160 -12q14 0 25.5 1t21.5 1l-340 -1469h-153q2 10 12 55l24 105l31 131l31 131l24 106q10 44 15 54q-31 -25 -72 -50.5t-87 -48t-92 -36.5t-89 -14q-104 0 -162.5 47 t-83.5 124q-20 64 -20 139zM342 308q0 -33 5 -62q9 -49 41 -81t95 -32q51 0 107.5 22.5t107 53.5t88 61.5t54.5 46.5l39 162l86 383q-20 6 -79 16.5t-114 10.5q-90 0 -155.5 -29t-114.5 -83t-83 -133t-57 -179q-12 -53 -18 -112q-2 -23 -2 -45z" />
<glyph unicode="r" horiz-adv-x="729" d="M174 0l236 1024h153l-41 -174q20 20 57 48t88.5 55.5t116 52t142.5 38.5l-37 -159q-160 -29 -255 -82t-149 -107l-159 -696h-152z" />
<glyph unicode="s" horiz-adv-x="1001" d="M133 16l37 134q8 -2 51 -8l100 -11q56 -6 113.5 -10t91.5 -4q47 0 96.5 11t89.5 33.5t64.5 57.5t24.5 82t-38 79t-95.5 57.5t-123 50t-122.5 56t-95 75t-38 108.5q0 137 113.5 227t345.5 90q41 0 88 -4t93 -10t87 -12t65 -12l-37 -132q-63 6 -124 15q-53 6 -114 11 t-108 5q-53 0 -100 -11t-83 -32.5t-57.5 -52.5t-21.5 -68q0 -41 38 -68.5t94.5 -51t122 -47t121.5 -56.5t94 -80t38 -114q0 -68 -25.5 -130.5t-80 -109.5t-139.5 -74.5t-205 -27.5q-47 0 -106.5 5t-114 11t-94.5 11t-46 7z" />
<glyph unicode="t" horiz-adv-x="743" d="M254 158v11q2 73 27 183l122 533h-145l33 139h145l72 313h154l-72 -313h323l-32 -139h-324l-111 -477q-18 -84 -27 -140q-5 -29 -5 -52q0 -20 4 -35q8 -32 33.5 -45t76.5 -13q23 0 54.5 1t60.5 3q35 2 72 6l-23 -133l-80 -12q-35 -4 -70.5 -7.5t-62.5 -3.5 q-80 0 -130 17.5t-74 59.5q-21 37 -21 98v6z" />
<glyph unicode="u" horiz-adv-x="1144" d="M233 206q0 24 3 51q8 97 38 232l123 535h152l-123 -532q-25 -106 -36 -175q-6 -37 -6 -65q0 -23 4 -41q9 -39 41 -54.5t95 -15.5q51 0 105.5 14.5t103.5 36t87 45t57 42.5l172 745h151l-235 -1024h-152l23 109q-29 -20 -69 -43t-88 -42.5t-101.5 -31.5t-106.5 -12 q-92 0 -146.5 28.5t-75.5 89.5q-16 44 -16 108z" />
<glyph unicode="v" horiz-adv-x="987" d="M287 1024h155l31 -889q35 0 61.5 18.5t49.5 63.5l405 807h168l-422 -831q-47 -98 -116.5 -144.5t-167.5 -48.5h-117z" />
<glyph unicode="w" horiz-adv-x="1550" d="M295 1024h149l-4 -885q23 2 44.5 21.5t43.5 60.5l328 666q61 113 135 119h88l29 -867q49 12 80 70l373 815h161l-385 -834q-41 -84 -98 -138q-55 -52 -139 -52h-6h-119l-19 801l-290 -602q-41 -92 -100.5 -145.5t-145.5 -53.5h-123z" />
<glyph unicode="x" horiz-adv-x="942" d="M55 0l437 512l-201 512h160l157 -401l342 401h174l-440 -512l205 -512h-162l-158 399l-340 -399h-174z" />
<glyph unicode="y" horiz-adv-x="987" d="M63 -324q94 43 157 76t108 67t77.5 76t67.5 105q-55 18 -98 71.5t-47 129.5l-41 823h147l35 -772q4 -57 25.5 -81t50.5 -28l454 881h162l-514 -1004q-51 -98 -100 -166.5t-113.5 -123t-152.5 -101.5t-215 -100q-1 25 -2 49q0 12 0.5 24.5t0.5 24.5q0 25 -2 49z" />
<glyph unicode="z" horiz-adv-x="980" d="M129 27q0 97 104 196l644 662h-555l34 139h736v-15q0 -53 -26 -99q-30 -52 -79 -103l-649 -670h553l-31 -137h-729q-2 13 -2 27z" />
<glyph unicode="{" horiz-adv-x="628" d="M152 571l30 131q61 14 105.5 35t74 47.5t48 61.5t28.5 78q4 20 9.5 54t11.5 71l12 72q6 36 12 65q23 94 61 160.5t95 109.5t137 64.5t185 25.5l-33 -147q-72 -4 -121 -18.5t-82 -42t-51.5 -67.5t-30.5 -93q-6 -25 -11 -60l-10 -69l-11 -68q-5 -33 -11 -55 q-16 -66 -37.5 -112t-53.5 -79t-76 -55.5t-103 -40.5q102 -37 134 -100.5t3 -190.5l-37 -118q-20 -65 -33 -119q-12 -53 -12 -93.5t20.5 -69t61.5 -44t113 -19.5l-37 -147q-209 8 -281 91t-31 267q6 31 18 66l21 69q10 35 20.5 66t14.5 49q20 88 -12.5 140.5t-140.5 84.5z " />
<glyph unicode="|" d="M393 -260l402 1735h155l-401 -1735h-156z" />
<glyph unicode="}" horiz-adv-x="628" d="M-37 -262l33 147q70 4 119 19.5t80.5 44t51 68.5t32.5 94q12 55 21 119.5t19 117.5q14 63 36 110.5t54.5 81t76.5 57.5t106 42q-53 18 -87 40.5t-50.5 55.5t-17.5 79t16 112l15 55q9 33 20.5 67.5t20.5 69.5l15 60q12 53 11.5 93t-20 67.5t-61.5 42t-112 18.5l37 147 q207 -8 280.5 -90t28.5 -270q-6 -29 -16 -65l-22 -72l-21 -71q-10 -34 -15 -54q-23 -88 9 -140.5t145 -81.5l-31 -131q-125 -33 -180 -85t-76 -140q-4 -18 -9 -49l-11 -66l-12 -69q-6 -35 -13 -66q-41 -182 -152.5 -266t-320.5 -92z" />
<glyph unicode="~" d="M266 522l19 146q41 31 84 55q37 20 81 37.5t89 17.5t93 -16.5t95 -34.5l90 -35q43 -16 78 -16q29 0 67.5 14.5t73.5 32.5l82 49l-20 -147q-39 -31 -80 -54q-35 -20 -78 -36.5t-84 -16.5q-45 0 -94 16.5t-97 34.5l-93 35q-44 16 -76 17q-33 0 -73 -15.5t-75 -34.5 q-41 -23 -82 -49z" />
<glyph unicode="&#xa2;" horiz-adv-x="894" d="M174 306q-4 81 25 202q51 227 169.5 330.5t295.5 113.5l55 242h135l-57 -248q33 -4 69.5 -6t65.5 -6l67 -8l-38 -138q-53 2 -103 7q-41 4 -86 6t-74 2q-76 0 -131 -15.5t-95 -50.5t-66.5 -91t-45.5 -138q-18 -84 -18 -138.5t24.5 -87t77 -46t136.5 -13.5q29 0 72.5 1 t84.5 5q47 2 99 7l-25 -138l-74 -8q-33 -4 -69.5 -7t-69.5 -5l-55 -244h-135l55 240q-90 4 -153.5 27.5t-97.5 73.5t-38 131z" />
<glyph unicode="&#xa3;" d="M168 0l31 135h174l135 586h-137l30 135h138l30 131q29 125 68 204t90 124t113.5 61.5t136.5 16.5q35 0 79 -5.5t83 -9.5l90 -12l-31 -133q-47 4 -92 10q-39 4 -82 8t-74 4q-49 0 -85 -12t-61.5 -44t-46 -86t-38.5 -136l-29 -121h348l-30 -135h-349l-135 -586h316l161 33 l-2 -131l-176 -37h-655z" />
<glyph unicode="&#xa5;" horiz-adv-x="1105" d="M176 342l31 133h379l30 131l-8 39h-364l30 133h287l-223 574h176l225 -553l475 553h177l-484 -574h279l-31 -133h-356l-25 -39l-31 -131h375l-31 -133h-374l-78 -342h-158l78 342h-379z" />
<glyph unicode="&#xa9;" d="M214.5 677q-16.5 99 10.5 212t88.5 212t148.5 173t192.5 117t217.5 43q115 0 202 -43t139.5 -118t67.5 -174.5t-9 -209.5q-27 -113 -88.5 -212t-147.5 -173t-192.5 -116t-222.5 -42q-113 0 -198 42t-138.5 116t-70 173zM307 713q15 -82 58 -143.5t113.5 -97.5t164.5 -36 t182 36t160 97.5t123 143.5t74 176q20 94 7 177t-57.5 144.5t-115 97t-164.5 35.5t-181 -35.5t-159 -97t-124.5 -144.5t-72.5 -177q-23 -94 -8 -176zM506 654q-33 81 2 237q33 147 103.5 229t209.5 82q33 0 60.5 -2t48.5 -4q23 -4 43 -6l-31 -125q-23 2 -45 6q-20 2 -48 4 t-56 2q-78 0 -111 -52t-51 -134q-10 -41 -13.5 -76t5 -60.5t28 -40t54.5 -14.5q57 0 104 7l51 8l-26 -125l-50 -8q-23 -4 -51 -6.5t-57 -2.5q-137 0 -170 81z" />
<glyph unicode="&#xad;" horiz-adv-x="901" d="M246 500l35 151h639l-35 -151h-639z" />
<glyph unicode="&#xae;" d="M196.5 671.5q-14.5 102.5 12.5 217.5t88 216t149.5 178t198 121t232.5 44q121 0 211 -44t144 -120t70.5 -177t-10.5 -218q-27 -115 -90 -216.5t-152 -178t-200 -120.5t-232 -44q-123 0 -212 44t-142 119.5t-67.5 178zM290.5 708q14.5 -85 59.5 -149.5t119 -101.5t170 -37 t187.5 37t166 100.5t129 149.5t76.5 182q23 98 7.5 184t-61.5 149.5t-120 100.5t-168 37q-96 0 -187 -37t-166 -100.5t-128 -149.5t-76 -184q-23 -96 -8.5 -181zM444 565l150 645h215q125 0 173 -43t24 -151q-16 -76 -49 -122t-99 -71l57 -258h-127l-51 244h-119l-57 -244 h-117zM641 907h121q53 0 84 21.5t43 81.5q14 57 -11.5 79.5t-91.5 22.5h-98z" />
<glyph unicode="&#xb4;" horiz-adv-x="548" d="M358 1341l492 195l20 -143l-489 -176z" />
<glyph unicode="&#x2000;" horiz-adv-x="808" />
<glyph unicode="&#x2001;" horiz-adv-x="1616" />
<glyph unicode="&#x2002;" horiz-adv-x="808" />
<glyph unicode="&#x2003;" horiz-adv-x="1616" />
<glyph unicode="&#x2004;" horiz-adv-x="538" />
<glyph unicode="&#x2005;" horiz-adv-x="404" />
<glyph unicode="&#x2006;" horiz-adv-x="269" />
<glyph unicode="&#x2007;" horiz-adv-x="269" />
<glyph unicode="&#x2008;" horiz-adv-x="202" />
<glyph unicode="&#x2009;" horiz-adv-x="323" />
<glyph unicode="&#x200a;" horiz-adv-x="89" />
<glyph unicode="&#x2010;" horiz-adv-x="901" d="M246 500l35 151h639l-35 -151h-639z" />
<glyph unicode="&#x2011;" horiz-adv-x="901" d="M246 500l35 151h639l-35 -151h-639z" />
<glyph unicode="&#x2012;" horiz-adv-x="901" d="M246 500l35 151h639l-35 -151h-639z" />
<glyph unicode="&#x2013;" horiz-adv-x="1024" d="M111 483l32 144h1024l-32 -144h-1024z" />
<glyph unicode="&#x2014;" horiz-adv-x="2048" d="M111 483l32 144h2048l-32 -144h-2048z" />
<glyph unicode="&#x2018;" horiz-adv-x="348" d="M268 1040l209 449h139l-190 -449h-158z" />
<glyph unicode="&#x2019;" horiz-adv-x="348" d="M319 1079l193 449h158l-211 -449h-140z" />
<glyph unicode="&#x201c;" horiz-adv-x="780" d="M360 1036l211 449h140l-193 -449h-158zM680 1036l211 449h139l-192 -449h-158z" />
<glyph unicode="&#x201d;" horiz-adv-x="792" d="M379 1036l192 449h158l-211 -449h-139zM698 1036l193 449h158l-211 -449h-140z" />
<glyph unicode="&#x2022;" d="M340 217l135 586h504l-135 -586h-504z" />
<glyph unicode="&#x2026;" horiz-adv-x="1523" d="M176 0l53 233h166l-53 -233h-166zM696 0l54 233h168l-54 -233h-168zM1219 0l53 233h166l-54 -233h-165z" />
<glyph unicode="&#x202f;" horiz-adv-x="323" />
<glyph unicode="&#x205f;" horiz-adv-x="404" />
<glyph unicode="&#x20ac;" horiz-adv-x="1136" d="M166 457l29 127h120q4 23 9.5 46t11.5 48t11 49.5t13 48.5h-120l28 127h129q39 121 91.5 211t124 149.5t168 89t227.5 29.5q70 0 134 -6t113 -14q57 -8 107 -19l-39 -141l-113 12l-108 10q-59 5 -113 5q-94 0 -161.5 -19.5t-118 -60.5t-85 -102.5t-63.5 -143.5l553 -2 l-29 -125h-563l-45 -192l563 -2l-28 -125h-553q-10 -84 -3 -144.5t39.5 -100.5t92 -59.5t153.5 -19.5q47 0 106.5 4t113.5 10q61 6 122 15l-26 -144q-59 -12 -125 -20q-55 -8 -122 -13t-126 -5q-133 0 -216 29.5t-127 89t-53 148.5t7 210h-129z" />
<glyph unicode="&#x2122;" d="M287 1188l24 102h410l-25 -102h-135l-117 -508h-112l117 508h-162zM643 678l141 612h146l39 -426l241 426h146l-142 -612h-106l106 459l-235 -428h-88l-35 428l-106 -459h-107z" />
<glyph unicode="&#x25fc;" horiz-adv-x="1025" d="M0 0v1025h1025v-1025h-1025z" />
<glyph unicode="&#xfb01;" horiz-adv-x="1167" d="M-133 -342q86 45 140 80t89 72.5t54.5 85t35.5 116.5l203 877h-125l31 135h125l20 92q25 102 56.5 174t75.5 116t101.5 63.5t129.5 19.5q27 0 58.5 -2t60.5 -6q33 -4 67 -6l-31 -132q-29 0 -55 3q-25 2 -52.5 3t-49.5 1q-86 0 -131 -53.5t-76 -182.5l-19 -90h293 l-30 -135h-295l-201 -883q-23 -94 -52.5 -160.5t-77.5 -119t-123 -98.5t-185 -99zM850 0l235 1024h152l-236 -1024h-151zM1139 1255l41 179h151l-41 -179h-151z" />
<glyph unicode="&#xfb02;" horiz-adv-x="1179" d="M-133 -342q86 45 140 80t89 72.5t54.5 85t35.5 116.5l203 877h-125l31 135h125l20 92q25 102 56.5 174t75.5 116t101.5 63.5t129.5 19.5q27 0 58.5 -2t60.5 -6q33 -4 67 -6l-31 -132q-29 0 -55 3q-25 2 -52.5 3t-49.5 1q-86 0 -131 -53.5t-76 -182.5l-19 -90h293 l-30 -135h-295l-201 -883q-23 -94 -52.5 -160.5t-77.5 -119t-123 -98.5t-185 -99zM856 0l338 1470h152l-338 -1470h-152z" />
<glyph unicode="&#xfb03;" horiz-adv-x="1851" d="M-133 -342q86 45 140 80t89 72.5t54.5 85t35.5 116.5l203 877h-125l31 135h125l20 92q25 102 56.5 174t75.5 116t101.5 63.5t129.5 19.5q27 0 58.5 -2t60.5 -6q33 -4 67 -6l-31 -132q-29 0 -55 3q-25 2 -52.5 3t-49.5 1q-86 0 -131 -53.5t-76 -182.5l-19 -90h293 l-30 -135h-295l-201 -883q-23 -94 -52.5 -160.5t-77.5 -119t-123 -98.5t-185 -99zM551 -342q86 45 140 80t89 72.5t54.5 85t35.5 116.5l203 877h-125l31 135h125l20 92q25 102 56.5 174t75.5 116t101.5 63.5t129.5 19.5q27 0 58.5 -2t60.5 -6q33 -4 67 -6l-31 -132 q-29 0 -55 3q-25 2 -52.5 3t-49.5 1q-86 0 -131 -53.5t-76 -182.5l-19 -90h293l-30 -135h-295l-201 -883q-23 -94 -52.5 -160.5t-77.5 -119t-123 -98.5t-185 -99zM1534 0l235 1024h152l-236 -1024h-151zM1823 1255l41 179h151l-41 -179h-151z" />
<glyph unicode="&#xfb04;" horiz-adv-x="1863" d="M-133 -342q86 45 140 80t89 72.5t54.5 85t35.5 116.5l203 877h-125l31 135h125l20 92q25 102 56.5 174t75.5 116t101.5 63.5t129.5 19.5q27 0 58.5 -2t60.5 -6q33 -4 67 -6l-31 -132q-29 0 -55 3q-25 2 -52.5 3t-49.5 1q-86 0 -131 -53.5t-76 -182.5l-19 -90h293 l-30 -135h-295l-201 -883q-23 -94 -52.5 -160.5t-77.5 -119t-123 -98.5t-185 -99zM551 -342q86 45 140 80t89 72.5t54.5 85t35.5 116.5l203 877h-125l31 135h125l20 92q25 102 56.5 174t75.5 116t101.5 63.5t129.5 19.5q27 0 58.5 -2t60.5 -6q33 -4 67 -6l-31 -132 q-29 0 -55 3q-25 2 -52.5 3t-49.5 1q-86 0 -131 -53.5t-76 -182.5l-19 -90h293l-30 -135h-295l-201 -883q-23 -94 -52.5 -160.5t-77.5 -119t-123 -98.5t-185 -99zM1540 0l338 1470h152l-338 -1470h-152z" />
</font>
</defs>
</svg>
